{"glyphs":{"0":{"ha":817,"x_min":0,"x_max":0,"o":"m 407 178 b 561 325 506 178 561 243 l 561 682 b 410 838 561 775 506 838 b 256 682 311 838 256 769 l 256 326 b 407 178 256 242 308 178 m 408 -14 b 63 317 185 -14 63 122 l 63 689 b 408 1028 63 881 204 1028 b 754 690 618 1028 754 876 l 754 317 b 408 -14 754 118 625 -14 "},"1":{"ha":817,"x_min":0,"x_max":0,"o":"m 63 185 l 315 185 l 315 728 b 151 644 283 681 214 644 l 136 644 l 136 847 l 143 847 b 322 1014 276 847 322 942 l 508 1014 l 508 185 l 754 185 l 754 0 l 63 0 "},"2":{"ha":817,"x_min":0,"x_max":0,"o":"m 63 182 b 356 544 63 356 218 460 b 564 744 464 613 564 668 b 408 861 564 808 510 861 b 207 718 310 861 246 803 l 40 801 b 407 1028 107 940 231 1028 b 760 743 629 1028 760 903 b 482 413 760 582 615 493 b 256 185 367 342 257 279 l 754 185 l 754 0 l 63 0 "},"3":{"ha":817,"x_min":0,"x_max":0,"o":"m 415 -14 b 31 174 239 -14 128 43 l 199 294 b 417 163 253 201 325 163 b 582 301 511 163 582 214 b 431 428 582 376 535 428 l 297 428 l 297 606 l 428 606 b 576 742 536 606 576 671 b 419 860 576 800 522 860 b 215 735 308 860 258 821 l 47 818 b 418 1028 121 960 247 1028 b 764 750 618 1028 764 914 b 646 521 764 650 721 571 b 775 296 726 476 775 403 b 415 -14 775 122 642 -14 "},"4":{"ha":817,"x_min":0,"x_max":0,"o":"m 467 206 l 56 206 l 56 382 l 443 1014 l 654 1014 l 654 382 l 761 382 l 761 206 l 654 206 l 654 0 l 467 0 m 467 382 l 467 725 l 256 382 "},"5":{"ha":817,"x_min":0,"x_max":0,"o":"m 407 -14 b 35 183 215 -14 93 71 l 222 292 b 410 164 250 215 317 164 b 581 342 499 164 581 238 b 404 525 581 443 514 525 b 225 425 317 525 264 483 l 53 514 l 125 1014 l 732 1014 l 732 833 l 276 833 l 250 654 b 433 701 292 679 351 701 b 775 340 618 701 775 583 b 407 -14 775 139 621 -14 "},"6":{"ha":817,"x_min":0,"x_max":0,"o":"m 410 -14 b 42 338 196 -14 42 142 b 119 593 42 433 72 522 l 379 1014 l 607 1014 l 393 682 b 449 690 411 688 429 690 b 775 339 629 690 775 546 b 410 -14 775 132 618 -14 m 406 161 b 585 343 503 161 585 243 b 406 524 585 440 503 524 b 231 342 308 524 231 440 b 406 161 231 243 308 161 "},"7":{"ha":817,"x_min":0,"x_max":0,"o":"m 551 829 l 63 829 l 63 1014 l 754 1014 l 754 846 l 356 0 l 150 0 "},"8":{"ha":817,"x_min":0,"x_max":0,"o":"m 407 -14 b 46 304 178 -14 46 108 b 169 540 46 407 92 488 b 81 738 114 588 81 653 b 414 1028 81 914 214 1028 b 744 738 611 1028 744 914 b 650 539 744 653 708 586 b 771 304 726 486 771 407 b 407 -14 771 108 635 -14 m 407 157 b 586 304 525 157 586 222 b 411 451 586 386 525 451 b 232 304 296 451 232 385 b 407 157 232 222 288 157 m 410 613 b 568 738 514 613 568 668 b 415 864 568 807 513 864 b 257 738 315 864 257 807 b 410 613 257 667 307 613 "},"9":{"ha":817,"x_min":0,"x_max":0,"o":"m 210 0 l 421 328 b 368 322 403 324 385 322 b 42 675 188 322 42 468 b 407 1028 42 882 199 1028 b 775 676 621 1028 775 872 b 697 421 775 581 744 492 l 438 0 m 411 490 b 586 672 508 490 586 574 b 411 853 586 771 508 853 b 232 671 314 853 232 771 b 411 490 232 574 314 490 "},"B":{"ha":792,"x_min":0,"x_max":0,"o":"m 56 1014 l 372 1014 b 728 729 597 1014 728 914 b 618 533 728 644 690 576 b 764 301 711 490 764 413 b 399 0 764 100 624 0 l 56 0 m 249 431 l 249 178 l 399 178 b 569 306 511 178 569 224 b 389 431 569 388 531 431 m 249 836 l 249 611 l 372 611 b 533 729 492 611 533 658 b 374 836 533 803 488 836 "},"C":{"ha":1021,"x_min":0,"x_max":0,"o":"m 549 -14 b 28 507 235 -14 28 218 b 549 1028 28 810 256 1028 b 993 776 739 1028 904 928 l 824 668 b 549 838 767 774 678 838 b 219 507 360 838 219 693 b 544 179 219 325 358 179 b 832 368 683 179 781 260 l 1008 275 b 549 -14 919 103 750 -14 "},"D":{"ha":896,"x_min":0,"x_max":0,"o":"m 56 1014 l 332 1014 b 868 507 675 1014 868 794 b 340 0 868 218 650 0 l 56 0 m 249 835 l 249 179 l 318 179 b 675 507 538 179 675 321 b 310 835 675 699 558 835 "},"E":{"ha":701,"x_min":0,"x_max":0,"o":"m 56 1014 l 657 1014 l 657 829 l 249 829 l 249 601 l 657 601 l 657 417 l 249 417 l 249 185 l 657 185 l 657 0 l 56 0 "},"F":{"ha":678,"x_min":0,"x_max":0,"o":"m 56 1014 l 629 1014 l 629 829 l 249 829 l 249 601 l 629 601 l 629 417 l 249 417 l 249 0 l 56 0 "},"G":{"ha":1078,"x_min":0,"x_max":0,"o":"m 554 -14 b 28 507 238 -14 28 226 b 546 1028 28 796 246 1028 b 1007 768 757 1028 921 921 l 838 665 b 547 840 775 781 679 840 b 219 507 363 840 219 689 b 554 174 219 321 360 174 b 842 386 701 174 806 257 l 524 386 l 524 571 l 1050 571 l 1050 493 b 554 -14 1050 221 856 -14 "},"H":{"ha":879,"x_min":0,"x_max":0,"o":"m 631 415 l 249 415 l 249 0 l 56 0 l 56 1014 l 249 1014 l 249 600 l 631 600 l 631 1014 l 824 1014 l 824 0 l 631 0 "},"I":{"ha":318,"x_min":0,"x_max":0,"o":"m 63 1014 l 256 1014 l 256 0 l 63 0 "},"J":{"ha":699,"x_min":0,"x_max":0,"o":"m 346 -14 b 25 219 181 -14 58 76 l 217 281 b 343 167 229 215 278 167 b 450 293 418 167 450 225 l 450 1014 l 643 1014 l 643 311 b 346 -14 643 107 535 -14 "},"K":{"ha":856,"x_min":0,"x_max":0,"o":"m 354 485 l 249 353 l 249 0 l 56 0 l 56 1014 l 249 1014 l 249 606 l 576 1014 l 811 1014 l 492 619 l 839 0 l 619 0 "},"L":{"ha":664,"x_min":0,"x_max":0,"o":"m 56 1014 l 249 1014 l 249 185 l 615 185 l 615 0 l 56 0 "},"M":{"ha":1104,"x_min":0,"x_max":0,"o":"m 56 1014 l 247 1014 l 551 592 l 867 1014 l 1049 1014 l 1049 0 l 856 0 l 856 703 l 550 290 l 249 699 l 249 0 l 56 0 "},"N":{"ha":954,"x_min":0,"x_max":0,"o":"m 56 1014 l 275 1014 l 706 332 l 706 1014 l 899 1014 l 899 0 l 693 0 l 249 704 l 249 0 l 56 0 "},"O":{"ha":1093,"x_min":0,"x_max":0,"o":"m 546 -14 b 28 507 258 -14 28 218 b 546 1028 28 794 258 1028 b 1065 507 835 1028 1065 794 b 546 -14 1065 218 835 -14 m 546 176 b 874 507 728 176 874 325 b 546 838 874 689 728 838 b 219 507 364 838 219 689 b 546 176 219 325 364 176 "},"P":{"ha":804,"x_min":0,"x_max":0,"o":"m 56 1014 l 404 1014 b 769 651 614 1014 769 853 b 403 289 769 450 614 289 l 249 289 l 249 0 l 56 0 m 249 835 l 249 468 l 390 468 b 575 651 500 468 575 550 b 390 835 575 753 500 835 "},"Q":{"ha":1093,"x_min":0,"x_max":0,"o":"m 469 501 l 700 501 l 826 338 b 874 507 856 388 874 444 b 546 838 874 689 728 838 b 219 507 364 838 219 689 b 546 176 219 325 364 176 b 640 190 579 176 611 182 l 761 32 b 546 -14 696 3 622 -14 b 28 507 258 -14 28 218 b 546 1028 28 794 258 1028 b 1065 507 835 1028 1065 794 b 950 176 1065 382 1024 267 l 1088 0 l 851 0 "},"R":{"ha":796,"x_min":0,"x_max":0,"o":"m 56 1014 l 374 1014 b 747 674 607 1014 747 865 b 551 372 747 547 686 424 l 782 0 l 561 0 l 257 501 l 351 501 b 553 674 501 501 553 601 b 351 833 553 775 497 833 l 249 833 l 249 0 l 56 0 "},"S":{"ha":782,"x_min":0,"x_max":0,"o":"m 400 -14 b 3 168 217 -14 94 64 l 179 307 b 399 171 229 221 308 171 b 550 304 497 171 550 235 b 340 447 550 388 449 414 b 53 736 204 489 53 542 b 390 1028 53 899 194 1028 b 732 881 556 1028 650 965 l 572 760 b 392 856 531 822 471 856 b 253 743 301 856 253 807 b 458 603 253 665 350 639 b 751 303 596 558 751 497 b 400 -14 751 142 624 -14 "},"T":{"ha":801,"x_min":0,"x_max":0,"o":"m 304 829 l 35 829 l 35 1014 l 767 1014 l 767 829 l 497 829 l 497 0 l 304 0 "},"U":{"ha":843,"x_min":0,"x_max":0,"o":"m 421 -14 b 56 351 210 -14 56 110 l 56 1014 l 249 1014 l 249 339 b 419 165 249 242 322 165 b 594 339 517 165 594 242 l 594 1014 l 788 1014 l 788 351 b 421 -14 788 110 632 -14 "},"V":{"ha":911,"x_min":0,"x_max":0,"o":"m 19 1014 l 219 1014 l 456 294 l 692 1014 l 892 1014 l 553 0 l 358 0 "},"W":{"ha":1417,"x_min":0,"x_max":0,"o":"m 18 1014 l 219 1014 l 408 313 l 617 1014 l 807 1014 l 1015 315 l 1201 1014 l 1397 1014 l 1111 0 l 921 0 l 711 708 l 503 0 l 306 0 "},"X":{"ha":874,"x_min":0,"x_max":0,"o":"m 436 343 l 231 0 l 14 0 l 322 513 l 19 1014 l 236 1014 l 436 681 l 638 1014 l 854 1014 l 550 513 l 860 0 l 643 0 "},"Y":{"ha":874,"x_min":0,"x_max":0,"o":"m 339 481 l 17 1014 l 229 1014 l 436 665 l 644 1014 l 857 1014 l 532 476 l 532 0 l 339 0 "},"Z":{"ha":768,"x_min":0,"x_max":0,"o":"m 49 178 l 490 829 l 64 829 l 64 1014 l 719 1014 l 719 838 l 276 185 l 719 185 l 719 0 l 49 0 "},"a":{"ha":811,"x_min":0,"x_max":0,"o":"m 363 -14 b 28 347 215 -14 28 103 b 365 708 28 593 208 708 b 572 626 456 708 526 675 l 572 694 l 763 694 l 763 0 l 572 0 l 572 78 b 363 -14 526 24 453 -14 m 400 161 b 578 349 503 161 578 246 b 400 535 578 451 503 535 b 214 349 294 535 214 456 b 400 161 214 242 294 161 "},"b":{"ha":806,"x_min":0,"x_max":0,"o":"m 450 -14 b 239 75 358 -14 283 21 l 239 0 l 49 0 l 49 1014 l 239 1014 l 239 618 b 447 708 283 672 354 708 b 783 347 604 708 783 593 b 450 -14 783 103 597 -14 m 411 161 b 597 349 517 161 597 242 b 411 535 597 456 517 535 b 233 349 308 535 233 451 b 411 161 233 246 308 161 "},"c":{"ha":743,"x_min":0,"x_max":0,"o":"m 388 -14 b 28 347 188 -14 28 147 b 388 708 28 547 188 708 b 722 489 546 708 668 618 l 553 417 b 389 528 526 482 463 528 b 211 347 289 528 211 447 b 389 167 211 247 289 167 b 553 278 463 167 526 213 l 722 206 b 388 -14 668 76 546 -14 "},"d":{"ha":811,"x_min":0,"x_max":0,"o":"m 363 -14 b 28 347 215 -14 28 103 b 365 708 28 593 208 708 b 572 626 456 708 526 675 l 572 1014 l 763 1014 l 763 0 l 572 0 l 572 78 b 363 -14 526 24 453 -14 m 400 161 b 578 349 503 161 578 246 b 400 535 578 451 503 535 b 214 349 294 535 214 456 b 400 161 214 242 294 161 "},"e":{"ha":776,"x_min":0,"x_max":0,"o":"m 394 -14 b 28 347 178 -14 28 147 b 389 708 28 547 189 708 b 747 349 601 708 747 549 l 747 279 l 211 279 b 396 153 233 203 296 153 b 567 261 472 153 536 194 l 718 171 b 394 -14 658 63 549 -14 m 390 542 b 219 432 310 542 249 497 l 556 432 b 390 542 531 504 471 542 "},"f":{"ha":508,"x_min":0,"x_max":0,"o":"m 35 694 l 153 694 l 153 713 b 458 1014 153 939 226 1014 l 474 1014 l 474 836 b 343 711 357 836 343 819 l 343 694 l 474 694 l 474 524 l 343 524 l 343 0 l 153 0 l 153 524 l 35 524 "},"g":{"ha":811,"x_min":0,"x_max":0,"o":"m 363 -14 b 28 347 215 -14 28 103 b 365 708 28 593 208 708 b 572 619 456 708 526 671 l 572 694 l 763 694 l 763 19 b 404 -335 763 -176 639 -335 b 43 -135 228 -335 99 -243 l 211 -40 b 404 -158 247 -112 311 -158 b 572 13 507 -158 572 -78 l 572 78 b 363 -14 526 24 453 -14 m 400 161 b 578 349 503 161 578 246 b 400 535 578 451 503 535 b 214 349 294 535 214 456 b 400 161 214 242 294 161 "},"h":{"ha":740,"x_min":0,"x_max":0,"o":"m 49 1014 l 238 1014 l 238 618 b 429 708 283 674 350 708 b 692 424 593 708 692 603 l 692 0 l 499 0 l 499 397 b 371 546 499 492 456 546 b 239 379 299 546 239 496 l 239 0 l 49 0 "},"i":{"ha":288,"x_min":0,"x_max":0,"o":"m 49 694 l 239 694 l 239 0 l 49 0 m 49 954 l 239 954 l 239 764 l 49 764 "},"j":{"ha":288,"x_min":0,"x_max":0,"o":"m -82 -142 b 49 -17 35 -142 49 -125 l 49 694 l 239 694 l 239 -18 b -54 -319 239 -244 167 -319 l -82 -319 m 49 954 l 239 954 l 239 764 l 49 764 "},"k":{"ha":753,"x_min":0,"x_max":0,"o":"m 332 278 l 239 168 l 239 0 l 49 0 l 49 1014 l 239 1014 l 239 388 l 494 694 l 715 694 l 463 394 l 729 0 l 521 0 "},"l":{"ha":288,"x_min":0,"x_max":0,"o":"m 49 1014 l 239 1014 l 239 0 l 49 0 "},"m":{"ha":1165,"x_min":0,"x_max":0,"o":"m 49 694 l 238 694 l 238 621 b 422 708 281 675 344 708 b 636 599 521 708 594 669 b 853 708 683 665 763 708 b 1117 424 1029 708 1117 603 l 1117 0 l 924 0 l 924 399 b 803 546 924 492 888 546 b 678 379 731 546 678 496 l 678 0 l 485 0 l 485 399 b 364 546 485 492 449 546 b 239 379 292 546 239 496 l 239 0 l 49 0 "},"n":{"ha":740,"x_min":0,"x_max":0,"o":"m 49 694 l 238 694 l 238 617 b 429 708 282 674 350 708 b 692 424 593 708 692 603 l 692 0 l 499 0 l 499 399 b 371 546 499 492 456 546 b 239 379 299 546 239 496 l 239 0 l 49 0 "},"o":{"ha":775,"x_min":0,"x_max":0,"o":"m 388 -14 b 28 347 188 -14 28 147 b 388 708 28 547 188 708 b 747 347 588 708 747 547 b 388 -14 747 147 588 -14 m 388 167 b 563 347 485 167 563 249 b 388 528 563 446 485 528 b 214 347 289 528 214 446 b 388 167 214 249 289 167 "},"p":{"ha":806,"x_min":0,"x_max":0,"o":"m 450 -14 b 239 68 358 -14 283 17 l 239 -319 l 49 -319 l 49 694 l 239 694 l 239 615 b 447 708 283 669 354 708 b 783 347 604 708 783 593 b 450 -14 783 103 597 -14 m 411 161 b 597 349 517 161 597 242 b 411 535 597 456 517 535 b 233 349 308 535 233 451 b 411 161 233 246 308 161 "},"q":{"ha":811,"x_min":0,"x_max":0,"o":"m 363 -14 b 28 347 215 -14 28 103 b 365 708 28 593 208 708 b 572 619 456 708 526 671 l 572 694 l 763 694 l 763 -319 l 572 -319 l 572 69 b 363 -14 526 18 453 -14 m 400 161 b 578 349 503 161 578 246 b 400 535 578 451 503 535 b 214 349 294 535 214 456 b 400 161 214 242 294 161 "},"r":{"ha":543,"x_min":0,"x_max":0,"o":"m 49 694 l 238 694 l 238 581 b 429 694 272 653 335 694 l 506 694 l 506 510 l 385 510 b 239 328 283 510 239 457 l 239 0 l 49 0 "},"s":{"ha":649,"x_min":0,"x_max":0,"o":"m 326 -14 b 7 174 158 -14 57 51 l 189 244 b 335 150 214 181 267 150 b 431 213 397 150 431 179 b 282 276 431 250 363 261 b 32 490 157 299 32 342 b 317 708 32 607 144 711 b 611 547 472 708 561 644 l 443 476 b 315 553 425 522 378 553 b 225 496 253 553 225 526 b 369 433 225 465 265 454 b 621 218 486 410 621 368 b 326 -14 621 117 526 -17 "},"t":{"ha":515,"x_min":0,"x_max":0,"o":"m 35 694 l 153 694 l 153 857 l 343 961 l 343 694 l 474 694 l 474 524 l 343 524 l 343 303 b 474 178 343 194 357 178 l 474 0 l 446 0 b 153 301 225 0 153 75 l 153 524 l 35 524 "},"u":{"ha":740,"x_min":0,"x_max":0,"o":"m 311 -14 b 49 271 147 -14 49 92 l 49 694 l 242 694 l 242 296 b 369 149 242 203 285 149 b 501 315 442 149 501 199 l 501 694 l 692 694 l 692 0 l 503 0 l 503 76 b 311 -14 457 21 390 -14 "},"v":{"ha":757,"x_min":0,"x_max":0,"o":"m 22 694 l 218 694 l 381 243 l 539 694 l 732 694 l 476 0 l 285 0 "},"w":{"ha":1228,"x_min":0,"x_max":0,"o":"m 35 696 l 225 694 l 367 251 l 525 694 l 714 694 l 863 251 l 1013 694 l 1201 694 l 954 0 l 771 0 l 615 442 l 453 0 l 268 0 "},"x":{"ha":781,"x_min":0,"x_max":0,"o":"m 276 353 l 31 694 l 263 694 l 397 500 l 529 694 l 753 694 l 513 351 l 772 0 l 540 0 l 394 203 l 253 0 l 21 0 "},"y":{"ha":765,"x_min":0,"x_max":0,"o":"m 293 31 l 17 694 l 217 694 l 388 267 l 547 694 l 744 694 l 342 -321 l 151 -321 "},"z":{"ha":711,"x_min":0,"x_max":0,"o":"m 42 169 l 407 526 l 47 526 l 47 694 l 663 694 l 663 524 l 297 168 l 669 168 l 669 0 l 42 0 "},"!":{"ha":288,"x_min":0,"x_max":0,"o":"m 92 260 b 49 851 67 428 49 665 l 49 1014 l 239 1014 l 239 851 b 196 260 239 665 221 428 l 92 260 m 49 190 l 239 190 l 239 0 l 49 0 "},"¡":{"ha":288,"x_min":0,"x_max":0,"o":"m 49 -157 b 92 435 49 29 67 267 l 196 435 b 239 -157 221 267 239 29 l 239 -319 l 49 -319 m 49 694 l 239 694 l 239 504 l 49 504 "},"?":{"ha":715,"x_min":0,"x_max":0,"o":"m 249 276 b 476 739 249 614 476 574 b 347 860 476 808 426 860 b 211 742 275 860 226 808 l 32 801 b 350 1028 65 936 172 1028 b 672 736 539 1028 672 911 b 419 276 672 472 419 528 l 419 261 l 249 261 m 239 190 l 429 190 l 429 0 l 239 0 "},".":{"ha":288,"x_min":0,"x_max":0,"o":"m 49 190 l 239 190 l 239 0 l 49 0 "},"…":{"ha":807,"x_min":0,"x_max":0,"o":"m 49 190 l 239 190 l 239 0 l 49 0 m 308 190 l 499 190 l 499 0 l 308 0 m 568 190 l 758 190 l 758 0 l 568 0 "},",":{"ha":288,"x_min":0,"x_max":0,"o":"m 76 121 l 244 121 l 147 -162 l 29 -162 "},":":{"ha":288,"x_min":0,"x_max":0,"o":"m 49 190 l 239 190 l 239 0 l 49 0 m 49 694 l 239 694 l 239 504 l 49 504 "},";":{"ha":288,"x_min":0,"x_max":0,"o":"m 49 694 l 239 694 l 239 504 l 49 504 m 76 121 l 244 121 l 147 -162 l 29 -162 "},"_":{"ha":611,"x_min":0,"x_max":0,"o":"m 49 -14 l 563 -14 l 563 -176 l 49 -176 "},"'":{"ha":246,"x_min":0,"x_max":0,"o":"m 96 694 b 49 897 82 728 49 853 l 49 1014 l 197 1014 l 197 897 b 149 694 197 851 163 726 "},"\"":{"ha":450,"x_min":0,"x_max":0,"o":"m 96 694 b 49 897 82 728 49 853 l 49 1014 l 197 1014 l 197 897 b 149 694 197 851 163 726 l 96 694 m 300 694 b 253 897 286 728 253 853 l 253 1014 l 401 1014 l 401 897 b 353 694 401 851 367 726 l 300 694 "},"‘":{"ha":288,"x_min":0,"x_max":0,"o":"m 246 731 l 128 731 l 31 1014 l 199 1014 "},"’":{"ha":288,"x_min":0,"x_max":0,"o":"m 38 731 l 85 1014 l 253 1014 l 156 731 "},"‚":{"ha":288,"x_min":0,"x_max":0,"o":"m 29 -162 l 76 121 l 244 121 l 147 -162 "},"“":{"ha":514,"x_min":0,"x_max":0,"o":"m 251 731 l 133 731 l 36 1014 l 204 1014 m 478 731 l 360 731 l 263 1014 l 431 1014 "},"”":{"ha":514,"x_min":0,"x_max":0,"o":"m 38 731 l 85 1014 l 253 1014 l 156 731 m 264 731 l 311 1014 l 479 1014 l 382 731 "},"„":{"ha":514,"x_min":0,"x_max":0,"o":"m 29 -162 l 76 121 l 244 121 l 147 -162 m 256 -162 l 303 121 l 471 121 l 374 -162 "},"":{"ha":664,"x_min":0,"x_max":0,"o":"m 63 454 l 63 561 l 318 718 l 318 589 l 181 507 l 318 426 l 318 297 m 346 454 l 346 561 l 601 718 l 601 589 l 464 507 l 601 426 l 601 297 "},"":{"ha":664,"x_min":0,"x_max":0,"o":"m 346 426 l 483 507 l 346 589 l 346 718 l 601 561 l 601 454 l 346 297 m 63 426 l 200 507 l 63 589 l 63 718 l 318 561 l 318 454 l 63 297 "},"":{"ha":381,"x_min":0,"x_max":0,"o":"m 72 449 l 72 567 l 308 732 l 308 589 l 186 507 l 308 426 l 308 283 "},"":{"ha":381,"x_min":0,"x_max":0,"o":"m 72 428 l 194 508 l 72 590 l 72 733 l 308 568 l 308 450 l 72 285 "},"&":{"ha":1039,"x_min":0,"x_max":0,"o":"m 699 78 b 428 -15 619 21 528 -15 b 28 315 132 -15 28 160 b 203 599 28 443 101 539 b 156 765 172 649 156 701 b 447 1028 156 914 279 1028 b 746 836 619 1028 708 940 l 557 769 b 454 856 543 818 511 856 b 358 765 399 856 358 818 b 526 518 358 686 393 654 l 714 329 b 794 511 753 385 781 449 l 624 511 l 624 694 l 986 694 l 986 606 b 835 210 986 479 929 331 l 1042 0 l 778 0 m 426 154 b 576 197 479 154 531 169 l 367 410 b 311 465 347 429 328 447 b 219 317 251 429 219 385 b 426 154 219 231 292 154 "},"@":{"ha":1092,"x_min":0,"x_max":0,"o":"m 546 -174 b 28 347 258 -174 28 58 b 546 868 28 635 258 868 b 1064 400 864 868 1064 635 b 825 107 1064 242 971 107 b 657 183 743 107 688 142 b 483 108 622 138 564 108 b 269 358 374 108 253 197 b 518 608 288 529 421 608 b 651 557 576 608 622 589 b 657 600 656 596 657 600 l 808 600 l 782 349 b 838 257 775 292 792 257 b 913 400 881 257 913 315 b 546 719 913 557 772 719 b 178 346 340 719 178 553 b 546 -26 178 140 340 -26 b 819 96 656 -26 751 21 l 935 1 b 546 -174 840 -106 701 -174 m 518 251 b 635 363 581 251 629 301 b 542 472 642 422 603 472 b 422 363 481 472 425 425 b 518 251 414 300 457 251 "},"§":{"ha":796,"x_min":0,"x_max":0,"o":"m 394 -14 b 57 196 218 -14 88 92 l 249 249 b 410 144 265 188 329 144 b 522 207 485 144 522 171 b 325 297 522 258 438 271 b 25 524 158 336 25 388 b 143 688 25 597 75 658 b 100 811 115 722 100 764 b 392 1028 100 932 201 1031 b 708 836 560 1028 679 935 l 526 785 b 388 879 517 836 464 879 b 281 819 315 879 281 854 b 471 718 281 771 358 744 b 771 494 638 679 771 626 b 665 336 771 422 728 367 b 713 215 696 304 713 265 b 394 -14 713 89 586 -17 m 435 443 b 533 414 471 435 504 425 b 579 468 563 426 579 446 b 361 572 579 518 499 539 b 268 601 328 579 296 589 b 217 546 235 590 217 569 b 435 443 217 496 297 475 "},"¶":{"ha":918,"x_min":0,"x_max":0,"o":"m 456 419 l 329 419 b 28 717 157 419 28 550 b 328 1014 28 882 157 1014 l 869 1014 l 869 0 l 704 0 l 704 835 l 621 835 l 621 0 l 456 0 "},"":{"ha":553,"x_min":0,"x_max":0,"o":"m 276 350 b 119 507 190 350 119 421 b 276 664 119 593 190 664 b 433 507 363 664 433 593 b 276 350 433 421 363 350 "},"©":{"ha":1093,"x_min":0,"x_max":0,"o":"m 546 -14 b 28 507 258 -14 28 218 b 546 1028 28 794 258 1028 b 1065 507 835 1028 1065 794 b 546 -14 1065 218 835 -14 m 546 133 b 917 507 751 133 917 301 b 546 881 917 713 751 881 b 181 507 336 881 181 713 b 546 133 181 301 336 133 m 556 226 b 271 507 389 226 271 351 b 556 788 271 663 390 788 b 803 635 668 788 763 721 l 656 568 b 554 636 647 603 613 636 b 426 507 482 636 426 579 b 554 378 426 435 482 378 b 658 447 610 378 649 413 l 810 394 b 556 226 768 300 674 226 "},"®":{"ha":483,"x_min":0,"x_max":0,"o":"m 242 597 b 28 813 124 597 28 694 b 242 1028 28 931 124 1028 b 456 813 360 1028 456 931 b 242 597 456 694 360 597 m 144 921 l 251 921 b 353 846 315 921 353 892 b 308 778 353 813 338 789 l 349 711 b 389 813 374 738 389 772 b 242 960 389 896 324 960 b 97 813 158 960 97 896 b 242 664 97 731 158 664 b 344 707 282 664 318 681 l 271 707 l 218 807 l 218 707 l 144 707 m 218 863 l 218 818 l 249 818 b 276 840 263 818 276 822 b 249 863 276 858 264 863 "},"℗":{"ha":1093,"x_min":0,"x_max":0,"o":"m 546 -14 b 28 507 258 -14 28 218 b 546 1028 28 794 258 1028 b 1065 507 835 1028 1065 794 b 546 -14 1065 218 835 -14 m 546 133 b 917 507 751 133 917 301 b 546 881 917 713 751 881 b 181 507 336 881 181 713 b 546 133 181 301 336 133 m 349 769 l 606 769 b 810 564 718 769 810 678 b 607 358 810 451 724 358 l 508 358 l 508 236 l 349 236 m 508 638 l 508 490 l 578 490 b 651 564 619 490 651 526 b 578 638 651 601 619 638 "},"™":{"ha":900,"x_min":0,"x_max":0,"o":"m 408 1014 l 538 1014 l 632 890 l 733 1014 l 851 1014 l 851 611 l 715 611 l 715 803 l 629 707 l 544 803 l 544 611 l 408 611 m 135 888 l 35 888 l 35 1014 l 367 1014 l 367 888 l 269 888 l 269 611 l 135 611 "},"*":{"ha":560,"x_min":0,"x_max":0,"o":"m 332 681 l 363 524 l 197 524 l 229 681 l 107 575 l 26 719 l 176 769 l 26 822 l 111 964 l 229 858 l 197 1015 l 363 1015 l 331 856 l 453 964 l 535 819 l 379 768 l 535 717 l 450 575 "},"†":{"ha":726,"x_min":0,"x_max":0,"o":"m 49 694 l 267 694 l 267 1014 l 460 1014 l 460 694 l 678 694 l 678 522 l 460 522 l 460 0 l 267 0 l 267 522 l 49 522 "},"‡":{"ha":726,"x_min":0,"x_max":0,"o":"m 49 772 l 267 772 l 267 1014 l 460 1014 l 460 772 l 678 772 l 678 603 l 460 603 l 460 424 l 678 424 l 678 254 l 460 254 l 460 0 l 267 0 l 267 254 l 49 254 l 49 424 l 267 424 l 267 603 l 49 603 "},"^":{"ha":654,"x_min":0,"x_max":0,"o":"m 268 1000 l 386 1000 l 551 764 l 408 764 l 326 886 l 246 764 l 103 764 "},"~":{"ha":654,"x_min":0,"x_max":0,"o":"m 88 799 b 233 986 88 911 142 986 b 339 953 279 986 311 969 b 411 919 365 936 388 919 b 449 981 436 919 449 939 l 558 981 b 413 793 558 867 510 793 b 292 835 358 793 322 817 b 233 858 271 847 253 858 b 197 799 208 858 197 840 l 88 799 "},"ª":{"ha":501,"x_min":0,"x_max":0,"o":"m 207 604 b 25 813 131 604 25 664 b 210 1022 25 964 133 1022 b 314 979 256 1022 290 1004 l 314 1014 l 453 1014 l 453 611 l 314 611 l 314 653 b 207 604 289 624 251 604 m 242 732 b 318 814 288 732 318 769 b 242 894 318 858 288 894 b 161 814 196 894 161 863 b 242 732 161 767 196 732 "},"º":{"ha":465,"x_min":0,"x_max":0,"o":"m 233 604 b 25 813 118 604 25 697 b 233 1022 25 929 118 1022 b 440 813 349 1022 440 929 b 233 604 440 697 349 604 m 233 736 b 307 813 275 736 307 771 b 233 890 307 856 275 890 b 160 813 190 890 160 856 b 233 736 160 771 190 736 "},"":{"ha":290,"x_min":0,"x_max":0,"o":"m 49 1167 l 242 1167 l 242 -167 l 49 -167 "},"":{"ha":290,"x_min":0,"x_max":0,"o":"m 49 1167 l 242 1167 l 242 583 l 49 583 m 49 417 l 242 417 l 242 -167 l 49 -167 "},"":{"ha":536,"x_min":0,"x_max":0,"o":"m 415 -207 b 28 493 185 -51 28 176 b 399 1179 28 810 174 1015 l 528 1040 b 231 493 356 925 231 750 b 535 -49 231 251 338 74 l 415 -207 "},"":{"ha":536,"x_min":0,"x_max":0,"o":"m 1 -49 b 306 493 199 74 306 251 b 8 1040 306 750 181 925 l 138 1179 b 508 493 363 1015 508 810 b 121 -207 508 176 351 -51 "},"":{"ha":476,"x_min":0,"x_max":0,"o":"m 49 1167 l 428 1167 l 428 982 l 242 982 l 242 18 l 428 18 l 428 -167 l 49 -167 "},"":{"ha":476,"x_min":0,"x_max":0,"o":"m 49 18 l 235 18 l 235 982 l 49 982 l 49 1167 l 428 1167 l 428 -167 l 49 -167 "},"":{"ha":514,"x_min":0,"x_max":0,"o":"m 464 -167 b 158 135 232 -167 158 -92 l 158 268 b 28 407 158 376 144 407 l 28 585 b 158 724 144 585 158 615 l 158 865 b 464 1167 158 1092 232 1167 l 479 1167 l 479 989 b 349 864 363 989 349 972 l 349 722 b 243 496 349 606 319 533 b 349 269 319 458 349 386 l 349 136 b 479 11 349 28 363 11 l 479 -167 "},"":{"ha":514,"x_min":0,"x_max":0,"o":"m 35 11 b 165 136 151 11 165 28 l 165 269 b 269 496 165 386 193 458 b 165 722 193 533 165 606 l 165 864 b 35 989 165 972 151 989 l 35 1167 l 50 1167 b 356 865 282 1167 356 1092 l 356 724 b 486 585 356 615 369 585 l 486 407 b 356 268 369 407 356 376 l 356 135 b 50 -167 356 -92 282 -167 l 35 -167 "},"#":{"ha":1111,"x_min":0,"x_max":0,"o":"m 669 213 l 431 213 l 431 0 l 238 0 l 238 213 l 35 213 l 35 397 l 238 397 l 238 631 l 35 631 l 35 815 l 238 815 l 238 1014 l 431 1014 l 431 815 l 669 815 l 669 1014 l 863 1014 l 863 815 l 1076 815 l 1076 631 l 863 631 l 863 397 l 1076 397 l 1076 213 l 863 213 l 863 0 l 669 0 m 431 397 l 669 397 l 669 631 l 431 631 "},"%":{"ha":1143,"x_min":0,"x_max":0,"o":"m 189 779 b 276 692 189 732 229 692 b 364 779 324 692 364 732 b 276 867 364 826 324 867 b 189 779 229 867 189 826 m 618 233 b 867 482 618 371 729 482 b 1115 233 1004 482 1115 371 b 867 -15 1115 96 1004 -15 b 618 233 729 -15 618 96 m 885 1014 l 1129 1014 l 258 0 l 14 0 m 779 233 b 867 146 779 186 819 146 b 954 233 914 146 954 186 b 867 321 954 281 914 321 b 779 233 819 321 779 281 m 28 779 b 276 1028 28 917 139 1028 b 525 779 414 1028 525 917 b 276 531 525 642 414 531 b 28 779 139 531 28 642 "},"‰":{"ha":1668,"x_min":0,"x_max":0,"o":"m 885 1014 l 1129 1014 l 258 0 l 14 0 m 867 -15 b 618 233 729 -15 618 96 b 867 482 618 371 729 482 b 1115 233 1004 482 1115 371 b 867 -15 1115 96 1004 -15 m 867 146 b 954 233 914 146 954 186 b 867 321 954 281 914 321 b 779 233 819 321 779 281 b 867 146 779 186 819 146 m 276 531 b 28 779 139 531 28 642 b 276 1028 28 917 139 1028 b 525 779 414 1028 525 917 b 276 531 525 642 414 531 m 276 692 b 364 779 324 692 364 732 b 276 867 364 826 324 867 b 189 779 229 867 189 826 b 276 692 189 732 229 692 m 1392 -15 b 1143 233 1254 -15 1143 96 b 1392 482 1143 371 1254 482 b 1640 233 1529 482 1640 371 b 1392 -15 1640 96 1529 -15 m 1392 146 b 1479 233 1439 146 1479 186 b 1392 321 1479 281 1439 321 b 1304 233 1344 321 1304 281 b 1392 146 1304 186 1344 146 "},"<":{"ha":611,"x_min":0,"x_max":0,"o":"m 49 424 l 49 586 l 563 771 l 563 603 l 257 504 l 563 406 l 563 238 "},">":{"ha":611,"x_min":0,"x_max":0,"o":"m 49 406 l 354 504 l 49 603 l 49 771 l 563 586 l 563 424 l 49 238 "},"+":{"ha":611,"x_min":0,"x_max":0,"o":"m 49 588 l 226 588 l 226 763 l 386 763 l 386 588 l 563 588 l 563 425 l 386 425 l 386 249 l 226 249 l 226 425 l 49 425 "},"−":{"ha":611,"x_min":0,"x_max":0,"o":"m 49 588 l 563 588 l 563 425 l 49 425 "},"=":{"ha":611,"x_min":0,"x_max":0,"o":"m 49 701 l 563 701 l 563 539 l 49 539 m 49 469 l 563 469 l 563 307 l 49 307 "},"×":{"ha":611,"x_min":0,"x_max":0,"o":"m 49 360 l 193 504 l 47 650 l 160 763 l 306 617 l 451 763 l 564 650 l 418 504 l 563 360 l 450 247 l 306 392 l 161 247 "},"÷":{"ha":611,"x_min":0,"x_max":0,"o":"m 49 588 l 563 588 l 563 425 l 49 425 m 226 804 l 388 804 l 388 643 l 226 643 m 226 369 l 388 369 l 388 208 l 226 208 "},"±":{"ha":611,"x_min":0,"x_max":0,"o":"m 49 740 l 226 740 l 226 915 l 386 915 l 386 740 l 563 740 l 563 578 l 386 578 l 386 401 l 226 401 l 226 578 l 49 578 m 49 324 l 563 324 l 563 161 l 49 161 "},"≠":{"ha":611,"x_min":0,"x_max":0,"o":"m 460 701 l 563 701 l 563 539 l 388 539 l 357 469 l 563 469 l 563 307 l 285 307 l 242 210 l 107 210 l 149 307 l 49 307 l 49 469 l 219 469 l 249 539 l 49 539 l 49 701 l 319 701 l 363 799 l 504 799 "},"≤":{"ha":611,"x_min":0,"x_max":0,"o":"m 47 547 l 47 710 l 561 894 l 561 726 l 256 628 l 561 529 l 561 361 m 47 318 l 561 318 l 561 156 l 47 156 "},"≥":{"ha":611,"x_min":0,"x_max":0,"o":"m 47 529 l 353 628 l 47 726 l 47 894 l 561 710 l 561 547 l 47 361 m 47 318 l 561 318 l 561 156 l 47 156 "},"°":{"ha":553,"x_min":0,"x_max":0,"o":"m 276 531 b 28 779 139 531 28 642 b 276 1028 28 917 139 1028 b 525 779 414 1028 525 917 b 276 531 525 642 414 531 m 276 692 b 364 779 324 692 364 732 b 276 867 364 826 324 867 b 189 779 229 867 189 826 b 276 692 189 732 229 692 "},"⁄":{"ha":981,"x_min":0,"x_max":0,"o":"m 746 1014 l 968 1014 l 236 0 l 14 0 "},"´":{"ha":654,"x_min":0,"x_max":0,"o":"m 303 1000 l 481 1000 l 272 764 l 144 764 "},"`":{"ha":654,"x_min":0,"x_max":0,"o":"m 144 1000 l 322 1000 l 481 764 l 353 764 "},"ˆ":{"ha":654,"x_min":0,"x_max":0,"o":"m 268 1000 l 386 1000 l 551 764 l 408 764 l 326 886 l 246 764 l 103 764 "},"¨":{"ha":654,"x_min":0,"x_max":0,"o":"m 363 954 l 553 954 l 553 764 l 363 764 m 103 954 l 293 954 l 293 764 l 103 764 "},"˜":{"ha":654,"x_min":0,"x_max":0,"o":"m 88 764 b 233 951 88 876 142 951 b 339 918 279 951 311 935 b 411 885 365 901 388 885 b 449 946 436 885 449 904 l 558 946 b 413 758 558 832 510 758 b 292 800 358 758 322 782 b 233 824 271 813 253 824 b 197 764 208 824 197 806 l 88 764 "},"ˇ":{"ha":654,"x_min":0,"x_max":0,"o":"m 101 1000 l 244 1000 l 325 878 l 407 1000 l 550 1000 l 385 764 l 267 764 "},"˚":{"ha":654,"x_min":0,"x_max":0,"o":"m 325 758 b 164 919 236 758 164 831 b 325 1083 164 1011 236 1083 b 489 919 417 1083 489 1011 b 325 758 489 831 417 758 m 325 865 b 382 919 356 865 382 890 b 325 976 382 950 356 976 b 271 919 296 976 271 950 b 325 865 271 890 296 865 "},"˘":{"ha":654,"x_min":0,"x_max":0,"o":"m 325 757 b 101 993 172 757 101 858 l 221 993 b 325 860 221 904 258 863 b 429 993 392 863 429 904 l 550 993 b 325 757 550 858 464 757 "},"¯":{"ha":654,"x_min":0,"x_max":0,"o":"m 144 883 l 511 883 l 511 764 l 144 764 "},"˙":{"ha":654,"x_min":0,"x_max":0,"o":"m 218 954 l 408 954 l 408 764 l 218 764 "},"˝":{"ha":654,"x_min":0,"x_max":0,"o":"m 206 1000 l 374 1000 l 165 764 l 47 764 m 438 1000 l 606 1000 l 397 764 l 279 764 "},"¸":{"ha":654,"x_min":0,"x_max":0,"o":"m 293 -333 b 94 -251 221 -333 147 -299 l 203 -186 b 308 -232 235 -211 261 -232 b 383 -190 349 -232 383 -214 b 304 -153 383 -165 357 -153 l 233 -153 l 233 0 l 351 0 l 351 -74 b 511 -185 456 -69 511 -117 b 293 -333 511 -271 415 -333 "},"˛":{"ha":654,"x_min":0,"x_max":0,"o":"m 321 -315 b 121 -164 201 -315 121 -249 b 329 58 121 -90 165 -24 l 443 0 b 263 -157 292 -100 263 -121 b 321 -199 263 -187 290 -199 b 404 -160 358 -199 379 -179 l 515 -235 b 321 -315 465 -279 388 -315 "},"":{"ha":654,"x_min":0,"x_max":0,"o":"m 213 -346 l 260 -62 l 428 -62 l 331 -346 "},"Á":{"ha":953,"x_min":0,"x_max":0,"o":"m 379 1014 l 574 1014 l 933 0 l 732 0 l 671 176 l 282 176 l 221 0 l 19 0 m 346 361 l 607 361 l 476 739 m 571 1319 l 749 1319 l 540 1083 l 413 1083 "},"À":{"ha":953,"x_min":0,"x_max":0,"o":"m 379 1014 l 574 1014 l 933 0 l 732 0 l 671 176 l 282 176 l 221 0 l 19 0 m 346 361 l 607 361 l 476 739 m 208 1319 l 386 1319 l 544 1083 l 417 1083 "},"Â":{"ha":953,"x_min":0,"x_max":0,"o":"m 379 1014 l 574 1014 l 933 0 l 732 0 l 671 176 l 282 176 l 221 0 l 19 0 m 417 1319 l 535 1319 l 700 1083 l 557 1083 l 475 1206 l 394 1083 l 251 1083 m 346 361 l 607 361 l 476 739 "},"Ä":{"ha":953,"x_min":0,"x_max":0,"o":"m 379 1014 l 574 1014 l 933 0 l 732 0 l 671 176 l 282 176 l 221 0 l 19 0 m 346 361 l 607 361 l 476 739 m 511 1274 l 701 1274 l 701 1083 l 511 1083 m 251 1274 l 442 1274 l 442 1083 l 251 1083 "},"Ã":{"ha":953,"x_min":0,"x_max":0,"o":"m 379 1014 l 574 1014 l 933 0 l 732 0 l 671 176 l 282 176 l 221 0 l 19 0 m 240 1083 b 386 1271 240 1196 294 1271 b 492 1238 432 1271 464 1254 b 564 1204 518 1221 540 1204 b 601 1265 589 1204 601 1224 l 711 1265 b 565 1078 711 1151 663 1078 b 444 1119 511 1078 475 1101 b 386 1143 424 1132 406 1143 b 350 1083 361 1143 350 1125 l 240 1083 m 346 361 l 607 361 l 476 739 "},"Å":{"ha":953,"x_min":0,"x_max":0,"o":"m 358 956 b 314 1068 331 985 314 1025 b 475 1232 314 1160 386 1232 b 639 1068 567 1232 639 1160 b 593 956 639 1025 622 985 l 933 0 l 732 0 l 671 176 l 282 176 l 221 0 l 19 0 m 346 361 l 607 361 l 476 739 m 421 1068 b 471 1014 421 1040 443 1015 l 479 1014 b 532 1068 508 1015 532 1040 b 475 1125 532 1099 506 1125 b 421 1068 446 1125 421 1099 "},"Ā":{"ha":953,"x_min":0,"x_max":0,"o":"m 379 1014 l 574 1014 l 933 0 l 732 0 l 671 176 l 282 176 l 221 0 l 19 0 m 346 361 l 607 361 l 476 739 m 294 1203 l 661 1203 l 661 1083 l 294 1083 "},"Ă":{"ha":953,"x_min":0,"x_max":0,"o":"m 379 1014 l 574 1014 l 933 0 l 732 0 l 671 176 l 282 176 l 221 0 l 19 0 m 475 1076 b 251 1313 322 1076 251 1178 l 371 1313 b 475 1179 371 1224 408 1182 b 579 1313 542 1182 579 1224 l 700 1313 b 475 1076 700 1178 614 1076 m 346 361 l 607 361 l 476 739 "},"Ą":{"ha":953,"x_min":0,"x_max":0,"o":"m 811 -315 b 611 -164 692 -315 611 -249 b 729 7 611 -106 638 -51 l 671 176 l 282 176 l 221 0 l 19 0 l 379 1014 l 574 1014 l 933 0 b 753 -157 782 -100 753 -121 b 811 -199 753 -187 781 -199 b 894 -160 849 -199 869 -179 l 1006 -235 b 811 -315 956 -279 878 -315 m 346 361 l 607 361 l 476 739 "},"Ǻ":{"ha":953,"x_min":0,"x_max":0,"o":"m 358 957 b 314 1069 331 986 314 1026 b 475 1233 314 1161 386 1233 b 639 1069 567 1233 639 1161 b 593 957 639 1026 622 986 l 933 0 l 732 0 l 671 176 l 282 176 l 221 0 l 19 0 m 346 361 l 607 361 l 476 739 m 569 1531 l 747 1531 l 539 1294 l 411 1294 m 475 1015 b 532 1069 506 1015 532 1040 b 475 1126 532 1100 506 1126 b 421 1069 446 1126 421 1100 b 475 1015 421 1040 446 1015 "},"Æ":{"ha":1296,"x_min":0,"x_max":0,"o":"m 478 1014 l 1251 1014 l 1251 829 l 721 829 l 779 601 l 1251 601 l 1251 417 l 826 417 l 885 185 l 1251 185 l 1251 0 l 729 0 l 686 175 l 296 175 l 218 0 l 17 0 m 376 354 l 642 354 l 547 738 "},"Ǽ":{"ha":1292,"x_min":0,"x_max":0,"o":"m 478 1014 l 1251 1014 l 1251 829 l 721 829 l 779 601 l 1251 601 l 1251 417 l 826 417 l 885 185 l 1251 185 l 1251 0 l 729 0 l 686 175 l 296 175 l 218 0 l 17 0 m 376 354 l 642 354 l 547 738 m 833 1319 l 1011 1319 l 803 1083 l 675 1083 "},"Ć":{"ha":1021,"x_min":0,"x_max":0,"o":"m 549 -14 b 28 507 235 -14 28 218 b 549 1028 28 810 256 1028 b 993 776 739 1028 904 928 l 824 668 b 549 838 767 774 678 838 b 219 507 360 838 219 693 b 544 179 219 325 358 179 b 832 368 683 179 781 260 l 1008 275 b 549 -14 919 103 750 -14 m 642 1319 l 819 1319 l 611 1083 l 483 1083 "},"Ĉ":{"ha":1021,"x_min":0,"x_max":0,"o":"m 549 -14 b 28 507 235 -14 28 218 b 549 1028 28 810 256 1028 b 993 776 739 1028 904 928 l 824 668 b 549 838 767 774 678 838 b 219 507 360 838 219 693 b 544 179 219 325 358 179 b 832 368 683 179 781 260 l 1008 275 b 549 -14 919 103 750 -14 m 496 1319 l 614 1319 l 779 1083 l 636 1083 l 554 1206 l 474 1083 l 331 1083 "},"Č":{"ha":1021,"x_min":0,"x_max":0,"o":"m 549 -14 b 28 507 235 -14 28 218 b 549 1028 28 810 256 1028 b 993 776 739 1028 904 928 l 824 668 b 549 838 767 774 678 838 b 219 507 360 838 219 693 b 544 179 219 325 358 179 b 832 368 683 179 781 260 l 1008 275 b 549 -14 919 103 750 -14 m 328 1319 l 471 1319 l 551 1197 l 633 1319 l 776 1319 l 611 1083 l 493 1083 "},"Ç":{"ha":1021,"x_min":0,"x_max":0,"o":"m 536 -333 b 338 -251 464 -333 390 -299 l 446 -186 b 551 -232 478 -211 504 -232 b 626 -190 592 -232 626 -214 b 547 -153 626 -165 600 -153 l 476 -153 l 476 -8 b 28 507 203 24 28 240 b 549 1028 28 810 256 1028 b 993 776 739 1028 904 928 l 824 668 b 549 838 767 774 678 838 b 219 507 360 838 219 693 b 544 179 219 325 358 179 b 832 368 683 179 781 260 l 1008 275 b 594 -11 926 115 775 4 l 594 -74 b 754 -185 699 -69 754 -117 b 536 -333 754 -271 658 -333 "},"Ċ":{"ha":1021,"x_min":0,"x_max":0,"o":"m 549 -14 b 28 507 235 -14 28 218 b 549 1028 28 810 256 1028 b 993 776 739 1028 904 928 l 824 668 b 549 838 767 774 678 838 b 219 507 360 838 219 693 b 544 179 219 325 358 179 b 832 368 683 179 781 260 l 1008 275 b 549 -14 919 103 750 -14 m 463 1274 l 653 1274 l 653 1083 l 463 1083 "},"Ď":{"ha":896,"x_min":0,"x_max":0,"o":"m 56 1014 l 332 1014 b 868 507 675 1014 868 794 b 340 0 868 218 650 0 l 56 0 m 249 835 l 249 179 l 318 179 b 675 507 538 179 675 321 b 310 835 675 699 558 835 m 143 1319 l 286 1319 l 367 1197 l 449 1319 l 592 1319 l 426 1083 l 308 1083 "},"Ð":{"ha":963,"x_min":0,"x_max":0,"o":"m 28 590 l 122 590 l 122 1014 l 399 1014 b 935 507 742 1014 935 794 b 407 0 935 218 717 0 l 122 0 l 122 428 l 28 428 m 315 835 l 315 590 l 542 590 l 542 428 l 315 428 l 315 179 l 385 179 b 742 507 604 179 742 321 b 376 835 742 699 625 835 "},"Đ":{"ha":963,"x_min":0,"x_max":0,"o":"m 28 590 l 122 590 l 122 1014 l 399 1014 b 935 507 742 1014 935 794 b 407 0 935 218 717 0 l 122 0 l 122 428 l 28 428 m 315 835 l 315 590 l 542 590 l 542 428 l 315 428 l 315 179 l 385 179 b 742 507 604 179 742 321 b 376 835 742 699 625 835 "},"É":{"ha":701,"x_min":0,"x_max":0,"o":"m 56 1014 l 657 1014 l 657 829 l 249 829 l 249 601 l 657 601 l 657 417 l 249 417 l 249 185 l 657 185 l 657 0 l 56 0 m 438 1319 l 615 1319 l 407 1083 l 279 1083 "},"È":{"ha":701,"x_min":0,"x_max":0,"o":"m 56 1014 l 657 1014 l 657 829 l 249 829 l 249 601 l 657 601 l 657 417 l 249 417 l 249 185 l 657 185 l 657 0 l 56 0 m 97 1319 l 275 1319 l 433 1083 l 306 1083 "},"Ê":{"ha":701,"x_min":0,"x_max":0,"o":"m 56 1014 l 657 1014 l 657 829 l 249 829 l 249 601 l 657 601 l 657 417 l 249 417 l 249 185 l 657 185 l 657 0 l 56 0 m 297 1319 l 415 1319 l 581 1083 l 438 1083 l 356 1206 l 275 1083 l 132 1083 "},"Ë":{"ha":701,"x_min":0,"x_max":0,"o":"m 56 1014 l 657 1014 l 657 829 l 249 829 l 249 601 l 657 601 l 657 417 l 249 417 l 249 185 l 657 185 l 657 0 l 56 0 m 397 1274 l 588 1274 l 588 1083 l 397 1083 m 138 1274 l 328 1274 l 328 1083 l 138 1083 "},"Ě":{"ha":701,"x_min":0,"x_max":0,"o":"m 56 1014 l 657 1014 l 657 829 l 249 829 l 249 601 l 657 601 l 657 417 l 249 417 l 249 185 l 657 185 l 657 0 l 56 0 m 131 1319 l 274 1319 l 354 1197 l 436 1319 l 579 1319 l 414 1083 l 296 1083 "},"Ē":{"ha":701,"x_min":0,"x_max":0,"o":"m 56 1014 l 657 1014 l 657 829 l 249 829 l 249 601 l 657 601 l 657 417 l 249 417 l 249 185 l 657 185 l 657 0 l 56 0 m 174 1203 l 540 1203 l 540 1083 l 174 1083 "},"Ĕ":{"ha":701,"x_min":0,"x_max":0,"o":"m 56 1014 l 657 1014 l 657 829 l 249 829 l 249 601 l 657 601 l 657 417 l 249 417 l 249 185 l 657 185 l 657 0 l 56 0 m 361 1076 b 138 1313 208 1076 138 1178 l 257 1313 b 361 1179 257 1224 294 1182 b 465 1313 428 1182 465 1224 l 586 1313 b 361 1076 586 1178 500 1076 "},"Ę":{"ha":701,"x_min":0,"x_max":0,"o":"m 56 1014 l 657 1014 l 657 829 l 249 829 l 249 601 l 657 601 l 657 417 l 249 417 l 249 185 l 657 185 l 657 0 b 476 -157 506 -100 476 -121 b 535 -199 476 -187 504 -199 b 618 -160 572 -199 593 -179 l 729 -235 b 535 -315 679 -279 601 -315 b 335 -164 415 -315 335 -249 b 442 0 335 -108 360 -57 l 56 0 "},"Ė":{"ha":701,"x_min":0,"x_max":0,"o":"m 56 1014 l 657 1014 l 657 829 l 249 829 l 249 601 l 657 601 l 657 417 l 249 417 l 249 185 l 657 185 l 657 0 l 56 0 m 286 1274 l 476 1274 l 476 1083 l 286 1083 "},"Ĝ":{"ha":1078,"x_min":0,"x_max":0,"o":"m 554 -14 b 28 507 238 -14 28 226 b 546 1028 28 796 246 1028 b 1007 768 757 1028 921 921 l 838 665 b 547 840 775 781 679 840 b 219 507 363 840 219 689 b 554 174 219 321 360 174 b 842 386 701 174 806 257 l 524 386 l 524 571 l 1050 571 l 1050 493 b 554 -14 1050 221 856 -14 m 488 1319 l 606 1319 l 771 1083 l 628 1083 l 546 1206 l 465 1083 l 322 1083 "},"Ğ":{"ha":1078,"x_min":0,"x_max":0,"o":"m 554 -14 b 28 507 238 -14 28 226 b 546 1028 28 796 246 1028 b 1007 768 757 1028 921 921 l 838 665 b 547 840 775 781 679 840 b 219 507 363 840 219 689 b 554 174 219 321 360 174 b 842 386 701 174 806 257 l 524 386 l 524 571 l 1050 571 l 1050 493 b 554 -14 1050 221 856 -14 m 544 1076 b 321 1313 392 1076 321 1178 l 440 1313 b 544 1179 440 1224 478 1182 b 649 1313 611 1182 649 1224 l 769 1313 b 544 1076 769 1178 683 1076 "},"Ġ":{"ha":1078,"x_min":0,"x_max":0,"o":"m 554 -14 b 28 507 238 -14 28 226 b 546 1028 28 796 246 1028 b 1007 768 757 1028 921 921 l 838 665 b 547 840 775 781 679 840 b 219 507 363 840 219 689 b 554 174 219 321 360 174 b 842 386 701 174 806 257 l 524 386 l 524 571 l 1050 571 l 1050 493 b 554 -14 1050 221 856 -14 m 456 1274 l 646 1274 l 646 1083 l 456 1083 "},"Ģ":{"ha":1078,"x_min":0,"x_max":0,"o":"m 554 -14 b 28 507 238 -14 28 226 b 546 1028 28 796 246 1028 b 1007 768 757 1028 921 921 l 838 665 b 547 840 775 781 679 840 b 219 507 363 840 219 689 b 554 174 219 321 360 174 b 842 386 701 174 806 257 l 524 386 l 524 571 l 1050 571 l 1050 493 b 554 -14 1050 221 856 -14 m 432 -346 l 479 -62 l 647 -62 l 550 -346 "},"Ĥ":{"ha":879,"x_min":0,"x_max":0,"o":"m 631 415 l 249 415 l 249 0 l 56 0 l 56 1014 l 249 1014 l 249 600 l 631 600 l 631 1014 l 824 1014 l 824 0 l 631 0 m 379 1319 l 497 1319 l 663 1083 l 519 1083 l 438 1206 l 357 1083 l 214 1083 "},"Ħ":{"ha":963,"x_min":0,"x_max":0,"o":"m 19 881 l 97 881 l 97 1014 l 290 1014 l 290 881 l 672 881 l 672 1014 l 865 1014 l 865 881 l 943 881 l 943 733 l 865 733 l 865 0 l 672 0 l 672 415 l 290 415 l 290 0 l 97 0 l 97 733 l 19 733 m 290 600 l 672 600 l 672 733 l 290 733 "},"Í":{"ha":318,"x_min":0,"x_max":0,"o":"m 63 1014 l 256 1014 l 256 0 l 63 0 m 256 1319 l 433 1319 l 225 1083 l 97 1083 "},"Ì":{"ha":318,"x_min":0,"x_max":0,"o":"m 63 1014 l 256 1014 l 256 0 l 63 0 m -112 1319 l 65 1319 l 224 1083 l 96 1083 "},"Î":{"ha":318,"x_min":0,"x_max":0,"o":"m 63 1014 l 256 1014 l 256 0 l 63 0 m 101 1319 l 219 1319 l 385 1083 l 242 1083 l 160 1206 l 79 1083 l -64 1083 "},"Ï":{"ha":318,"x_min":0,"x_max":0,"o":"m 208 1274 l 399 1274 l 399 1083 l 208 1083 m -79 1274 l 111 1274 l 111 1083 l -79 1083 m 63 1014 l 256 1014 l 256 0 l 63 0 "},"Ĩ":{"ha":318,"x_min":0,"x_max":0,"o":"m 63 1014 l 256 1014 l 256 0 l 63 0 m -65 1083 b 81 1271 -65 1196 -11 1271 b 186 1238 126 1271 158 1254 b 258 1204 213 1221 235 1204 b 296 1265 283 1204 296 1224 l 406 1265 b 260 1078 406 1151 357 1078 b 139 1119 206 1078 169 1101 b 81 1143 118 1132 100 1143 b 44 1083 56 1143 44 1125 l -65 1083 "},"Ī":{"ha":318,"x_min":0,"x_max":0,"o":"m 63 1014 l 256 1014 l 256 0 l 63 0 m -24 1203 l 343 1203 l 343 1083 l -24 1083 "},"Ĭ":{"ha":318,"x_min":0,"x_max":0,"o":"m 63 1014 l 256 1014 l 256 0 l 63 0 m 157 1076 b -67 1313 4 1076 -67 1178 l 53 1313 b 157 1179 53 1224 90 1182 b 261 1313 224 1182 261 1224 l 382 1313 b 157 1076 382 1178 296 1076 "},"İ":{"ha":318,"x_min":0,"x_max":0,"o":"m 63 1014 l 256 1014 l 256 0 l 63 0 m 63 1274 l 253 1274 l 253 1083 l 63 1083 "},"Į":{"ha":318,"x_min":0,"x_max":0,"o":"m 147 -319 b -36 -169 40 -319 -35 -256 b 63 7 -37 -97 0 -43 l 63 1014 l 256 1014 l 256 0 l 250 0 b 103 -154 143 -64 103 -122 b 154 -200 103 -185 125 -200 b 224 -157 182 -200 206 -179 l 335 -233 b 147 -319 286 -285 229 -319 "},"̨":{"ha":654,"x_min":0,"x_max":0,"o":"m 342 -319 b 158 -169 235 -319 160 -256 b 329 58 156 -72 224 -10 l 444 0 b 297 -154 338 -64 297 -122 b 349 -200 297 -185 319 -200 b 418 -157 376 -200 400 -179 l 529 -233 b 342 -319 481 -285 424 -319 "},"Ĵ":{"ha":699,"x_min":0,"x_max":0,"o":"m 346 -14 b 25 219 181 -14 58 76 l 217 281 b 343 167 229 215 278 167 b 450 293 418 167 450 225 l 450 1014 l 643 1014 l 643 311 b 346 -14 643 107 535 -14 m 481 1319 l 599 1319 l 764 1083 l 621 1083 l 539 1206 l 458 1083 l 315 1083 "},"Ķ":{"ha":856,"x_min":0,"x_max":0,"o":"m 354 485 l 249 353 l 249 0 l 56 0 l 56 1014 l 249 1014 l 249 606 l 576 1014 l 811 1014 l 492 619 l 839 0 l 619 0 m 307 -346 l 354 -62 l 522 -62 l 425 -346 "},"Ĺ":{"ha":664,"x_min":0,"x_max":0,"o":"m 56 1014 l 249 1014 l 249 185 l 615 185 l 615 0 l 56 0 m 244 1319 l 422 1319 l 214 1083 l 86 1083 "},"Ľ":{"ha":664,"x_min":0,"x_max":0,"o":"m 56 1014 l 249 1014 l 249 185 l 615 185 l 615 0 l 56 0 m 353 1014 l 507 1014 l 438 778 l 319 778 "},"":{"ha":654,"x_min":0,"x_max":0,"o":"m 294 1000 l 449 1000 l 379 764 l 261 764 "},"Ļ":{"ha":664,"x_min":0,"x_max":0,"o":"m 56 1014 l 249 1014 l 249 185 l 615 185 l 615 0 l 56 0 m 204 -346 l 251 -62 l 419 -62 l 322 -346 "},"Ŀ":{"ha":664,"x_min":0,"x_max":0,"o":"m 56 1014 l 249 1014 l 249 185 l 615 185 l 615 0 l 56 0 m 425 596 l 615 596 l 615 406 l 425 406 "},"Ł":{"ha":726,"x_min":0,"x_max":0,"o":"m 24 528 l 118 557 l 118 1014 l 311 1014 l 311 619 l 532 690 l 532 553 l 311 482 l 311 185 l 678 185 l 678 0 l 118 0 l 118 419 l 24 390 "},"Ń":{"ha":954,"x_min":0,"x_max":0,"o":"m 56 1014 l 275 1014 l 706 332 l 706 1014 l 899 1014 l 899 0 l 693 0 l 249 704 l 249 0 l 56 0 m 583 1319 l 761 1319 l 553 1083 l 425 1083 "},"Ñ":{"ha":954,"x_min":0,"x_max":0,"o":"m 56 1014 l 275 1014 l 706 332 l 706 1014 l 899 1014 l 899 0 l 693 0 l 249 704 l 249 0 l 56 0 m 239 1083 b 385 1271 239 1196 293 1271 b 490 1238 431 1271 463 1254 b 563 1204 517 1221 539 1204 b 600 1265 588 1204 600 1224 l 710 1265 b 564 1078 710 1151 661 1078 b 443 1119 510 1078 474 1101 b 385 1143 422 1132 404 1143 b 349 1083 360 1143 349 1125 l 239 1083 "},"Ň":{"ha":954,"x_min":0,"x_max":0,"o":"m 56 1014 l 275 1014 l 706 332 l 706 1014 l 899 1014 l 899 0 l 693 0 l 249 704 l 249 0 l 56 0 m 257 1319 l 400 1319 l 481 1197 l 563 1319 l 706 1319 l 540 1083 l 422 1083 "},"Ņ":{"ha":954,"x_min":0,"x_max":0,"o":"m 56 1014 l 275 1014 l 706 332 l 706 1014 l 899 1014 l 899 0 l 693 0 l 249 704 l 249 0 l 56 0 m 343 -346 l 390 -62 l 558 -62 l 461 -346 "},"Ó":{"ha":1093,"x_min":0,"x_max":0,"o":"m 546 -14 b 28 507 258 -14 28 218 b 546 1028 28 794 258 1028 b 1065 507 835 1028 1065 794 b 546 -14 1065 218 835 -14 m 546 176 b 874 507 728 176 874 325 b 546 838 874 689 728 838 b 219 507 364 838 219 689 b 546 176 219 325 364 176 m 632 1319 l 810 1319 l 601 1083 l 474 1083 "},"Ò":{"ha":1093,"x_min":0,"x_max":0,"o":"m 546 -14 b 28 507 258 -14 28 218 b 546 1028 28 794 258 1028 b 1065 507 835 1028 1065 794 b 546 -14 1065 218 835 -14 m 546 176 b 874 507 728 176 874 325 b 546 838 874 689 728 838 b 219 507 364 838 219 689 b 546 176 219 325 364 176 m 274 1319 l 451 1319 l 610 1083 l 482 1083 "},"Ô":{"ha":1093,"x_min":0,"x_max":0,"o":"m 546 -14 b 28 507 258 -14 28 218 b 546 1028 28 794 258 1028 b 1065 507 835 1028 1065 794 b 546 -14 1065 218 835 -14 m 546 176 b 874 507 728 176 874 325 b 546 838 874 689 728 838 b 219 507 364 838 219 689 b 546 176 219 325 364 176 m 482 1319 l 600 1319 l 765 1083 l 622 1083 l 540 1206 l 460 1083 l 317 1083 "},"Ö":{"ha":1093,"x_min":0,"x_max":0,"o":"m 546 -14 b 28 507 258 -14 28 218 b 546 1028 28 794 258 1028 b 1065 507 835 1028 1065 794 b 546 -14 1065 218 835 -14 m 546 176 b 874 507 728 176 874 325 b 546 838 874 689 728 838 b 219 507 364 838 219 689 b 546 176 219 325 364 176 m 572 1274 l 763 1274 l 763 1083 l 572 1083 m 313 1274 l 503 1274 l 503 1083 l 313 1083 "},"Õ":{"ha":1093,"x_min":0,"x_max":0,"o":"m 546 -14 b 28 507 258 -14 28 218 b 546 1028 28 794 258 1028 b 1065 507 835 1028 1065 794 b 546 -14 1065 218 835 -14 m 546 176 b 874 507 728 176 874 325 b 546 838 874 689 728 838 b 219 507 364 838 219 689 b 546 176 219 325 364 176 m 303 1083 b 449 1271 303 1196 357 1271 b 554 1238 494 1271 526 1254 b 626 1204 581 1221 603 1204 b 664 1265 651 1204 664 1224 l 774 1265 b 628 1078 774 1151 725 1078 b 507 1119 574 1078 538 1101 b 449 1143 486 1132 468 1143 b 413 1083 424 1143 413 1125 l 303 1083 "},"Ŏ":{"ha":1093,"x_min":0,"x_max":0,"o":"m 546 -14 b 28 507 258 -14 28 218 b 546 1028 28 794 258 1028 b 1065 507 835 1028 1065 794 b 546 -14 1065 218 835 -14 m 546 176 b 874 507 728 176 874 325 b 546 838 874 689 728 838 b 219 507 364 838 219 689 b 546 176 219 325 364 176 m 536 1076 b 313 1313 383 1076 313 1178 l 432 1313 b 536 1179 432 1224 469 1182 b 640 1313 603 1182 640 1224 l 761 1313 b 536 1076 761 1178 675 1076 "},"Ō":{"ha":1093,"x_min":0,"x_max":0,"o":"m 546 -14 b 28 507 258 -14 28 218 b 546 1028 28 794 258 1028 b 1065 507 835 1028 1065 794 b 546 -14 1065 218 835 -14 m 546 176 b 874 507 728 176 874 325 b 546 838 874 689 728 838 b 219 507 364 838 219 689 b 546 176 219 325 364 176 m 356 1203 l 722 1203 l 722 1083 l 356 1083 "},"Ő":{"ha":1093,"x_min":0,"x_max":0,"o":"m 546 -14 b 28 507 258 -14 28 218 b 546 1028 28 794 258 1028 b 1065 507 835 1028 1065 794 b 546 -14 1065 218 835 -14 m 546 176 b 874 507 728 176 874 325 b 546 838 874 689 728 838 b 219 507 364 838 219 689 b 546 176 219 325 364 176 m 510 1319 l 678 1319 l 469 1083 l 351 1083 m 742 1319 l 910 1319 l 701 1083 l 583 1083 "},"Ø":{"ha":1093,"x_min":0,"x_max":0,"o":"m 158 160 b 28 507 76 251 28 374 b 546 1028 28 794 258 1028 b 804 958 640 1028 728 1001 l 850 1014 l 1072 1014 l 938 849 b 1065 507 1017 757 1065 638 b 546 -14 1065 218 835 -14 b 292 51 453 -14 367 10 l 250 0 l 28 0 m 219 507 b 281 313 219 435 242 367 l 682 807 b 546 838 640 826 594 838 b 219 507 364 838 219 689 m 546 176 b 874 507 728 176 874 325 b 814 696 874 576 851 643 l 415 204 b 546 176 454 186 499 176 "},"Ǿ":{"ha":1093,"x_min":0,"x_max":0,"o":"m 158 160 b 28 507 76 251 28 374 b 546 1028 28 794 258 1028 b 804 958 640 1028 728 1001 l 850 1014 l 1072 1014 l 938 849 b 1065 507 1017 757 1065 638 b 546 -14 1065 218 835 -14 b 292 51 453 -14 367 10 l 250 0 l 28 0 m 219 507 b 281 313 219 435 242 367 l 682 807 b 546 838 640 826 594 838 b 219 507 364 838 219 689 m 546 176 b 874 507 728 176 874 325 b 814 696 874 576 851 643 l 415 204 b 546 176 454 186 499 176 m 618 1319 l 796 1319 l 588 1083 l 460 1083 "},"Œ":{"ha":1519,"x_min":0,"x_max":0,"o":"m 874 111 b 546 -14 789 33 676 -14 b 28 507 258 -14 28 218 b 546 1028 28 794 258 1028 b 874 901 676 1028 789 979 l 874 1014 l 1475 1014 l 1475 829 l 1067 829 l 1067 601 l 1475 601 l 1475 417 l 1067 417 l 1067 185 l 1475 185 l 1475 0 l 874 0 m 546 176 b 874 507 728 176 874 325 l 874 521 b 546 838 867 696 722 838 b 219 507 364 838 219 689 b 546 176 219 325 364 176 "},"Þ":{"ha":774,"x_min":0,"x_max":0,"o":"m 56 1014 l 249 1014 l 249 839 l 415 839 b 739 515 603 839 739 694 b 414 190 739 335 603 190 l 249 190 l 249 0 l 56 0 m 249 660 l 249 369 l 404 369 b 547 515 490 369 547 435 b 404 660 547 594 490 660 "},"Ŕ":{"ha":796,"x_min":0,"x_max":0,"o":"m 56 1014 l 374 1014 b 747 674 607 1014 747 865 b 551 372 747 547 686 424 l 782 0 l 561 0 l 257 501 l 351 501 b 553 674 501 501 553 601 b 351 833 553 775 497 833 l 249 833 l 249 0 l 56 0 m 447 1319 l 625 1319 l 417 1083 l 289 1083 "},"Ř":{"ha":796,"x_min":0,"x_max":0,"o":"m 56 1014 l 374 1014 b 747 674 607 1014 747 865 b 551 372 747 547 686 424 l 782 0 l 561 0 l 257 501 l 351 501 b 553 674 501 501 553 601 b 351 833 553 775 497 833 l 249 833 l 249 0 l 56 0 m 144 1319 l 288 1319 l 368 1197 l 450 1319 l 593 1319 l 428 1083 l 310 1083 "},"Ŗ":{"ha":796,"x_min":0,"x_max":0,"o":"m 56 1014 l 374 1014 b 747 674 607 1014 747 865 b 551 372 747 547 686 424 l 782 0 l 561 0 l 257 501 l 351 501 b 553 674 501 501 553 601 b 351 833 553 775 497 833 l 249 833 l 249 0 l 56 0 m 278 -346 l 325 -62 l 493 -62 l 396 -346 "},"Ś":{"ha":782,"x_min":0,"x_max":0,"o":"m 400 -14 b 3 168 217 -14 94 64 l 179 307 b 399 171 229 221 308 171 b 550 304 497 171 550 235 b 340 447 550 388 449 414 b 53 736 204 489 53 542 b 390 1028 53 899 194 1028 b 732 881 556 1028 650 965 l 572 760 b 392 856 531 822 471 856 b 253 743 301 856 253 807 b 458 603 253 665 350 639 b 751 303 596 558 751 497 b 400 -14 751 142 624 -14 m 465 1319 l 643 1319 l 435 1083 l 307 1083 "},"Ŝ":{"ha":782,"x_min":0,"x_max":0,"o":"m 400 -14 b 3 168 217 -14 94 64 l 179 307 b 399 171 229 221 308 171 b 550 304 497 171 550 235 b 340 447 550 388 449 414 b 53 736 204 489 53 542 b 390 1028 53 899 194 1028 b 732 881 556 1028 650 965 l 572 760 b 392 856 531 822 471 856 b 253 743 301 856 253 807 b 458 603 253 665 350 639 b 751 303 596 558 751 497 b 400 -14 751 142 624 -14 m 325 1319 l 443 1319 l 608 1083 l 465 1083 l 383 1206 l 303 1083 l 160 1083 "},"Š":{"ha":782,"x_min":0,"x_max":0,"o":"m 400 -14 b 3 168 217 -14 94 64 l 179 307 b 399 171 229 221 308 171 b 550 304 497 171 550 235 b 340 447 550 388 449 414 b 53 736 204 489 53 542 b 390 1028 53 899 194 1028 b 732 881 556 1028 650 965 l 572 760 b 392 856 531 822 471 856 b 253 743 301 856 253 807 b 458 603 253 665 350 639 b 751 303 596 558 751 497 b 400 -14 751 142 624 -14 m 168 1319 l 311 1319 l 392 1197 l 474 1319 l 617 1319 l 451 1083 l 333 1083 "},"Ş":{"ha":782,"x_min":0,"x_max":0,"o":"m 378 -333 b 179 -251 306 -333 232 -299 l 288 -186 b 393 -232 319 -211 346 -232 b 468 -190 433 -232 468 -214 b 389 -153 468 -165 442 -153 l 318 -153 l 318 -8 b 3 168 179 11 79 81 l 179 307 b 399 171 229 221 308 171 b 550 304 497 171 550 235 b 340 447 550 388 449 414 b 53 736 204 489 53 542 b 390 1028 53 899 194 1028 b 732 881 556 1028 650 965 l 572 760 b 392 856 531 822 471 856 b 253 743 301 856 253 807 b 458 603 253 665 350 639 b 751 303 596 558 751 497 b 436 -12 751 150 638 3 l 436 -74 b 596 -185 540 -69 596 -117 b 378 -333 596 -271 500 -333 "},"Ș":{"ha":782,"x_min":0,"x_max":0,"o":"m 400 -14 b 3 168 217 -14 94 64 l 179 307 b 399 171 229 221 308 171 b 550 304 497 171 550 235 b 340 447 550 388 449 414 b 53 736 204 489 53 542 b 390 1028 53 899 194 1028 b 732 881 556 1028 650 965 l 572 760 b 392 856 531 822 471 856 b 253 743 301 856 253 807 b 458 603 253 665 350 639 b 751 303 596 558 751 497 b 400 -14 751 142 624 -14 m 257 -346 l 304 -62 l 472 -62 l 375 -346 "},"Ť":{"ha":829,"x_min":0,"x_max":0,"o":"m 322 829 l 53 829 l 53 1014 l 785 1014 l 785 829 l 515 829 l 515 0 l 322 0 m 188 1319 l 331 1319 l 411 1197 l 493 1319 l 636 1319 l 471 1083 l 353 1083 "},"Ţ":{"ha":829,"x_min":0,"x_max":0,"o":"m 322 829 l 53 829 l 53 1014 l 785 1014 l 785 829 l 515 829 l 515 0 l 322 0 m 283 -346 l 331 -62 l 499 -62 l 401 -346 "},"Ú":{"ha":843,"x_min":0,"x_max":0,"o":"m 421 -14 b 56 351 210 -14 56 110 l 56 1014 l 249 1014 l 249 339 b 419 165 249 242 322 165 b 594 339 517 165 594 242 l 594 1014 l 788 1014 l 788 351 b 421 -14 788 110 632 -14 m 506 1319 l 683 1319 l 475 1083 l 347 1083 "},"Ù":{"ha":843,"x_min":0,"x_max":0,"o":"m 421 -14 b 56 351 210 -14 56 110 l 56 1014 l 249 1014 l 249 339 b 419 165 249 242 322 165 b 594 339 517 165 594 242 l 594 1014 l 788 1014 l 788 351 b 421 -14 788 110 632 -14 m 161 1319 l 339 1319 l 497 1083 l 369 1083 "},"Û":{"ha":843,"x_min":0,"x_max":0,"o":"m 421 -14 b 56 351 210 -14 56 110 l 56 1014 l 249 1014 l 249 339 b 419 165 249 242 322 165 b 594 339 517 165 594 242 l 594 1014 l 788 1014 l 788 351 b 421 -14 788 110 632 -14 m 363 1319 l 481 1319 l 646 1083 l 503 1083 l 421 1206 l 340 1083 l 197 1083 "},"Ü":{"ha":843,"x_min":0,"x_max":0,"o":"m 421 -14 b 56 351 210 -14 56 110 l 56 1014 l 249 1014 l 249 339 b 419 165 249 242 322 165 b 594 339 517 165 594 242 l 594 1014 l 788 1014 l 788 351 b 421 -14 788 110 632 -14 m 463 1274 l 653 1274 l 653 1083 l 463 1083 m 203 1274 l 393 1274 l 393 1083 l 203 1083 "},"Ũ":{"ha":843,"x_min":0,"x_max":0,"o":"m 421 -14 b 56 351 210 -14 56 110 l 56 1014 l 249 1014 l 249 339 b 419 165 249 242 322 165 b 594 339 517 165 594 242 l 594 1014 l 788 1014 l 788 351 b 421 -14 788 110 632 -14 m 174 1083 b 319 1271 174 1196 228 1271 b 425 1238 365 1271 397 1254 b 497 1204 451 1221 474 1204 b 535 1265 522 1204 535 1224 l 644 1265 b 499 1078 644 1151 596 1078 b 378 1119 444 1078 408 1101 b 319 1143 357 1132 339 1143 b 283 1083 294 1143 283 1125 l 174 1083 "},"Ů":{"ha":843,"x_min":0,"x_max":0,"o":"m 421 -14 b 56 351 210 -14 56 110 l 56 1014 l 249 1014 l 249 339 b 419 165 249 242 322 165 b 594 339 517 165 594 242 l 594 1014 l 788 1014 l 788 351 b 421 -14 788 110 632 -14 m 418 1008 b 257 1169 329 1008 257 1081 b 418 1333 257 1261 329 1333 b 582 1169 510 1333 582 1261 b 418 1008 582 1081 510 1008 m 418 1115 b 475 1169 449 1115 475 1140 b 418 1226 475 1200 449 1226 b 364 1169 389 1226 364 1200 b 418 1115 364 1140 389 1115 "},"Ŭ":{"ha":843,"x_min":0,"x_max":0,"o":"m 421 -14 b 56 351 210 -14 56 110 l 56 1014 l 249 1014 l 249 339 b 419 165 249 242 322 165 b 594 339 517 165 594 242 l 594 1014 l 788 1014 l 788 351 b 421 -14 788 110 632 -14 m 426 1076 b 203 1313 274 1076 203 1178 l 322 1313 b 426 1179 322 1224 360 1182 b 531 1313 493 1182 531 1224 l 651 1313 b 426 1076 651 1178 565 1076 "},"Ū":{"ha":843,"x_min":0,"x_max":0,"o":"m 421 -14 b 56 351 210 -14 56 110 l 56 1014 l 249 1014 l 249 339 b 419 165 249 242 322 165 b 594 339 517 165 594 242 l 594 1014 l 788 1014 l 788 351 b 421 -14 788 110 632 -14 m 238 1203 l 604 1203 l 604 1083 l 238 1083 "},"Ű":{"ha":843,"x_min":0,"x_max":0,"o":"m 421 -14 b 56 351 210 -14 56 110 l 56 1014 l 249 1014 l 249 339 b 419 165 249 242 322 165 b 594 339 517 165 594 242 l 594 1014 l 788 1014 l 788 351 b 421 -14 788 110 632 -14 m 379 1319 l 547 1319 l 339 1083 l 221 1083 m 611 1319 l 779 1319 l 571 1083 l 453 1083 "},"Ų":{"ha":843,"x_min":0,"x_max":0,"o":"m 438 -308 b 238 -157 318 -308 238 -242 b 328 -4 238 -106 258 -57 b 56 351 165 26 56 147 l 56 1014 l 249 1014 l 249 339 b 419 165 249 242 322 165 b 594 339 517 165 594 242 l 594 1014 l 788 1014 l 788 351 b 560 7 788 167 696 51 b 379 -150 408 -93 379 -114 b 438 -192 379 -181 407 -192 b 521 -153 475 -192 496 -172 l 632 -228 b 438 -308 582 -272 504 -308 "},"Ẃ":{"ha":1417,"x_min":0,"x_max":0,"o":"m 18 1014 l 219 1014 l 408 313 l 617 1014 l 807 1014 l 1015 315 l 1201 1014 l 1397 1014 l 1111 0 l 921 0 l 711 708 l 503 0 l 306 0 m 800 1319 l 978 1319 l 769 1083 l 642 1083 "},"Ẁ":{"ha":1417,"x_min":0,"x_max":0,"o":"m 18 1014 l 219 1014 l 408 313 l 617 1014 l 807 1014 l 1015 315 l 1201 1014 l 1397 1014 l 1111 0 l 921 0 l 711 708 l 503 0 l 306 0 m 431 1319 l 608 1319 l 767 1083 l 639 1083 "},"Ŵ":{"ha":1417,"x_min":0,"x_max":0,"o":"m 18 1014 l 219 1014 l 408 313 l 617 1014 l 807 1014 l 1015 315 l 1201 1014 l 1397 1014 l 1111 0 l 921 0 l 711 708 l 503 0 l 306 0 m 650 1319 l 768 1319 l 933 1083 l 790 1083 l 708 1206 l 628 1083 l 485 1083 "},"Ẅ":{"ha":1417,"x_min":0,"x_max":0,"o":"m 18 1014 l 219 1014 l 408 313 l 617 1014 l 807 1014 l 1015 315 l 1201 1014 l 1397 1014 l 1111 0 l 921 0 l 711 708 l 503 0 l 306 0 m 744 1274 l 935 1274 l 935 1083 l 744 1083 m 485 1274 l 675 1274 l 675 1083 l 485 1083 "},"Ý":{"ha":874,"x_min":0,"x_max":0,"o":"m 339 481 l 17 1014 l 229 1014 l 436 665 l 644 1014 l 857 1014 l 532 476 l 532 0 l 339 0 m 525 1319 l 703 1319 l 494 1083 l 367 1083 "},"Ỳ":{"ha":874,"x_min":0,"x_max":0,"o":"m 339 481 l 17 1014 l 229 1014 l 436 665 l 644 1014 l 857 1014 l 532 476 l 532 0 l 339 0 m 161 1319 l 339 1319 l 497 1083 l 369 1083 "},"Ŷ":{"ha":874,"x_min":0,"x_max":0,"o":"m 339 481 l 17 1014 l 229 1014 l 436 665 l 644 1014 l 857 1014 l 532 476 l 532 0 l 339 0 m 378 1319 l 496 1319 l 661 1083 l 518 1083 l 436 1206 l 356 1083 l 213 1083 "},"Ÿ":{"ha":874,"x_min":0,"x_max":0,"o":"m 339 481 l 17 1014 l 229 1014 l 436 665 l 644 1014 l 857 1014 l 532 476 l 532 0 l 339 0 m 211 1274 l 401 1274 l 401 1083 l 211 1083 m 471 1274 l 661 1274 l 661 1083 l 471 1083 "},"Ź":{"ha":768,"x_min":0,"x_max":0,"o":"m 49 178 l 490 829 l 64 829 l 64 1014 l 719 1014 l 719 838 l 276 185 l 719 185 l 719 0 l 49 0 m 465 1319 l 643 1319 l 435 1083 l 307 1083 "},"Ž":{"ha":768,"x_min":0,"x_max":0,"o":"m 49 178 l 490 829 l 64 829 l 64 1014 l 719 1014 l 719 838 l 276 185 l 719 185 l 719 0 l 49 0 m 168 1319 l 311 1319 l 392 1197 l 474 1319 l 617 1319 l 451 1083 l 333 1083 "},"Ż":{"ha":768,"x_min":0,"x_max":0,"o":"m 49 178 l 490 829 l 64 829 l 64 1014 l 719 1014 l 719 838 l 276 185 l 719 185 l 719 0 l 49 0 m 296 1274 l 486 1274 l 486 1083 l 296 1083 "},"á":{"ha":811,"x_min":0,"x_max":0,"o":"m 363 -14 b 28 347 215 -14 28 103 b 365 708 28 593 208 708 b 572 626 456 708 526 675 l 572 694 l 763 694 l 763 0 l 572 0 l 572 78 b 363 -14 526 24 453 -14 m 400 161 b 578 349 503 161 578 246 b 400 535 578 451 503 535 b 214 349 294 535 214 456 b 400 161 214 242 294 161 m 450 1000 l 628 1000 l 419 764 l 292 764 "},"à":{"ha":811,"x_min":0,"x_max":0,"o":"m 363 -14 b 28 347 215 -14 28 103 b 365 708 28 593 208 708 b 572 626 456 708 526 675 l 572 694 l 763 694 l 763 0 l 572 0 l 572 78 b 363 -14 526 24 453 -14 m 400 161 b 578 349 503 161 578 246 b 400 535 578 451 503 535 b 214 349 294 535 214 456 b 400 161 214 242 294 161 m 113 1000 l 290 1000 l 449 764 l 321 764 "},"â":{"ha":811,"x_min":0,"x_max":0,"o":"m 363 -14 b 28 347 215 -14 28 103 b 365 708 28 593 208 708 b 572 626 456 708 526 675 l 572 694 l 763 694 l 763 0 l 572 0 l 572 78 b 363 -14 526 24 453 -14 m 400 161 b 578 349 503 161 578 246 b 400 535 578 451 503 535 b 214 349 294 535 214 456 b 400 161 214 242 294 161 m 364 1000 l 482 1000 l 647 764 l 504 764 l 422 886 l 342 764 l 199 764 "},"ä":{"ha":811,"x_min":0,"x_max":0,"o":"m 363 -14 b 28 347 215 -14 28 103 b 365 708 28 593 208 708 b 572 626 456 708 526 675 l 572 694 l 763 694 l 763 0 l 572 0 l 572 78 b 363 -14 526 24 453 -14 m 400 161 b 578 349 503 161 578 246 b 400 535 578 451 503 535 b 214 349 294 535 214 456 b 400 161 214 242 294 161 m 447 954 l 638 954 l 638 764 l 447 764 m 188 954 l 378 954 l 378 764 l 188 764 "},"ã":{"ha":811,"x_min":0,"x_max":0,"o":"m 363 -14 b 28 347 215 -14 28 103 b 365 708 28 593 208 708 b 572 626 456 708 526 675 l 572 694 l 763 694 l 763 0 l 572 0 l 572 78 b 363 -14 526 24 453 -14 m 400 161 b 578 349 503 161 578 246 b 400 535 578 451 503 535 b 214 349 294 535 214 456 b 400 161 214 242 294 161 m 169 764 b 315 951 169 876 224 951 b 421 918 361 951 393 935 b 493 885 447 901 469 885 b 531 946 518 885 531 904 l 640 946 b 494 758 640 832 592 758 b 374 800 440 758 404 782 b 315 824 353 813 335 824 b 279 764 290 824 279 806 l 169 764 "},"å":{"ha":811,"x_min":0,"x_max":0,"o":"m 363 -14 b 28 347 215 -14 28 103 b 365 708 28 593 208 708 b 572 626 456 708 526 675 l 572 694 l 763 694 l 763 0 l 572 0 l 572 78 b 363 -14 526 24 453 -14 m 400 161 b 578 349 503 161 578 246 b 400 535 578 451 503 535 b 214 349 294 535 214 456 b 400 161 214 242 294 161 m 385 754 b 224 915 296 754 224 826 b 385 1079 224 1007 296 1079 b 549 915 476 1079 549 1007 b 385 754 549 826 476 754 m 385 861 b 442 915 415 861 442 886 b 385 972 442 946 415 972 b 331 915 356 972 331 946 b 385 861 331 886 356 861 "},"ā":{"ha":811,"x_min":0,"x_max":0,"o":"m 363 -14 b 28 347 215 -14 28 103 b 365 708 28 593 208 708 b 572 626 456 708 526 675 l 572 694 l 763 694 l 763 0 l 572 0 l 572 78 b 363 -14 526 24 453 -14 m 400 161 b 578 349 503 161 578 246 b 400 535 578 451 503 535 b 214 349 294 535 214 456 b 400 161 214 242 294 161 m 239 883 l 606 883 l 606 764 l 239 764 "},"ă":{"ha":811,"x_min":0,"x_max":0,"o":"m 363 -14 b 28 347 215 -14 28 103 b 365 708 28 593 208 708 b 572 626 456 708 526 675 l 572 694 l 763 694 l 763 0 l 572 0 l 572 78 b 363 -14 526 24 453 -14 m 400 161 b 578 349 503 161 578 246 b 400 535 578 451 503 535 b 214 349 294 535 214 456 b 400 161 214 242 294 161 m 403 757 b 179 993 250 757 179 858 l 299 993 b 403 860 299 904 336 863 b 507 993 469 863 507 904 l 628 993 b 403 757 628 858 542 757 "},"ą":{"ha":811,"x_min":0,"x_max":0,"o":"m 363 -14 b 28 347 215 -14 28 103 b 365 708 28 593 208 708 b 572 626 456 708 526 675 l 572 694 l 763 694 l 763 0 l 756 0 b 608 -154 649 -64 608 -122 b 660 -200 608 -185 631 -200 b 729 -157 688 -200 711 -179 l 840 -233 b 653 -319 792 -285 735 -319 b 469 -169 546 -319 471 -256 b 572 10 467 -94 507 -40 l 572 78 b 363 -14 526 24 453 -14 m 400 161 b 578 349 503 161 578 246 b 400 535 578 451 503 535 b 214 349 294 535 214 456 b 400 161 214 242 294 161 "},"ǻ":{"ha":808,"x_min":0,"x_max":0,"o":"m 363 -14 b 28 347 215 -14 28 103 b 365 708 28 593 208 708 b 572 626 456 708 526 675 l 572 694 l 763 694 l 763 0 l 572 0 l 572 78 b 363 -14 526 24 453 -14 m 400 161 b 578 349 503 161 578 246 b 400 535 578 451 503 535 b 214 349 294 535 214 456 b 400 161 214 242 294 161 m 385 754 b 224 915 296 754 224 826 b 385 1079 224 1007 296 1079 b 549 915 476 1079 549 1007 b 385 754 549 826 476 754 m 478 1364 l 656 1364 l 447 1128 l 319 1128 m 385 861 b 442 915 415 861 442 886 b 385 972 442 946 415 972 b 331 915 356 972 331 946 b 385 861 331 886 356 861 "},"æ":{"ha":1228,"x_min":0,"x_max":0,"o":"m 847 -14 b 560 124 722 -14 622 39 b 282 -14 511 43 406 -14 b 28 185 104 -14 28 71 b 247 407 28 314 119 372 b 474 504 360 438 474 453 b 371 560 474 533 439 560 b 224 446 265 560 224 506 l 224 442 l 51 442 l 51 444 b 363 708 51 611 165 708 b 603 618 467 708 553 676 b 840 708 665 674 747 708 b 1200 347 1049 708 1200 547 l 1200 286 l 663 286 b 849 153 682 207 746 153 b 1025 268 926 153 994 200 l 1182 204 b 847 -14 1128 75 999 -14 m 292 143 b 478 293 394 143 478 243 l 478 326 b 339 272 474 314 418 292 b 215 190 251 251 215 231 b 292 143 215 161 240 143 m 842 542 b 675 439 764 542 704 500 l 1004 439 b 842 542 976 506 917 542 "},"ǽ":{"ha":1228,"x_min":0,"x_max":0,"o":"m 847 -14 b 560 124 722 -14 622 39 b 282 -14 511 43 406 -14 b 28 185 104 -14 28 71 b 247 407 28 314 119 372 b 474 504 360 438 474 453 b 371 560 474 533 439 560 b 224 446 265 560 224 506 l 224 442 l 51 442 l 51 444 b 363 708 51 611 165 708 b 603 618 467 708 553 676 b 840 708 665 674 747 708 b 1200 347 1049 708 1200 547 l 1200 286 l 663 286 b 849 153 682 207 746 153 b 1025 268 926 153 994 200 l 1182 204 b 847 -14 1128 75 999 -14 m 707 1000 l 885 1000 l 676 764 l 549 764 m 292 143 b 478 293 394 143 478 243 l 478 326 b 339 272 474 314 418 292 b 215 190 251 251 215 231 b 292 143 215 161 240 143 m 842 542 b 675 439 764 542 704 500 l 1004 439 b 842 542 976 506 917 542 "},"ć":{"ha":743,"x_min":0,"x_max":0,"o":"m 388 -14 b 28 347 188 -14 28 147 b 388 708 28 547 188 708 b 722 489 546 708 668 618 l 553 417 b 389 528 526 482 463 528 b 211 347 289 528 211 447 b 389 167 211 247 289 167 b 553 278 463 167 526 213 l 722 206 b 388 -14 668 76 546 -14 m 478 1000 l 656 1000 l 447 764 l 319 764 "},"ĉ":{"ha":743,"x_min":0,"x_max":0,"o":"m 388 -14 b 28 347 188 -14 28 147 b 388 708 28 547 188 708 b 722 489 546 708 668 618 l 553 417 b 389 528 526 482 463 528 b 211 347 289 528 211 447 b 389 167 211 247 289 167 b 553 278 463 167 526 213 l 722 206 b 388 -14 668 76 546 -14 m 333 1000 l 451 1000 l 617 764 l 474 764 l 392 886 l 311 764 l 168 764 "},"č":{"ha":743,"x_min":0,"x_max":0,"o":"m 388 -14 b 28 347 188 -14 28 147 b 388 708 28 547 188 708 b 722 489 546 708 668 618 l 553 417 b 389 528 526 482 463 528 b 211 347 289 528 211 447 b 389 167 211 247 289 167 b 553 278 463 167 526 213 l 722 206 b 388 -14 668 76 546 -14 m 169 1000 l 313 1000 l 393 878 l 475 1000 l 618 1000 l 453 764 l 335 764 "},"ç":{"ha":743,"x_min":0,"x_max":0,"o":"m 388 -333 b 189 -251 315 -333 242 -299 l 297 -186 b 403 -232 329 -211 356 -232 b 478 -190 443 -232 478 -214 b 399 -153 478 -165 451 -153 l 328 -153 l 328 -8 b 28 347 157 19 28 167 b 388 708 28 547 188 708 b 722 489 546 708 668 618 l 553 417 b 389 528 526 482 463 528 b 211 347 289 528 211 447 b 389 167 211 247 289 167 b 553 278 463 167 526 213 l 722 206 b 446 -10 675 93 575 10 l 446 -74 b 606 -185 550 -69 606 -117 b 388 -333 606 -271 510 -333 "},"ċ":{"ha":743,"x_min":0,"x_max":0,"o":"m 388 -14 b 28 347 188 -14 28 147 b 388 708 28 547 188 708 b 722 489 546 708 668 618 l 553 417 b 389 528 526 482 463 528 b 211 347 289 528 211 447 b 389 167 211 247 289 167 b 553 278 463 167 526 213 l 722 206 b 388 -14 668 76 546 -14 m 296 954 l 486 954 l 486 764 l 296 764 "},"ď":{"ha":911,"x_min":0,"x_max":0,"o":"m 363 -14 b 28 347 215 -14 28 103 b 365 708 28 593 208 708 b 572 626 456 708 526 675 l 572 1014 l 763 1014 l 763 0 l 572 0 l 572 78 b 363 -14 526 24 453 -14 m 400 161 b 578 349 503 161 578 246 b 400 535 578 451 503 535 b 214 349 294 535 214 456 b 400 161 214 242 294 161 m 853 1014 l 1007 1014 l 938 778 l 819 778 "},"đ":{"ha":811,"x_min":0,"x_max":0,"o":"m 485 883 l 572 883 l 572 1014 l 763 1014 l 763 883 l 851 883 l 851 764 l 763 764 l 763 0 l 572 0 l 572 78 b 363 -14 526 24 453 -14 b 28 347 215 -14 28 103 b 365 708 28 593 208 708 b 572 626 456 708 526 675 l 572 764 l 485 764 m 400 161 b 578 349 503 161 578 246 b 400 535 578 451 503 535 b 214 349 294 535 214 456 b 400 161 214 242 294 161 "},"ð":{"ha":779,"x_min":0,"x_max":0,"o":"m 296 854 b 82 1014 236 904 165 956 l 346 1014 b 417 956 371 994 394 975 l 486 1014 l 647 1014 l 493 885 b 747 357 676 701 747 524 b 386 -14 747 147 589 -14 b 28 346 194 -14 28 139 b 367 692 28 549 175 692 b 486 663 415 692 454 681 b 374 785 457 703 419 743 l 307 729 l 144 729 m 388 167 b 563 346 482 167 563 250 b 389 528 563 446 488 528 b 214 346 296 528 214 454 b 388 167 214 242 294 167 "},"é":{"ha":776,"x_min":0,"x_max":0,"o":"m 394 -14 b 28 347 178 -14 28 147 b 389 708 28 547 189 708 b 747 349 601 708 747 549 l 747 279 l 211 279 b 396 153 233 203 296 153 b 567 261 472 153 536 194 l 718 171 b 394 -14 658 63 549 -14 m 468 1000 l 646 1000 l 438 764 l 310 764 m 390 542 b 219 432 310 542 249 497 l 556 432 b 390 542 531 504 471 542 "},"è":{"ha":776,"x_min":0,"x_max":0,"o":"m 394 -14 b 28 347 178 -14 28 147 b 389 708 28 547 189 708 b 747 349 601 708 747 549 l 747 279 l 211 279 b 396 153 233 203 296 153 b 567 261 472 153 536 194 l 718 171 b 394 -14 658 63 549 -14 m 131 1000 l 308 1000 l 467 764 l 339 764 m 390 542 b 219 432 310 542 249 497 l 556 432 b 390 542 531 504 471 542 "},"ê":{"ha":776,"x_min":0,"x_max":0,"o":"m 394 -14 b 28 347 178 -14 28 147 b 389 708 28 547 189 708 b 747 349 601 708 747 549 l 747 279 l 211 279 b 396 153 233 203 296 153 b 567 261 472 153 536 194 l 718 171 b 394 -14 658 63 549 -14 m 324 1000 l 442 1000 l 607 764 l 464 764 l 382 886 l 301 764 l 158 764 m 390 542 b 219 432 310 542 249 497 l 556 432 b 390 542 531 504 471 542 "},"ë":{"ha":776,"x_min":0,"x_max":0,"o":"m 394 -14 b 28 347 178 -14 28 147 b 389 708 28 547 189 708 b 747 349 601 708 747 549 l 747 279 l 211 279 b 396 153 233 203 296 153 b 567 261 472 153 536 194 l 718 171 b 394 -14 658 63 549 -14 m 422 954 l 613 954 l 613 764 l 422 764 m 163 954 l 353 954 l 353 764 l 163 764 m 390 542 b 219 432 310 542 249 497 l 556 432 b 390 542 531 504 471 542 "},"ě":{"ha":776,"x_min":0,"x_max":0,"o":"m 394 -14 b 28 347 178 -14 28 147 b 389 708 28 547 189 708 b 747 349 601 708 747 549 l 747 279 l 211 279 b 396 153 233 203 296 153 b 567 261 472 153 536 194 l 718 171 b 394 -14 658 63 549 -14 m 167 1000 l 310 1000 l 390 878 l 472 1000 l 615 1000 l 450 764 l 332 764 m 390 542 b 219 432 310 542 249 497 l 556 432 b 390 542 531 504 471 542 "},"ē":{"ha":776,"x_min":0,"x_max":0,"o":"m 394 -14 b 28 347 178 -14 28 147 b 389 708 28 547 189 708 b 747 349 601 708 747 549 l 747 279 l 211 279 b 396 153 233 203 296 153 b 567 261 472 153 536 194 l 718 171 b 394 -14 658 63 549 -14 m 206 883 l 572 883 l 572 764 l 206 764 m 390 542 b 219 432 310 542 249 497 l 556 432 b 390 542 531 504 471 542 "},"ĕ":{"ha":776,"x_min":0,"x_max":0,"o":"m 394 -14 b 28 347 178 -14 28 147 b 389 708 28 547 189 708 b 747 349 601 708 747 549 l 747 279 l 211 279 b 396 153 233 203 296 153 b 567 261 472 153 536 194 l 718 171 b 394 -14 658 63 549 -14 m 389 757 b 165 993 236 757 165 858 l 285 993 b 389 860 285 904 322 863 b 493 993 456 863 493 904 l 614 993 b 389 757 614 858 528 757 m 390 542 b 219 432 310 542 249 497 l 556 432 b 390 542 531 504 471 542 "},"ę":{"ha":776,"x_min":0,"x_max":0,"o":"m 378 -315 b 178 -164 258 -315 178 -249 b 286 0 178 -108 203 -56 b 28 347 129 44 28 182 b 389 708 28 547 189 708 b 747 349 601 708 747 549 l 747 279 l 211 279 b 396 153 233 203 296 153 b 567 261 472 153 536 194 l 718 171 b 499 0 672 89 599 25 b 319 -157 349 -100 319 -121 b 378 -199 319 -187 347 -199 b 461 -160 415 -199 436 -179 l 572 -235 b 378 -315 522 -279 444 -315 m 390 542 b 219 432 310 542 249 497 l 556 432 b 390 542 531 504 471 542 "},"ė":{"ha":776,"x_min":0,"x_max":0,"o":"m 394 -14 b 28 347 178 -14 28 147 b 389 708 28 547 189 708 b 747 349 601 708 747 549 l 747 279 l 211 279 b 396 153 233 203 296 153 b 567 261 472 153 536 194 l 718 171 b 394 -14 658 63 549 -14 m 296 954 l 486 954 l 486 764 l 296 764 m 390 542 b 219 432 310 542 249 497 l 556 432 b 390 542 531 504 471 542 "},"ĝ":{"ha":811,"x_min":0,"x_max":0,"o":"m 363 -14 b 28 347 215 -14 28 103 b 365 708 28 593 208 708 b 572 619 456 708 526 671 l 572 694 l 763 694 l 763 19 b 404 -335 763 -176 639 -335 b 43 -135 228 -335 99 -243 l 211 -40 b 404 -158 247 -112 311 -158 b 572 13 507 -158 572 -78 l 572 78 b 363 -14 526 24 453 -14 m 400 161 b 578 349 503 161 578 246 b 400 535 578 451 503 535 b 214 349 294 535 214 456 b 400 161 214 242 294 161 m 349 1000 l 467 1000 l 632 764 l 489 764 l 407 886 l 326 764 l 183 764 "},"ğ":{"ha":811,"x_min":0,"x_max":0,"o":"m 363 -14 b 28 347 215 -14 28 103 b 365 708 28 593 208 708 b 572 619 456 708 526 671 l 572 694 l 763 694 l 763 19 b 404 -335 763 -176 639 -335 b 43 -135 228 -335 99 -243 l 211 -40 b 404 -158 247 -112 311 -158 b 572 13 507 -158 572 -78 l 572 78 b 363 -14 526 24 453 -14 m 400 161 b 578 349 503 161 578 246 b 400 535 578 451 503 535 b 214 349 294 535 214 456 b 400 161 214 242 294 161 m 407 757 b 183 993 254 757 183 858 l 303 993 b 407 860 303 904 340 863 b 511 993 474 863 511 904 l 632 993 b 407 757 632 858 546 757 "},"ġ":{"ha":811,"x_min":0,"x_max":0,"o":"m 363 -14 b 28 347 215 -14 28 103 b 365 708 28 593 208 708 b 572 619 456 708 526 671 l 572 694 l 763 694 l 763 19 b 404 -335 763 -176 639 -335 b 43 -135 228 -335 99 -243 l 211 -40 b 404 -158 247 -112 311 -158 b 572 13 507 -158 572 -78 l 572 78 b 363 -14 526 24 453 -14 m 400 161 b 578 349 503 161 578 246 b 400 535 578 451 503 535 b 214 349 294 535 214 456 b 400 161 214 242 294 161 m 293 954 l 483 954 l 483 764 l 293 764 "},"ģ":{"ha":811,"x_min":0,"x_max":0,"o":"m 363 -14 b 28 347 215 -14 28 103 b 365 708 28 593 208 708 b 572 619 456 708 526 671 l 572 694 l 763 694 l 763 19 b 404 -335 763 -176 639 -335 b 43 -135 228 -335 99 -243 l 211 -40 b 404 -158 247 -112 311 -158 b 572 13 507 -158 572 -78 l 572 78 b 363 -14 526 24 453 -14 m 400 161 b 578 349 503 161 578 246 b 400 535 578 451 503 535 b 214 349 294 535 214 456 b 400 161 214 242 294 161 m 332 764 l 379 1047 l 547 1047 l 450 764 "},"ĥ":{"ha":740,"x_min":0,"x_max":0,"o":"m 49 1014 l 238 1014 l 238 618 b 429 708 283 674 350 708 b 692 424 593 708 692 603 l 692 0 l 499 0 l 499 397 b 371 546 499 492 456 546 b 239 379 299 546 239 496 l 239 0 l 49 0 m 83 1319 l 201 1319 l 367 1083 l 224 1083 l 142 1206 l 61 1083 l -82 1083 "},"ħ":{"ha":740,"x_min":0,"x_max":0,"o":"m -37 894 l 49 894 l 49 1014 l 238 1014 l 238 894 l 329 894 l 329 775 l 238 775 l 238 618 b 429 708 283 674 350 708 b 692 424 593 708 692 603 l 692 0 l 499 0 l 499 397 b 371 546 499 492 456 546 b 239 379 299 546 239 496 l 239 0 l 49 0 l 49 775 l -37 775 "},"ı":{"ha":288,"x_min":0,"x_max":0,"o":"m 49 694 l 239 694 l 239 0 l 49 0 "},"í":{"ha":288,"x_min":0,"x_max":0,"o":"m 49 694 l 239 694 l 239 0 l 49 0 m 213 1000 l 390 1000 l 182 764 l 54 764 "},"ì":{"ha":288,"x_min":0,"x_max":0,"o":"m 49 694 l 239 694 l 239 0 l 49 0 m -104 1000 l 74 1000 l 232 764 l 104 764 "},"î":{"ha":288,"x_min":0,"x_max":0,"o":"m 49 694 l 239 694 l 239 0 l 49 0 m 85 1000 l 203 1000 l 368 764 l 225 764 l 143 886 l 63 764 l -81 764 "},"ï":{"ha":288,"x_min":0,"x_max":0,"o":"m 192 954 l 382 954 l 382 764 l 192 764 m -96 954 l 94 954 l 94 764 l -96 764 m 49 694 l 239 694 l 239 0 l 49 0 "},"ĩ":{"ha":288,"x_min":0,"x_max":0,"o":"m 49 694 l 239 694 l 239 0 l 49 0 m -87 764 b 58 951 -87 876 -33 951 b 164 918 104 951 136 935 b 236 885 190 901 213 885 b 274 946 261 885 274 904 l 383 946 b 238 758 383 832 335 758 b 117 800 183 758 147 782 b 58 824 96 813 78 824 b 22 764 33 824 22 806 l -87 764 "},"ī":{"ha":288,"x_min":0,"x_max":0,"o":"m 49 694 l 239 694 l 239 0 l 49 0 m -39 883 l 328 883 l 328 764 l -39 764 "},"ĭ":{"ha":288,"x_min":0,"x_max":0,"o":"m 49 694 l 239 694 l 239 0 l 49 0 m 142 757 b -82 993 -11 757 -82 858 l 38 993 b 142 860 38 904 75 863 b 246 993 208 863 246 904 l 367 993 b 142 757 367 858 281 757 "},"į":{"ha":288,"x_min":0,"x_max":0,"o":"m 132 -319 b -51 -169 25 -319 -50 -256 b 49 8 -53 -96 -15 -42 l 49 694 l 239 694 l 239 0 l 235 0 b 88 -154 128 -64 88 -122 b 139 -200 88 -185 110 -200 b 208 -157 167 -200 190 -179 l 319 -233 b 132 -319 271 -285 214 -319 m 49 954 l 239 954 l 239 764 l 49 764 "},"ȷ":{"ha":289,"x_min":0,"x_max":0,"o":"m -82 -142 b 49 -17 35 -142 49 -125 l 49 694 l 240 694 l 240 -18 b -54 -319 240 -244 167 -319 l -82 -319 "},"ĵ":{"ha":289,"x_min":0,"x_max":0,"o":"m -82 -142 b 49 -17 35 -142 49 -125 l 49 694 l 240 694 l 240 -18 b -54 -319 240 -244 167 -319 l -82 -319 m 85 1000 l 203 1000 l 368 764 l 225 764 l 143 886 l 63 764 l -81 764 "},"ķ":{"ha":753,"x_min":0,"x_max":0,"o":"m 332 278 l 239 168 l 239 0 l 49 0 l 49 1014 l 239 1014 l 239 388 l 494 694 l 715 694 l 463 394 l 729 0 l 521 0 m 250 -346 l 297 -62 l 465 -62 l 368 -346 "},"ĺ":{"ha":288,"x_min":0,"x_max":0,"o":"m 49 1014 l 239 1014 l 239 0 l 49 0 m 236 1319 l 414 1319 l 206 1083 l 78 1083 "},"ľ":{"ha":388,"x_min":0,"x_max":0,"o":"m 49 1014 l 239 1014 l 239 0 l 49 0 m 332 1014 l 486 1014 l 417 778 l 299 778 "},"ļ":{"ha":288,"x_min":0,"x_max":0,"o":"m 49 1014 l 239 1014 l 239 0 l 49 0 m 11 -346 l 58 -62 l 226 -62 l 129 -346 "},"ŀ":{"ha":547,"x_min":0,"x_max":0,"o":"m 49 1014 l 239 1014 l 239 0 l 49 0 m 308 450 l 499 450 l 499 260 l 308 260 "},"ł":{"ha":521,"x_min":0,"x_max":0,"o":"m 36 576 l 160 613 l 160 1014 l 350 1014 l 350 668 l 485 707 l 485 569 l 350 531 l 350 0 l 160 0 l 160 475 l 36 439 "},"ń":{"ha":740,"x_min":0,"x_max":0,"o":"m 49 694 l 238 694 l 238 617 b 429 708 282 674 350 708 b 692 424 593 708 692 603 l 692 0 l 499 0 l 499 399 b 371 546 499 492 456 546 b 239 379 299 546 239 496 l 239 0 l 49 0 m 483 1000 l 661 1000 l 453 764 l 325 764 "},"ñ":{"ha":740,"x_min":0,"x_max":0,"o":"m 49 694 l 238 694 l 238 617 b 429 708 282 674 350 708 b 692 424 593 708 692 603 l 692 0 l 499 0 l 499 399 b 371 546 499 492 456 546 b 239 379 299 546 239 496 l 239 0 l 49 0 m 136 765 b 282 953 136 878 190 953 b 388 919 328 953 360 936 b 460 886 414 903 436 886 b 497 947 485 886 497 906 l 607 947 b 461 760 607 833 558 760 b 340 801 407 760 371 783 b 282 825 319 814 301 825 b 246 765 257 825 246 807 l 136 765 "},"ň":{"ha":740,"x_min":0,"x_max":0,"o":"m 49 694 l 238 694 l 238 617 b 429 708 282 674 350 708 b 692 424 593 708 692 603 l 692 0 l 499 0 l 499 399 b 371 546 499 492 456 546 b 239 379 299 546 239 496 l 239 0 l 49 0 m 158 1000 l 301 1000 l 382 878 l 464 1000 l 607 1000 l 442 764 l 324 764 "},"ņ":{"ha":740,"x_min":0,"x_max":0,"o":"m 49 694 l 238 694 l 238 617 b 429 708 282 674 350 708 b 692 424 593 708 692 603 l 692 0 l 499 0 l 499 399 b 371 546 499 492 456 546 b 239 379 299 546 239 496 l 239 0 l 49 0 m 269 -346 l 317 -62 l 485 -62 l 388 -346 "},"ó":{"ha":775,"x_min":0,"x_max":0,"o":"m 388 -14 b 28 347 188 -14 28 147 b 388 708 28 547 188 708 b 747 347 588 708 747 547 b 388 -14 747 147 588 -14 m 388 167 b 563 347 485 167 563 249 b 388 528 563 446 485 528 b 214 347 289 528 214 446 b 388 167 214 249 289 167 m 476 1000 l 654 1000 l 446 764 l 318 764 "},"ò":{"ha":775,"x_min":0,"x_max":0,"o":"m 388 -14 b 28 347 188 -14 28 147 b 388 708 28 547 188 708 b 747 347 588 708 747 547 b 388 -14 747 147 588 -14 m 388 167 b 563 347 485 167 563 249 b 388 528 563 446 485 528 b 214 347 289 528 214 446 b 388 167 214 249 289 167 m 121 1000 l 299 1000 l 457 764 l 329 764 "},"ô":{"ha":775,"x_min":0,"x_max":0,"o":"m 388 -14 b 28 347 188 -14 28 147 b 388 708 28 547 188 708 b 747 347 588 708 747 547 b 388 -14 747 147 588 -14 m 388 167 b 563 347 485 167 563 249 b 388 528 563 446 485 528 b 214 347 289 528 214 446 b 388 167 214 249 289 167 m 328 1000 l 446 1000 l 611 764 l 468 764 l 386 886 l 306 764 l 163 764 "},"ö":{"ha":775,"x_min":0,"x_max":0,"o":"m 388 -14 b 28 347 188 -14 28 147 b 388 708 28 547 188 708 b 747 347 588 708 747 547 b 388 -14 747 147 588 -14 m 388 167 b 563 347 485 167 563 249 b 388 528 563 446 485 528 b 214 347 289 528 214 446 b 388 167 214 249 289 167 m 422 954 l 613 954 l 613 764 l 422 764 m 163 954 l 353 954 l 353 764 l 163 764 "},"õ":{"ha":775,"x_min":0,"x_max":0,"o":"m 388 -14 b 28 347 188 -14 28 147 b 388 708 28 547 188 708 b 747 347 588 708 747 547 b 388 -14 747 147 588 -14 m 388 167 b 563 347 485 167 563 249 b 388 528 563 446 485 528 b 214 347 289 528 214 446 b 388 167 214 249 289 167 m 158 764 b 304 951 158 876 213 951 b 410 918 350 951 382 935 b 482 885 436 901 458 885 b 519 946 507 885 519 904 l 629 946 b 483 758 629 832 581 758 b 363 800 429 758 393 782 b 304 824 342 813 324 824 b 268 764 279 824 268 806 l 158 764 "},"ŏ":{"ha":775,"x_min":0,"x_max":0,"o":"m 388 -14 b 28 347 188 -14 28 147 b 388 708 28 547 188 708 b 747 347 588 708 747 547 b 388 -14 747 147 588 -14 m 388 167 b 563 347 485 167 563 249 b 388 528 563 446 485 528 b 214 347 289 528 214 446 b 388 167 214 249 289 167 m 386 757 b 163 993 233 757 163 858 l 282 993 b 386 860 282 904 319 863 b 490 993 453 863 490 904 l 611 993 b 386 757 611 858 525 757 "},"ō":{"ha":775,"x_min":0,"x_max":0,"o":"m 388 -14 b 28 347 188 -14 28 147 b 388 708 28 547 188 708 b 747 347 588 708 747 547 b 388 -14 747 147 588 -14 m 388 167 b 563 347 485 167 563 249 b 388 528 563 446 485 528 b 214 347 289 528 214 446 b 388 167 214 249 289 167 m 206 883 l 572 883 l 572 764 l 206 764 "},"ő":{"ha":775,"x_min":0,"x_max":0,"o":"m 388 -14 b 28 347 188 -14 28 147 b 388 708 28 547 188 708 b 747 347 588 708 747 547 b 388 -14 747 147 588 -14 m 388 167 b 563 347 485 167 563 249 b 388 528 563 446 485 528 b 214 347 289 528 214 446 b 388 167 214 249 289 167 m 367 1000 l 535 1000 l 326 764 l 208 764 m 599 1000 l 767 1000 l 558 764 l 440 764 "},"ø":{"ha":775,"x_min":0,"x_max":0,"o":"m 388 -14 b 222 25 328 -14 271 0 l 201 0 l 8 0 l 106 121 b 28 347 57 182 28 261 b 388 708 28 547 188 708 b 550 669 446 708 501 694 l 571 694 l 764 694 l 667 575 b 747 347 717 513 747 433 b 388 -14 747 147 588 -14 m 388 167 b 564 347 486 167 564 247 b 546 426 564 375 557 403 l 340 172 b 388 167 356 168 371 167 m 211 347 b 226 269 211 319 217 293 l 431 522 b 388 528 417 525 403 528 b 211 347 288 528 211 447 "},"ǿ":{"ha":775,"x_min":0,"x_max":0,"o":"m 388 -14 b 222 25 328 -14 271 0 l 201 0 l 8 0 l 106 121 b 28 347 57 182 28 261 b 388 708 28 547 188 708 b 550 669 446 708 501 694 l 571 694 l 764 694 l 667 575 b 747 347 717 513 747 433 b 388 -14 747 147 588 -14 m 479 1000 l 657 1000 l 449 764 l 321 764 m 388 167 b 564 347 486 167 564 247 b 546 426 564 375 557 403 l 340 172 b 388 167 356 168 371 167 m 211 347 b 226 269 211 319 217 293 l 431 522 b 388 528 417 525 403 528 b 211 347 288 528 211 447 "},"œ":{"ha":1311,"x_min":0,"x_max":0,"o":"m 388 -14 b 28 347 188 -14 28 147 b 388 708 28 547 188 708 b 656 585 503 708 594 661 b 924 708 718 660 808 708 b 1283 347 1132 708 1283 547 l 1283 286 l 746 286 b 932 153 765 207 829 153 b 1108 268 1010 153 1078 200 l 1265 204 b 931 -14 1211 75 1082 -14 b 654 107 807 -14 715 33 b 388 -14 592 33 501 -14 m 388 167 b 564 347 486 167 564 247 b 388 528 564 447 486 528 b 211 347 288 528 211 447 b 388 167 211 247 288 167 m 925 542 b 758 439 847 542 788 500 l 1088 439 b 925 542 1060 506 1000 542 "},"þ":{"ha":800,"x_min":0,"x_max":0,"o":"m 453 -14 b 239 83 360 -14 285 25 l 239 -319 l 49 -319 l 49 1014 l 239 1014 l 239 615 b 450 708 283 671 357 708 b 778 349 604 708 778 593 b 453 -14 778 103 597 -14 m 411 161 b 597 349 517 161 597 242 b 411 535 597 456 517 535 b 233 349 308 535 233 451 b 411 161 233 246 308 161 "},"ŕ":{"ha":543,"x_min":0,"x_max":0,"o":"m 49 694 l 238 694 l 238 581 b 429 694 272 653 335 694 l 506 694 l 506 510 l 385 510 b 239 328 283 510 239 457 l 239 0 l 49 0 m 369 1000 l 547 1000 l 339 764 l 211 764 "},"ř":{"ha":543,"x_min":0,"x_max":0,"o":"m 49 694 l 238 694 l 238 581 b 429 694 272 653 335 694 l 506 694 l 506 510 l 385 510 b 239 328 283 510 239 457 l 239 0 l 49 0 m 46 1000 l 189 1000 l 269 878 l 351 1000 l 494 1000 l 329 764 l 211 764 "},"ŗ":{"ha":543,"x_min":0,"x_max":0,"o":"m 49 694 l 238 694 l 238 581 b 429 694 272 653 335 694 l 506 694 l 506 510 l 385 510 b 239 328 283 510 239 457 l 239 0 l 49 0 m 25 -346 l 72 -62 l 240 -62 l 143 -346 "},"ś":{"ha":649,"x_min":0,"x_max":0,"o":"m 326 -14 b 7 174 158 -14 57 51 l 189 244 b 335 150 214 181 267 150 b 431 213 397 150 431 179 b 282 276 431 250 363 261 b 32 490 157 299 32 342 b 317 708 32 607 144 711 b 611 547 472 708 561 644 l 443 476 b 315 553 425 522 378 553 b 225 496 253 553 225 526 b 369 433 225 465 265 454 b 621 218 486 410 621 368 b 326 -14 621 117 526 -17 m 336 1000 l 514 1000 l 306 764 l 178 764 "},"ŝ":{"ha":649,"x_min":0,"x_max":0,"o":"m 326 -14 b 7 174 158 -14 57 51 l 189 244 b 335 150 214 181 267 150 b 431 213 397 150 431 179 b 282 276 431 250 363 261 b 32 490 157 299 32 342 b 317 708 32 607 144 711 b 611 547 472 708 561 644 l 443 476 b 315 553 425 522 378 553 b 225 496 253 553 225 526 b 369 433 225 465 265 454 b 621 218 486 410 621 368 b 326 -14 621 117 526 -17 m 201 1000 l 319 1000 l 485 764 l 342 764 l 260 886 l 179 764 l 36 764 "},"š":{"ha":649,"x_min":0,"x_max":0,"o":"m 326 -14 b 7 174 158 -14 57 51 l 189 244 b 335 150 214 181 267 150 b 431 213 397 150 431 179 b 282 276 431 250 363 261 b 32 490 157 299 32 342 b 317 708 32 607 144 711 b 611 547 472 708 561 644 l 443 476 b 315 553 425 522 378 553 b 225 496 253 553 225 526 b 369 433 225 465 265 454 b 621 218 486 410 621 368 b 326 -14 621 117 526 -17 m 44 1000 l 188 1000 l 268 878 l 350 1000 l 493 1000 l 328 764 l 210 764 "},"ş":{"ha":649,"x_min":0,"x_max":0,"o":"m 257 -333 b 58 -251 185 -333 111 -299 l 167 -186 b 272 -232 199 -211 225 -232 b 347 -190 313 -232 347 -214 b 268 -153 347 -165 321 -153 l 197 -153 l 197 0 l 204 0 b 7 174 107 25 43 83 l 189 244 b 335 150 214 181 267 150 b 431 213 397 150 431 179 b 282 276 431 250 363 261 b 32 490 157 299 32 342 b 317 708 32 607 144 711 b 611 547 472 708 561 644 l 443 476 b 315 553 425 522 378 553 b 225 496 253 553 225 526 b 369 433 225 465 265 454 b 621 218 486 410 621 368 b 326 -14 621 117 526 -17 l 315 -14 l 315 -74 b 475 -185 419 -69 475 -117 b 257 -333 475 -271 379 -333 "},"ș":{"ha":649,"x_min":0,"x_max":0,"o":"m 326 -14 b 7 174 158 -14 57 51 l 189 244 b 335 150 214 181 267 150 b 431 213 397 150 431 179 b 282 276 431 250 363 261 b 32 490 157 299 32 342 b 317 708 32 607 144 711 b 611 547 472 708 561 644 l 443 476 b 315 553 425 522 378 553 b 225 496 253 553 225 526 b 369 433 225 465 265 454 b 621 218 486 410 621 368 b 326 -14 621 117 526 -17 m 149 -346 l 196 -62 l 364 -62 l 267 -346 "},"ß":{"ha":719,"x_min":0,"x_max":0,"o":"m -82 -142 b 49 -17 35 -142 49 -125 l 49 701 b 358 1011 43 883 150 1011 b 661 726 539 1011 661 892 b 553 521 661 638 621 568 b 549 518 551 519 550 519 b 692 293 628 485 692 397 b 367 -14 692 114 560 -14 b 297 -10 349 -14 319 -14 l 297 157 l 364 157 b 497 292 443 157 497 215 b 329 428 497 365 435 428 l 297 428 l 297 600 l 329 600 b 478 726 422 600 478 656 b 356 850 478 796 432 850 b 228 721 275 850 228 811 l 228 -18 b -54 -319 228 -244 167 -319 l -82 -319 "},"ţ":{"ha":515,"x_min":0,"x_max":0,"o":"m 35 694 l 153 694 l 153 857 l 343 961 l 343 694 l 474 694 l 474 524 l 343 524 l 343 303 b 474 178 343 194 357 178 l 474 0 l 446 0 b 153 301 225 0 153 75 l 153 524 l 35 524 m 147 -346 l 194 -62 l 363 -62 l 265 -346 "},"ť":{"ha":515,"x_min":0,"x_max":0,"o":"m 35 694 l 153 694 l 153 857 l 343 961 l 343 694 l 474 694 l 474 524 l 343 524 l 343 303 b 474 178 343 194 357 178 l 474 0 l 446 0 b 153 301 225 0 153 75 l 153 524 l 35 524 m 450 1022 l 604 1022 l 535 786 l 417 786 "},"ú":{"ha":740,"x_min":0,"x_max":0,"o":"m 311 -14 b 49 271 147 -14 49 92 l 49 694 l 242 694 l 242 296 b 369 149 242 203 285 149 b 501 315 442 149 501 199 l 501 694 l 692 694 l 692 0 l 503 0 l 503 76 b 311 -14 457 21 390 -14 m 457 1000 l 635 1000 l 426 764 l 299 764 "},"ù":{"ha":740,"x_min":0,"x_max":0,"o":"m 311 -14 b 49 271 147 -14 49 92 l 49 694 l 242 694 l 242 296 b 369 149 242 203 285 149 b 501 315 442 149 501 199 l 501 694 l 692 694 l 692 0 l 503 0 l 503 76 b 311 -14 457 21 390 -14 m 101 1000 l 279 1000 l 438 764 l 310 764 "},"û":{"ha":740,"x_min":0,"x_max":0,"o":"m 311 -14 b 49 271 147 -14 49 92 l 49 694 l 242 694 l 242 296 b 369 149 242 203 285 149 b 501 315 442 149 501 199 l 501 694 l 692 694 l 692 0 l 503 0 l 503 76 b 311 -14 457 21 390 -14 m 310 1000 l 428 1000 l 593 764 l 450 764 l 368 886 l 288 764 l 144 764 "},"ü":{"ha":740,"x_min":0,"x_max":0,"o":"m 311 -14 b 49 271 147 -14 49 92 l 49 694 l 242 694 l 242 296 b 369 149 242 203 285 149 b 501 315 442 149 501 199 l 501 694 l 692 694 l 692 0 l 503 0 l 503 76 b 311 -14 457 21 390 -14 m 143 954 l 333 954 l 333 764 l 143 764 m 403 954 l 593 954 l 593 764 l 403 764 "},"ũ":{"ha":740,"x_min":0,"x_max":0,"o":"m 311 -14 b 49 271 147 -14 49 92 l 49 694 l 242 694 l 242 296 b 369 149 242 203 285 149 b 501 315 442 149 501 199 l 501 694 l 692 694 l 692 0 l 503 0 l 503 76 b 311 -14 457 21 390 -14 m 136 764 b 282 951 136 876 190 951 b 388 918 328 951 360 935 b 460 885 414 901 436 885 b 497 946 485 885 497 904 l 607 946 b 461 758 607 832 558 758 b 340 800 407 758 371 782 b 282 824 319 813 301 824 b 246 764 257 824 246 806 l 136 764 "},"ů":{"ha":740,"x_min":0,"x_max":0,"o":"m 311 -14 b 49 271 147 -14 49 92 l 49 694 l 242 694 l 242 296 b 369 149 242 203 285 149 b 501 315 442 149 501 199 l 501 694 l 692 694 l 692 0 l 503 0 l 503 76 b 311 -14 457 21 390 -14 m 371 758 b 210 919 282 758 210 831 b 371 1083 210 1011 282 1083 b 535 919 463 1083 535 1011 b 371 758 535 831 463 758 m 371 865 b 428 919 401 865 428 890 b 371 976 428 950 401 976 b 317 919 342 976 317 950 b 371 865 317 890 342 865 "},"ŭ":{"ha":740,"x_min":0,"x_max":0,"o":"m 311 -14 b 49 271 147 -14 49 92 l 49 694 l 242 694 l 242 296 b 369 149 242 203 285 149 b 501 315 442 149 501 199 l 501 694 l 692 694 l 692 0 l 503 0 l 503 76 b 311 -14 457 21 390 -14 m 368 757 b 144 993 215 757 144 858 l 264 993 b 368 860 264 904 301 863 b 472 993 435 863 472 904 l 593 993 b 368 757 593 858 507 757 "},"ū":{"ha":740,"x_min":0,"x_max":0,"o":"m 311 -14 b 49 271 147 -14 49 92 l 49 694 l 242 694 l 242 296 b 369 149 242 203 285 149 b 501 315 442 149 501 199 l 501 694 l 692 694 l 692 0 l 503 0 l 503 76 b 311 -14 457 21 390 -14 m 188 883 l 554 883 l 554 764 l 188 764 "},"ű":{"ha":740,"x_min":0,"x_max":0,"o":"m 311 -14 b 49 271 147 -14 49 92 l 49 694 l 242 694 l 242 296 b 369 149 242 203 285 149 b 501 315 442 149 501 199 l 501 694 l 692 694 l 692 0 l 503 0 l 503 76 b 311 -14 457 21 390 -14 m 579 1000 l 747 1000 l 539 764 l 421 764 m 347 1000 l 515 1000 l 307 764 l 189 764 "},"ų":{"ha":740,"x_min":0,"x_max":0,"o":"m 581 -319 b 397 -169 474 -319 399 -256 b 503 13 394 -94 435 -39 l 503 76 b 311 -14 457 21 390 -14 b 49 271 147 -14 49 92 l 49 694 l 242 694 l 242 296 b 369 149 242 203 285 149 b 501 315 442 149 501 199 l 501 694 l 692 694 l 692 0 l 683 0 b 536 -154 576 -64 536 -122 b 588 -200 536 -185 558 -200 b 657 -157 615 -200 639 -179 l 768 -233 b 581 -319 719 -285 663 -319 "},"ẃ":{"ha":1228,"x_min":0,"x_max":0,"o":"m 35 696 l 225 694 l 367 251 l 525 694 l 714 694 l 863 251 l 1013 694 l 1201 694 l 954 0 l 771 0 l 615 442 l 453 0 l 268 0 m 713 1000 l 890 1000 l 682 764 l 554 764 "},"ẁ":{"ha":1228,"x_min":0,"x_max":0,"o":"m 35 696 l 225 694 l 367 251 l 525 694 l 714 694 l 863 251 l 1013 694 l 1201 694 l 954 0 l 771 0 l 615 442 l 453 0 l 268 0 m 342 1000 l 519 1000 l 678 764 l 550 764 "},"ŵ":{"ha":1228,"x_min":0,"x_max":0,"o":"m 35 696 l 225 694 l 367 251 l 525 694 l 714 694 l 863 251 l 1013 694 l 1201 694 l 954 0 l 771 0 l 615 442 l 453 0 l 268 0 m 556 1000 l 674 1000 l 839 764 l 696 764 l 614 886 l 533 764 l 390 764 "},"ẅ":{"ha":1228,"x_min":0,"x_max":0,"o":"m 35 696 l 225 694 l 367 251 l 525 694 l 714 694 l 863 251 l 1013 694 l 1201 694 l 954 0 l 771 0 l 615 442 l 453 0 l 268 0 m 650 954 l 840 954 l 840 764 l 650 764 m 390 954 l 581 954 l 581 764 l 390 764 "},"ý":{"ha":765,"x_min":0,"x_max":0,"o":"m 293 31 l 17 694 l 217 694 l 388 267 l 547 694 l 744 694 l 342 -321 l 151 -321 m 472 1000 l 650 1000 l 442 764 l 314 764 "},"ỳ":{"ha":765,"x_min":0,"x_max":0,"o":"m 293 31 l 17 694 l 217 694 l 388 267 l 547 694 l 744 694 l 342 -321 l 151 -321 m 107 1000 l 285 1000 l 443 764 l 315 764 "},"ŷ":{"ha":765,"x_min":0,"x_max":0,"o":"m 293 31 l 17 694 l 217 694 l 388 267 l 547 694 l 744 694 l 342 -321 l 151 -321 m 324 1000 l 442 1000 l 607 764 l 464 764 l 382 886 l 301 764 l 158 764 "},"ÿ":{"ha":765,"x_min":0,"x_max":0,"o":"m 293 31 l 17 694 l 217 694 l 388 267 l 547 694 l 744 694 l 342 -321 l 151 -321 m 163 954 l 353 954 l 353 764 l 163 764 m 422 954 l 613 954 l 613 764 l 422 764 "},"ź":{"ha":711,"x_min":0,"x_max":0,"o":"m 42 169 l 407 526 l 47 526 l 47 694 l 663 694 l 663 524 l 297 168 l 669 168 l 669 0 l 42 0 m 447 1000 l 625 1000 l 417 764 l 289 764 "},"ž":{"ha":711,"x_min":0,"x_max":0,"o":"m 42 169 l 407 526 l 47 526 l 47 694 l 663 694 l 663 524 l 297 168 l 669 168 l 669 0 l 42 0 m 139 1000 l 282 1000 l 363 878 l 444 1000 l 588 1000 l 422 764 l 304 764 "},"ż":{"ha":711,"x_min":0,"x_max":0,"o":"m 42 169 l 407 526 l 47 526 l 47 694 l 663 694 l 663 524 l 297 168 l 669 168 l 669 0 l 42 0 m 265 954 l 456 954 l 456 764 l 265 764 "},"":{"ha":782,"x_min":0,"x_max":0,"o":"m 35 694 l 153 694 l 153 713 b 458 1014 153 939 226 1014 l 474 1014 l 474 836 b 343 711 357 836 343 819 l 343 694 l 474 694 l 474 524 l 343 524 l 343 0 l 153 0 l 153 524 l 35 524 m 543 694 l 733 694 l 733 0 l 543 0 m 543 954 l 733 954 l 733 764 l 543 764 "},"":{"ha":782,"x_min":0,"x_max":0,"o":"m 35 694 l 153 694 l 153 713 b 458 1014 153 939 226 1014 l 474 1014 l 474 836 b 343 711 357 836 343 819 l 343 694 l 474 694 l 474 524 l 343 524 l 343 0 l 153 0 l 153 524 l 35 524 m 543 1014 l 733 1014 l 733 0 l 543 0 "}," ":{"ha":340,"x_min":0,"x_max":0,"o":""},"-":{"ha":611,"x_min":0,"x_max":0,"o":"m 49 435 l 563 435 l 563 272 l 49 272 "},"–":{"ha":653,"x_min":0,"x_max":0,"o":"m 49 435 l 604 435 l 604 272 l 49 272 "},"·":{"ha":288,"x_min":0,"x_max":0,"o":"m 49 449 l 239 449 l 239 258 l 49 258 "},"«":{"ha":664,"x_min":0,"x_max":0,"o":"m 63 301 l 63 408 l 318 565 l 318 436 l 181 354 l 318 274 l 318 144 m 346 301 l 346 408 l 601 565 l 601 436 l 464 354 l 601 274 l 601 144 "},"»":{"ha":664,"x_min":0,"x_max":0,"o":"m 346 274 l 483 354 l 346 436 l 346 565 l 601 408 l 601 301 l 346 144 m 63 274 l 200 354 l 63 436 l 63 565 l 318 408 l 318 301 l 63 144 "},"‹":{"ha":381,"x_min":0,"x_max":0,"o":"m 72 296 l 72 414 l 308 579 l 308 436 l 186 354 l 308 274 l 308 131 "},"›":{"ha":381,"x_min":0,"x_max":0,"o":"m 72 275 l 194 356 l 72 438 l 72 581 l 308 415 l 308 297 l 72 132 "},"•":{"ha":553,"x_min":0,"x_max":0,"o":"m 276 197 b 119 354 190 197 119 268 b 276 511 119 440 190 511 b 433 354 363 511 433 440 b 276 197 433 268 363 197 "},"|":{"ha":290,"x_min":0,"x_max":0,"o":"m 49 1014 l 242 1014 l 242 -319 l 49 -319 "},"¦":{"ha":290,"x_min":0,"x_max":0,"o":"m 49 1014 l 242 1014 l 242 431 l 49 431 m 49 264 l 242 264 l 242 -319 l 49 -319 "},"(":{"ha":536,"x_min":0,"x_max":0,"o":"m 415 -353 b 28 347 185 -197 28 31 b 399 1033 28 664 174 869 l 528 894 b 231 347 356 779 231 604 b 535 -194 231 106 338 -72 l 415 -353 "},")":{"ha":536,"x_min":0,"x_max":0,"o":"m 306 344 b 8 892 306 601 181 776 l 138 1031 b 508 344 363 867 508 661 b 121 -356 508 28 351 -200 l 1 -197 b 306 344 199 -75 306 103 "},"[":{"ha":476,"x_min":0,"x_max":0,"o":"m 49 1014 l 428 1014 l 428 829 l 242 829 l 242 -135 l 428 -135 l 428 -319 l 49 -319 "},"]":{"ha":476,"x_min":0,"x_max":0,"o":"m 49 -135 l 235 -135 l 235 829 l 49 829 l 49 1014 l 428 1014 l 428 -319 l 49 -319 "},"{":{"ha":514,"x_min":0,"x_max":0,"o":"m 464 -319 b 158 -18 232 -319 158 -244 l 158 115 b 28 254 158 224 144 254 l 28 432 b 158 571 144 432 158 463 l 158 713 b 464 1014 158 939 232 1014 l 479 1014 l 479 836 b 349 711 363 836 349 819 l 349 569 b 243 343 349 453 319 381 b 349 117 319 306 349 233 l 349 -17 b 479 -142 349 -125 363 -142 l 479 -319 "},"}":{"ha":514,"x_min":0,"x_max":0,"o":"m 35 -142 b 165 -17 151 -142 165 -125 l 165 117 b 269 343 165 233 193 306 b 165 569 193 381 165 453 l 165 711 b 35 836 165 819 151 836 l 35 1014 l 50 1014 b 356 713 282 1014 356 939 l 356 571 b 486 432 356 463 369 432 l 486 254 b 356 115 369 254 356 224 l 356 -18 b 50 -319 356 -244 282 -319 l 35 -319 "},"":{"ha":714,"x_min":0,"x_max":0,"o":"m 263 -14 b 28 179 111 -14 28 65 b 247 407 28 308 119 372 b 474 504 360 438 474 453 b 371 560 474 538 439 560 b 224 446 265 560 224 506 l 224 442 l 51 442 l 51 444 b 363 708 51 611 165 708 b 665 483 531 708 665 643 l 665 0 l 482 0 l 482 75 b 263 -14 432 26 357 -14 m 279 143 b 482 299 392 143 482 246 l 482 333 b 338 276 478 321 419 297 b 208 192 246 256 208 233 b 279 143 208 157 240 143 "},"":{"ha":724,"x_min":0,"x_max":0,"o":"m 360 -354 b 32 -174 117 -354 32 -264 b 103 -53 32 -114 61 -75 b 25 90 49 -24 25 28 b 132 226 25 153 68 201 b 42 426 76 274 42 343 b 324 710 42 583 168 710 b 560 575 431 710 515 657 b 688 694 571 658 607 694 l 700 694 l 700 485 l 683 485 b 608 426 632 485 608 489 b 339 140 608 268 496 140 l 229 140 b 175 111 190 140 175 126 b 224 81 175 96 185 81 l 461 81 b 713 -118 624 81 713 6 b 360 -354 713 -254 592 -354 m 324 311 b 438 426 388 311 438 363 b 324 542 438 489 388 542 b 213 426 263 542 213 489 b 324 311 213 363 263 311 m 286 -79 b 197 -131 217 -78 197 -106 b 321 -185 197 -156 206 -185 l 407 -185 b 543 -124 519 -185 543 -149 b 451 -79 543 -99 522 -79 "},"":{"ha":1111,"x_min":0,"x_max":0,"o":"m 560 201 l 344 282 l 239 0 l 42 0 l 174 349 l 49 397 l 49 594 l 246 519 l 317 708 l 49 810 l 49 1007 l 382 881 l 433 1014 l 631 1014 l 554 814 l 768 733 l 875 1014 l 1069 1014 l 939 668 l 1063 621 l 1063 424 l 868 497 l 796 308 l 1063 207 l 1063 10 l 729 135 l 678 0 l 483 0 m 417 454 l 626 375 l 696 563 l 489 642 "},"":{"ha":714,"x_min":0,"x_max":0,"o":"m 263 -14 b 28 179 111 -14 28 65 b 247 407 28 308 119 372 b 474 504 360 438 474 453 b 371 560 474 538 439 560 b 224 446 265 560 224 506 l 224 442 l 51 442 l 51 444 b 363 708 51 611 165 708 b 665 483 531 708 665 643 l 665 0 l 482 0 l 482 75 b 263 -14 432 26 357 -14 m 482 1000 l 660 1000 l 451 764 l 324 764 m 279 143 b 482 299 392 143 482 246 l 482 333 b 338 276 478 321 419 297 b 208 192 246 256 208 233 b 279 143 208 157 240 143 "},"":{"ha":714,"x_min":0,"x_max":0,"o":"m 263 -14 b 28 179 111 -14 28 65 b 247 407 28 308 119 372 b 474 504 360 438 474 453 b 371 560 474 538 439 560 b 224 446 265 560 224 506 l 224 442 l 51 442 l 51 444 b 363 708 51 611 165 708 b 665 483 531 708 665 643 l 665 0 l 482 0 l 482 75 b 263 -14 432 26 357 -14 m 93 1000 l 271 1000 l 429 764 l 301 764 m 279 143 b 482 299 392 143 482 246 l 482 333 b 338 276 478 321 419 297 b 208 192 246 256 208 233 b 279 143 208 157 240 143 "},"":{"ha":714,"x_min":0,"x_max":0,"o":"m 263 -14 b 28 179 111 -14 28 65 b 247 407 28 308 119 372 b 474 504 360 438 474 453 b 371 560 474 538 439 560 b 224 446 265 560 224 506 l 224 442 l 51 442 l 51 444 b 363 708 51 611 165 708 b 665 483 531 708 665 643 l 665 0 l 482 0 l 482 75 b 263 -14 432 26 357 -14 m 307 1000 l 425 1000 l 590 764 l 447 764 l 365 886 l 285 764 l 142 764 m 279 143 b 482 299 392 143 482 246 l 482 333 b 338 276 478 321 419 297 b 208 192 246 256 208 233 b 279 143 208 157 240 143 "},"":{"ha":714,"x_min":0,"x_max":0,"o":"m 263 -14 b 28 179 111 -14 28 65 b 247 407 28 308 119 372 b 474 504 360 438 474 453 b 371 560 474 538 439 560 b 224 446 265 560 224 506 l 224 442 l 51 442 l 51 444 b 363 708 51 611 165 708 b 665 483 531 708 665 643 l 665 0 l 482 0 l 482 75 b 263 -14 432 26 357 -14 m 138 954 l 328 954 l 328 764 l 138 764 m 397 954 l 588 954 l 588 764 l 397 764 m 279 143 b 482 299 392 143 482 246 l 482 333 b 338 276 478 321 419 297 b 208 192 246 256 208 233 b 279 143 208 157 240 143 "},"":{"ha":714,"x_min":0,"x_max":0,"o":"m 263 -14 b 28 179 111 -14 28 65 b 247 407 28 308 119 372 b 474 504 360 438 474 453 b 371 560 474 538 439 560 b 224 446 265 560 224 506 l 224 442 l 51 442 l 51 444 b 363 708 51 611 165 708 b 665 483 531 708 665 643 l 665 0 l 482 0 l 482 75 b 263 -14 432 26 357 -14 m 142 764 b 288 951 142 876 196 951 b 393 918 333 951 365 935 b 465 885 419 901 442 885 b 503 946 490 885 503 904 l 613 946 b 467 758 613 832 564 758 b 346 800 413 758 376 782 b 288 824 325 813 307 824 b 251 764 263 824 251 806 l 142 764 m 279 143 b 482 299 392 143 482 246 l 482 333 b 338 276 478 321 419 297 b 208 192 246 256 208 233 b 279 143 208 157 240 143 "},"":{"ha":714,"x_min":0,"x_max":0,"o":"m 263 -14 b 28 179 111 -14 28 65 b 247 407 28 308 119 372 b 474 504 360 438 474 453 b 371 560 474 538 439 560 b 224 446 265 560 224 506 l 224 442 l 51 442 l 51 444 b 363 708 51 611 165 708 b 665 483 531 708 665 643 l 665 0 l 482 0 l 482 75 b 263 -14 432 26 357 -14 m 365 754 b 204 915 276 754 204 826 b 365 1079 204 1007 276 1079 b 529 915 457 1079 529 1007 b 365 754 529 826 457 754 m 279 143 b 482 299 392 143 482 246 l 482 333 b 338 276 478 321 419 297 b 208 192 246 256 208 233 b 279 143 208 157 240 143 m 365 861 b 422 915 396 861 422 886 b 365 972 422 946 396 972 b 311 915 336 972 311 946 b 365 861 311 886 336 861 "},"":{"ha":714,"x_min":0,"x_max":0,"o":"m 263 -14 b 28 179 111 -14 28 65 b 247 407 28 308 119 372 b 474 504 360 438 474 453 b 371 560 474 538 439 560 b 224 446 265 560 224 506 l 224 442 l 51 442 l 51 444 b 363 708 51 611 165 708 b 665 483 531 708 665 643 l 665 0 l 482 0 l 482 75 b 263 -14 432 26 357 -14 m 179 883 l 546 883 l 546 764 l 179 764 m 279 143 b 482 299 392 143 482 246 l 482 333 b 338 276 478 321 419 297 b 208 192 246 256 208 233 b 279 143 208 157 240 143 "},"":{"ha":714,"x_min":0,"x_max":0,"o":"m 263 -14 b 28 179 111 -14 28 65 b 247 407 28 308 119 372 b 474 504 360 438 474 453 b 371 560 474 538 439 560 b 224 446 265 560 224 506 l 224 442 l 51 442 l 51 444 b 363 708 51 611 165 708 b 665 483 531 708 665 643 l 665 0 l 482 0 l 482 75 b 263 -14 432 26 357 -14 m 365 757 b 142 993 213 757 142 858 l 261 993 b 365 860 261 904 299 863 b 469 993 432 863 469 904 l 590 993 b 365 757 590 858 504 757 m 279 143 b 482 299 392 143 482 246 l 482 333 b 338 276 478 321 419 297 b 208 192 246 256 208 233 b 279 143 208 157 240 143 "},"":{"ha":714,"x_min":0,"x_max":0,"o":"m 263 -14 b 28 179 111 -14 28 65 b 247 407 28 308 119 372 b 474 504 360 438 474 453 b 371 560 474 538 439 560 b 224 446 265 560 224 506 l 224 442 l 51 442 l 51 444 b 363 708 51 611 165 708 b 665 483 531 708 665 643 l 665 3 l 671 0 b 524 -154 564 -64 524 -122 b 575 -200 524 -185 546 -200 b 644 -157 603 -200 626 -179 l 756 -233 b 568 -319 707 -285 650 -319 b 385 -169 461 -319 386 -256 b 482 6 382 -97 419 -43 l 482 75 b 263 -14 432 26 357 -14 m 279 143 b 482 299 392 143 482 246 l 482 333 b 338 276 478 321 419 297 b 208 192 246 256 208 233 b 279 143 208 157 240 143 "},"":{"ha":714,"x_min":0,"x_max":0,"o":"m 263 -14 b 28 179 111 -14 28 65 b 247 407 28 308 119 372 b 474 504 360 438 474 453 b 371 560 474 538 439 560 b 224 446 265 560 224 506 l 224 442 l 51 442 l 51 444 b 363 708 51 611 165 708 b 665 483 531 708 665 643 l 665 0 l 482 0 l 482 75 b 263 -14 432 26 357 -14 m 364 758 b 203 919 275 758 203 831 b 364 1083 203 1011 275 1083 b 528 919 456 1083 528 1011 b 364 758 528 831 456 758 m 461 1374 l 639 1374 l 431 1138 l 303 1138 m 279 143 b 482 299 392 143 482 246 l 482 333 b 338 276 478 321 419 297 b 208 192 246 256 208 233 b 279 143 208 157 240 143 m 364 865 b 421 919 394 865 421 890 b 364 976 421 950 394 976 b 310 919 335 976 310 950 b 364 865 310 890 335 865 "},"":{"ha":724,"x_min":0,"x_max":0,"o":"m 360 -354 b 32 -174 117 -354 32 -264 b 103 -53 32 -114 61 -75 b 25 90 49 -24 25 28 b 132 226 25 153 68 201 b 42 426 76 274 42 343 b 324 710 42 583 168 710 b 560 575 431 710 515 657 b 688 694 571 658 607 694 l 700 694 l 700 485 l 683 485 b 608 426 632 485 608 489 b 339 140 608 268 496 140 l 229 140 b 175 111 190 140 175 126 b 224 81 175 96 185 81 l 461 81 b 713 -118 624 81 713 6 b 360 -354 713 -254 592 -354 m 268 1000 l 386 1000 l 551 764 l 408 764 l 326 886 l 246 764 l 103 764 m 324 311 b 438 426 388 311 438 363 b 324 542 438 489 388 542 b 213 426 263 542 213 489 b 324 311 213 363 263 311 m 278 -79 b 197 -131 215 -79 197 -107 b 321 -185 197 -156 206 -185 l 407 -185 b 543 -124 519 -185 543 -149 b 451 -79 543 -99 522 -79 "},"":{"ha":724,"x_min":0,"x_max":0,"o":"m 360 -354 b 32 -174 117 -354 32 -264 b 103 -53 32 -114 61 -75 b 25 90 49 -24 25 28 b 132 226 25 153 68 201 b 42 426 76 274 42 343 b 324 710 42 583 168 710 b 560 575 431 710 515 657 b 688 694 571 658 607 694 l 700 694 l 700 485 l 683 485 b 608 426 632 485 608 489 b 339 140 608 268 496 140 l 229 140 b 175 111 190 140 175 126 b 224 81 175 96 185 81 l 461 81 b 713 -118 624 81 713 6 b 360 -354 713 -254 592 -354 m 331 757 b 107 993 178 757 107 858 l 226 993 b 331 860 226 904 264 863 b 435 993 397 863 435 904 l 556 993 b 331 757 556 858 469 757 m 324 311 b 438 426 388 311 438 363 b 324 542 438 489 388 542 b 213 426 263 542 213 489 b 324 311 213 363 263 311 m 271 -79 b 197 -131 214 -82 197 -107 b 321 -185 197 -156 206 -185 l 407 -185 b 543 -124 519 -185 543 -149 b 451 -79 543 -99 522 -79 "},"":{"ha":724,"x_min":0,"x_max":0,"o":"m 360 -354 b 32 -174 117 -354 32 -264 b 103 -53 32 -114 61 -75 b 25 90 49 -24 25 28 b 132 226 25 153 68 201 b 42 426 76 274 42 343 b 324 710 42 583 168 710 b 560 575 431 710 515 657 b 688 694 571 658 607 694 l 700 694 l 700 485 l 683 485 b 608 426 632 485 608 489 b 339 140 608 268 496 140 l 229 140 b 175 111 190 140 175 126 b 224 81 175 96 185 81 l 461 81 b 713 -118 624 81 713 6 b 360 -354 713 -254 592 -354 m 324 311 b 438 426 388 311 438 363 b 324 542 438 489 388 542 b 213 426 263 542 213 489 b 324 311 213 363 263 311 m 240 954 l 431 954 l 431 764 l 240 764 m 278 -79 b 197 -131 215 -79 197 -107 b 321 -185 197 -156 206 -185 l 407 -185 b 543 -124 519 -185 543 -149 b 451 -79 543 -99 522 -79 "},"":{"ha":724,"x_min":0,"x_max":0,"o":"m 360 -354 b 32 -174 117 -354 32 -264 b 103 -53 32 -114 61 -75 b 25 90 49 -24 25 28 b 132 226 25 153 68 201 b 42 426 76 274 42 343 b 324 710 42 583 168 710 b 560 575 431 710 515 657 b 688 694 571 658 607 694 l 700 694 l 700 485 l 683 485 b 608 426 632 485 608 489 b 339 140 608 268 496 140 l 229 140 b 175 111 190 140 175 126 b 224 81 175 96 185 81 l 461 81 b 713 -118 624 81 713 6 b 360 -354 713 -254 592 -354 m 324 311 b 438 426 388 311 438 363 b 324 542 438 489 388 542 b 213 426 263 542 213 489 b 324 311 213 363 263 311 m 278 764 l 325 1047 l 493 1047 l 396 764 m 271 -79 b 197 -131 214 -82 197 -107 b 321 -185 197 -156 206 -185 l 407 -185 b 543 -124 519 -185 543 -149 b 451 -79 543 -99 522 -79 l 271 -79 "},"":{"ha":807,"x_min":0,"x_max":0,"o":"m 311 828 l 496 828 l 781 0 l 588 0 l 546 126 l 260 126 l 218 0 l 26 0 m 318 300 l 488 300 l 403 556 "},"":{"ha":676,"x_min":0,"x_max":0,"o":"m 49 828 l 324 828 b 624 593 521 828 624 749 b 542 433 624 521 594 468 b 649 250 611 397 649 338 b 335 0 650 79 531 0 l 49 0 m 239 336 l 239 169 l 338 169 b 456 256 418 169 456 200 b 335 336 456 310 428 336 m 239 658 l 239 510 l 331 510 b 435 588 407 510 435 540 b 331 658 435 636 404 658 "},"":{"ha":863,"x_min":0,"x_max":0,"o":"m 465 -11 b 38 414 213 -11 38 178 b 467 839 38 654 217 839 b 832 635 622 839 760 757 l 668 532 b 465 653 631 604 556 653 b 231 414 326 653 231 544 b 461 176 231 283 325 176 b 667 313 560 176 631 232 l 843 224 b 465 -11 772 86 642 -11 "},"":{"ha":761,"x_min":0,"x_max":0,"o":"m 49 828 l 292 828 b 724 414 554 828 724 649 b 296 0 724 178 543 0 l 49 0 m 238 651 l 238 176 l 286 176 b 533 414 436 176 533 281 b 281 651 533 549 446 651 "},"":{"ha":583,"x_min":0,"x_max":0,"o":"m 49 828 l 539 828 l 539 650 l 238 650 l 238 504 l 539 504 l 539 326 l 238 326 l 238 178 l 539 178 l 539 0 l 49 0 "},"":{"ha":563,"x_min":0,"x_max":0,"o":"m 49 828 l 521 828 l 521 650 l 238 650 l 238 504 l 521 504 l 521 326 l 238 326 l 238 0 l 49 0 "},"":{"ha":893,"x_min":0,"x_max":0,"o":"m 461 -11 b 28 414 193 -11 28 185 b 453 839 28 653 204 839 b 829 632 626 839 758 753 l 663 538 b 454 657 622 614 549 657 b 217 414 322 657 217 553 b 458 169 217 271 317 169 b 657 307 557 169 629 221 l 421 307 l 421 485 l 863 485 l 863 397 b 461 -11 863 176 703 -11 "},"":{"ha":729,"x_min":0,"x_max":0,"o":"m 490 322 l 239 322 l 239 0 l 49 0 l 49 828 l 239 828 l 239 510 l 490 510 l 490 828 l 681 828 l 681 0 l 490 0 "},"":{"ha":303,"x_min":0,"x_max":0,"o":"m 56 828 l 247 828 l 247 0 l 56 0 "},"":{"ha":604,"x_min":0,"x_max":0,"o":"m 293 -11 b 25 172 154 -11 57 61 l 207 243 b 292 164 218 194 246 164 b 364 249 340 164 364 200 l 364 828 l 556 828 l 556 261 b 293 -11 556 93 469 -11 "},"":{"ha":726,"x_min":0,"x_max":0,"o":"m 310 363 l 239 267 l 239 0 l 49 0 l 49 828 l 239 828 l 239 521 l 471 828 l 696 828 l 446 501 l 715 0 l 501 0 "},"":{"ha":551,"x_min":0,"x_max":0,"o":"m 49 828 l 239 828 l 239 182 l 514 182 l 514 0 l 49 0 "},"":{"ha":908,"x_min":0,"x_max":0,"o":"m 49 828 l 239 828 l 456 526 l 681 828 l 861 828 l 861 0 l 671 0 l 671 521 l 454 231 l 238 524 l 238 0 l 49 0 "},"":{"ha":800,"x_min":0,"x_max":0,"o":"m 49 828 l 254 828 l 563 339 l 563 828 l 751 828 l 751 0 l 561 0 l 238 511 l 238 0 l 49 0 "},"":{"ha":903,"x_min":0,"x_max":0,"o":"m 450 -11 b 28 414 214 -11 28 178 b 450 839 28 649 214 839 b 875 414 686 839 875 649 b 450 -11 875 178 688 -11 m 450 176 b 683 414 585 176 683 283 b 450 651 683 544 583 651 b 219 414 319 651 219 544 b 450 176 219 283 318 176 "},"":{"ha":672,"x_min":0,"x_max":0,"o":"m 49 828 l 331 828 b 644 526 521 828 644 692 b 329 221 644 361 521 221 l 239 221 l 239 0 l 49 0 m 239 653 l 239 397 l 324 397 b 453 525 397 397 453 450 b 324 653 453 600 397 653 "},"":{"ha":922,"x_min":0,"x_max":0,"o":"m 460 -11 b 38 414 224 -11 38 178 b 460 839 38 649 224 839 b 885 414 696 839 885 649 b 790 144 885 311 849 218 l 903 0 l 696 0 l 385 410 l 586 410 l 667 304 b 693 414 683 338 693 374 b 460 651 693 544 593 651 b 229 414 329 651 229 544 b 460 176 229 283 328 176 b 514 181 482 176 499 178 l 632 25 b 460 -11 581 0 526 -11 "},"":{"ha":678,"x_min":0,"x_max":0,"o":"m 49 828 l 338 828 b 650 544 536 828 650 700 b 494 301 650 440 597 347 l 674 0 l 458 0 l 238 394 l 238 0 l 49 0 m 238 653 l 238 425 l 324 425 b 454 542 414 425 454 485 b 324 653 454 614 413 653 "},"":{"ha":678,"x_min":0,"x_max":0,"o":"m 339 -11 b 10 139 178 -11 82 57 l 176 269 b 339 167 215 204 276 167 b 443 251 404 167 443 207 b 286 349 443 306 368 324 b 49 589 176 379 49 425 b 333 840 49 732 165 840 b 626 711 479 840 563 781 l 474 593 b 335 674 442 643 393 674 b 242 600 276 674 242 642 b 397 503 242 547 314 529 b 640 256 508 469 640 419 b 339 -11 640 117 531 -11 "},"":{"ha":685,"x_min":0,"x_max":0,"o":"m 251 650 l 42 650 l 42 828 l 643 828 l 643 650 l 436 650 l 436 0 l 251 0 "},"":{"ha":719,"x_min":0,"x_max":0,"o":"m 360 -11 b 49 300 172 -11 49 100 l 49 828 l 239 828 l 239 294 b 358 163 239 215 288 163 b 481 294 431 163 481 215 l 481 828 l 671 828 l 671 300 b 360 -11 671 100 547 -11 "},"":{"ha":779,"x_min":0,"x_max":0,"o":"m 25 828 l 222 828 l 392 297 l 557 828 l 753 828 l 490 0 l 293 0 "},"":{"ha":1179,"x_min":0,"x_max":0,"o":"m 25 828 l 218 828 l 351 311 l 499 828 l 688 828 l 833 310 l 967 828 l 1157 828 l 928 0 l 740 0 l 593 526 l 446 0 l 254 0 "},"":{"ha":747,"x_min":0,"x_max":0,"o":"m 374 253 l 226 0 l 18 0 l 268 421 l 28 828 l 236 828 l 376 588 l 515 828 l 724 828 l 481 421 l 731 0 l 522 0 "},"":{"ha":747,"x_min":0,"x_max":0,"o":"m 279 389 l 21 828 l 228 828 l 376 572 l 525 828 l 731 828 l 471 388 l 471 0 l 279 0 "},"":{"ha":631,"x_min":0,"x_max":0,"o":"m 42 175 l 367 651 l 49 651 l 49 828 l 589 828 l 589 657 l 260 176 l 589 176 l 589 0 l 42 0 "},"":{"ha":886,"x_min":0,"x_max":0,"o":"m 571 50 b 357 -12 507 11 435 -12 b 28 257 115 -12 28 124 b 157 485 28 356 82 435 b 121 614 135 524 121 565 b 369 839 121 742 219 839 b 625 688 511 839 585 769 l 442 608 b 375 669 432 643 410 669 b 314 614 340 669 314 646 b 458 421 314 565 342 540 l 590 289 b 649 413 617 326 638 369 l 518 413 l 518 588 l 838 588 l 838 503 b 708 171 838 393 789 269 l 876 0 l 622 0 m 357 150 b 450 169 389 150 419 157 l 307 314 b 267 353 293 328 279 340 b 214 258 231 329 214 301 b 357 150 214 199 267 150 "},"":{"ha":632,"x_min":0,"x_max":0,"o":"m 415 828 l 611 828 l 218 0 l 22 0 "},"":{"ha":632,"x_min":0,"x_max":0,"o":"m 22 828 l 218 828 l 611 0 l 415 0 "},"":{"ha":283,"x_min":0,"x_max":0,"o":"m 49 953 l 235 953 l 235 -136 l 49 -136 "},"":{"ha":446,"x_min":0,"x_max":0,"o":"m 347 -181 b 28 410 150 -47 28 146 b 335 985 28 674 146 849 l 449 832 b 225 410 318 744 225 600 b 453 -8 225 229 301 83 l 347 -181 "},"":{"ha":446,"x_min":0,"x_max":0,"o":"m -7 -8 b 221 410 144 83 221 229 b -3 832 221 600 128 744 l 111 985 b 418 410 300 849 418 674 b 99 -181 418 146 296 -47 "},"":{"ha":429,"x_min":0,"x_max":0,"o":"m 49 953 l 381 953 l 381 775 l 235 775 l 235 42 l 381 42 l 381 -136 l 49 -136 "},"":{"ha":429,"x_min":0,"x_max":0,"o":"m 49 42 l 194 42 l 194 775 l 49 775 l 49 953 l 381 953 l 381 -136 l 49 -136 "},"":{"ha":464,"x_min":0,"x_max":0,"o":"m 400 -136 b 146 110 204 -136 146 -79 l 146 207 b 49 318 146 300 136 318 l 49 490 b 146 601 136 490 146 510 l 146 707 b 400 953 146 893 204 953 l 415 953 l 415 781 b 328 700 340 781 328 767 l 328 600 b 251 404 328 499 311 436 b 328 208 311 371 328 310 l 328 115 b 415 35 328 50 340 35 l 415 -136 l 400 -136 "},"":{"ha":465,"x_min":0,"x_max":0,"o":"m 49 35 b 135 111 118 35 135 46 l 135 208 b 211 404 135 310 151 371 b 135 600 151 436 135 499 l 135 706 b 49 781 135 769 118 781 l 49 953 l 64 953 b 318 707 260 953 318 893 l 318 601 b 417 490 318 510 328 490 l 417 318 b 318 207 328 318 318 300 l 318 110 b 64 -136 318 -79 260 -136 l 49 -136 "},"":{"ha":807,"x_min":0,"x_max":0,"o":"m 311 828 l 496 828 l 781 0 l 588 0 l 546 126 l 260 126 l 218 0 l 26 0 m 499 1133 l 676 1133 l 468 897 l 340 897 m 318 300 l 488 300 l 403 556 "},"":{"ha":807,"x_min":0,"x_max":0,"o":"m 311 828 l 496 828 l 781 0 l 588 0 l 546 126 l 260 126 l 218 0 l 26 0 m 136 1133 l 314 1133 l 472 897 l 344 897 m 318 300 l 488 300 l 403 556 "},"":{"ha":807,"x_min":0,"x_max":0,"o":"m 311 828 l 496 828 l 781 0 l 588 0 l 546 126 l 260 126 l 218 0 l 26 0 m 344 1133 l 463 1133 l 628 897 l 485 897 l 403 1019 l 322 897 l 179 897 m 318 300 l 488 300 l 403 556 "},"":{"ha":807,"x_min":0,"x_max":0,"o":"m 311 828 l 496 828 l 781 0 l 588 0 l 546 126 l 260 126 l 218 0 l 26 0 m 439 1088 l 629 1088 l 629 897 l 439 897 m 179 1088 l 369 1088 l 369 897 l 179 897 m 318 300 l 488 300 l 403 556 "},"":{"ha":807,"x_min":0,"x_max":0,"o":"m 311 828 l 496 828 l 781 0 l 588 0 l 546 126 l 260 126 l 218 0 l 26 0 m 165 897 b 311 1085 165 1010 219 1085 b 417 1051 357 1085 389 1068 b 489 1018 443 1035 465 1018 b 526 1079 514 1018 526 1038 l 636 1079 b 490 892 636 965 588 892 b 369 933 436 892 400 915 b 311 957 349 946 331 957 b 275 897 286 957 275 939 l 165 897 m 318 300 l 488 300 l 403 556 "},"":{"ha":807,"x_min":0,"x_max":0,"o":"m 299 790 b 240 915 263 821 240 865 b 401 1079 240 1007 313 1079 b 565 915 493 1079 565 1007 b 507 792 565 865 543 822 l 781 0 l 588 0 l 546 126 l 260 126 l 218 0 l 26 0 m 318 300 l 488 300 l 403 556 m 401 861 b 458 915 432 861 458 886 b 401 972 458 946 432 972 b 347 915 372 972 347 946 b 401 861 347 886 372 861 "},"":{"ha":807,"x_min":0,"x_max":0,"o":"m 311 828 l 496 828 l 781 0 l 588 0 l 546 126 l 260 126 l 218 0 l 26 0 m 221 1017 l 588 1017 l 588 897 l 221 897 m 318 300 l 488 300 l 403 556 "},"":{"ha":807,"x_min":0,"x_max":0,"o":"m 311 828 l 496 828 l 781 0 l 588 0 l 546 126 l 260 126 l 218 0 l 26 0 m 400 886 b 176 1122 247 886 176 988 l 296 1122 b 400 989 296 1033 333 992 b 504 1122 467 992 504 1033 l 625 1122 b 400 886 625 988 539 886 m 318 300 l 488 300 l 403 556 "},"":{"ha":807,"x_min":0,"x_max":0,"o":"m 658 -315 b 458 -164 539 -315 458 -249 b 583 11 458 -104 486 -50 l 546 126 l 260 126 l 218 0 l 26 0 l 311 828 l 496 828 l 781 0 b 600 -157 629 -100 600 -121 b 658 -199 600 -187 628 -199 b 742 -160 696 -199 717 -179 l 853 -235 b 658 -315 803 -279 725 -315 m 318 300 l 488 300 l 403 556 "},"":{"ha":807,"x_min":0,"x_max":0,"o":"m 299 790 b 240 915 263 821 240 865 b 401 1079 240 1007 313 1079 b 565 915 493 1079 565 1007 b 507 792 565 865 543 822 l 781 0 l 588 0 l 546 126 l 260 126 l 218 0 l 26 0 m 496 1374 l 674 1374 l 465 1138 l 338 1138 m 318 300 l 488 300 l 403 556 m 401 861 b 458 915 432 861 458 886 b 401 972 458 946 432 972 b 347 915 372 972 347 946 b 401 861 347 886 372 861 "},"":{"ha":1088,"x_min":0,"x_max":0,"o":"m 393 828 l 1046 828 l 1046 650 l 632 650 l 658 504 l 1046 504 l 1046 326 l 690 326 l 717 178 l 1046 178 l 1046 0 l 556 0 l 535 118 l 275 118 l 222 0 l 17 0 m 351 290 l 504 290 l 461 538 "},"":{"ha":1088,"x_min":0,"x_max":0,"o":"m 393 828 l 1046 828 l 1046 650 l 632 650 l 658 504 l 1046 504 l 1046 326 l 690 326 l 717 178 l 1046 178 l 1046 0 l 556 0 l 535 118 l 275 118 l 222 0 l 17 0 m 739 1133 l 917 1133 l 708 897 l 581 897 m 351 290 l 504 290 l 461 538 "},"":{"ha":863,"x_min":0,"x_max":0,"o":"m 465 -11 b 38 414 213 -11 38 178 b 467 839 38 654 217 839 b 832 635 622 839 760 757 l 668 532 b 465 653 631 604 556 653 b 231 414 326 653 231 544 b 461 176 231 283 325 176 b 667 313 560 176 631 232 l 843 224 b 465 -11 772 86 642 -11 m 557 1133 l 735 1133 l 526 897 l 399 897 "},"":{"ha":863,"x_min":0,"x_max":0,"o":"m 465 -11 b 38 414 213 -11 38 178 b 467 839 38 654 217 839 b 832 635 622 839 760 757 l 668 532 b 465 653 631 604 556 653 b 231 414 326 653 231 544 b 461 176 231 283 325 176 b 667 313 560 176 631 232 l 843 224 b 465 -11 772 86 642 -11 m 410 1133 l 528 1133 l 693 897 l 550 897 l 468 1019 l 388 897 l 244 897 "},"":{"ha":863,"x_min":0,"x_max":0,"o":"m 465 -11 b 38 414 213 -11 38 178 b 467 839 38 654 217 839 b 832 635 622 839 760 757 l 668 532 b 465 653 631 604 556 653 b 231 414 326 653 231 544 b 461 176 231 283 325 176 b 667 313 560 176 631 232 l 843 224 b 465 -11 772 86 642 -11 m 244 1133 l 388 1133 l 468 1011 l 550 1133 l 693 1133 l 528 897 l 410 897 "},"":{"ha":863,"x_min":0,"x_max":0,"o":"m 451 -333 b 253 -251 379 -333 306 -299 l 361 -186 b 467 -232 393 -211 419 -232 b 542 -190 507 -232 542 -214 b 463 -153 542 -165 515 -153 l 392 -153 l 392 -6 b 38 414 179 26 38 201 b 467 839 38 654 217 839 b 832 635 622 839 760 757 l 668 532 b 465 653 631 604 556 653 b 231 414 326 653 231 544 b 461 176 231 283 325 176 b 667 313 560 176 631 232 l 843 224 b 510 -8 778 97 664 6 l 510 -74 b 669 -185 614 -69 669 -117 b 451 -333 669 -271 574 -333 "},"":{"ha":863,"x_min":0,"x_max":0,"o":"m 465 -11 b 38 414 213 -11 38 178 b 467 839 38 654 217 839 b 832 635 622 839 760 757 l 668 532 b 465 653 631 604 556 653 b 231 414 326 653 231 544 b 461 176 231 283 325 176 b 667 313 560 176 631 232 l 843 224 b 465 -11 772 86 642 -11 m 374 1088 l 564 1088 l 564 897 l 374 897 "},"":{"ha":761,"x_min":0,"x_max":0,"o":"m 49 828 l 292 828 b 724 414 554 828 724 649 b 296 0 724 178 543 0 l 49 0 m 238 651 l 238 176 l 286 176 b 533 414 436 176 533 281 b 281 651 533 549 446 651 m 117 1133 l 260 1133 l 340 1011 l 422 1133 l 565 1133 l 400 897 l 282 897 "},"":{"ha":811,"x_min":0,"x_max":0,"o":"m 28 492 l 97 492 l 97 828 l 342 828 b 774 414 603 828 774 649 b 346 0 774 178 593 0 l 97 0 l 97 336 l 28 336 m 288 336 l 288 176 l 335 176 b 582 414 486 176 582 281 b 331 651 582 549 496 651 l 288 651 l 288 492 l 450 492 l 450 336 "},"":{"ha":811,"x_min":0,"x_max":0,"o":"m 28 492 l 97 492 l 97 828 l 342 828 b 774 414 603 828 774 649 b 346 0 774 178 593 0 l 97 0 l 97 336 l 28 336 m 288 336 l 288 176 l 335 176 b 582 414 486 176 582 281 b 331 651 582 549 496 651 l 288 651 l 288 492 l 450 492 l 450 336 "},"":{"ha":581,"x_min":0,"x_max":0,"o":"m 49 828 l 539 828 l 539 650 l 238 650 l 238 504 l 539 504 l 539 326 l 238 326 l 238 178 l 539 178 l 539 0 l 49 0 m 381 1133 l 558 1133 l 350 897 l 222 897 "},"":{"ha":581,"x_min":0,"x_max":0,"o":"m 49 828 l 539 828 l 539 650 l 238 650 l 238 504 l 539 504 l 539 326 l 238 326 l 238 178 l 539 178 l 539 0 l 49 0 m 53 1133 l 231 1133 l 389 897 l 261 897 "},"":{"ha":581,"x_min":0,"x_max":0,"o":"m 49 828 l 539 828 l 539 650 l 238 650 l 238 504 l 539 504 l 539 326 l 238 326 l 238 178 l 539 178 l 539 0 l 49 0 m 239 1133 l 357 1133 l 522 897 l 379 897 l 297 1019 l 217 897 l 74 897 "},"":{"ha":581,"x_min":0,"x_max":0,"o":"m 49 828 l 539 828 l 539 650 l 238 650 l 238 504 l 539 504 l 539 326 l 238 326 l 238 178 l 539 178 l 539 0 l 49 0 m 331 1088 l 521 1088 l 521 897 l 331 897 m 71 1088 l 261 1088 l 261 897 l 71 897 "},"":{"ha":581,"x_min":0,"x_max":0,"o":"m 49 828 l 539 828 l 539 650 l 238 650 l 238 504 l 539 504 l 539 326 l 238 326 l 238 178 l 539 178 l 539 0 l 49 0 m 79 1133 l 222 1133 l 303 1011 l 385 1133 l 528 1133 l 363 897 l 244 897 "},"":{"ha":581,"x_min":0,"x_max":0,"o":"m 49 828 l 539 828 l 539 650 l 238 650 l 238 504 l 539 504 l 539 326 l 238 326 l 238 178 l 539 178 l 539 0 l 49 0 m 115 1017 l 482 1017 l 482 897 l 115 897 "},"":{"ha":581,"x_min":0,"x_max":0,"o":"m 49 828 l 539 828 l 539 650 l 238 650 l 238 504 l 539 504 l 539 326 l 238 326 l 238 178 l 539 178 l 539 0 l 49 0 m 310 886 b 86 1122 157 886 86 988 l 206 1122 b 310 989 206 1033 243 992 b 414 1122 376 992 414 1033 l 535 1122 b 310 886 535 988 449 886 "},"":{"ha":581,"x_min":0,"x_max":0,"o":"m 49 828 l 539 828 l 539 650 l 238 650 l 238 504 l 539 504 l 539 326 l 238 326 l 238 178 l 539 178 l 539 0 b 358 -157 388 -100 358 -121 b 417 -199 358 -187 386 -199 b 500 -160 454 -199 475 -179 l 611 -235 b 417 -315 561 -279 483 -315 b 217 -164 297 -315 217 -249 b 324 0 217 -108 242 -57 l 49 0 "},"":{"ha":581,"x_min":0,"x_max":0,"o":"m 49 828 l 539 828 l 539 650 l 238 650 l 238 504 l 539 504 l 539 326 l 238 326 l 238 178 l 539 178 l 539 0 l 49 0 m 201 1088 l 392 1088 l 392 897 l 201 897 "},"":{"ha":893,"x_min":0,"x_max":0,"o":"m 461 -11 b 28 414 193 -11 28 185 b 453 839 28 653 204 839 b 829 632 626 839 758 753 l 663 538 b 454 657 622 614 549 657 b 217 414 322 657 217 553 b 458 169 217 271 317 169 b 657 307 557 169 629 221 l 421 307 l 421 485 l 863 485 l 863 397 b 461 -11 863 176 703 -11 m 401 1133 l 519 1133 l 685 897 l 542 897 l 460 1019 l 379 897 l 236 897 "},"":{"ha":893,"x_min":0,"x_max":0,"o":"m 461 -11 b 28 414 193 -11 28 185 b 453 839 28 653 204 839 b 829 632 626 839 758 753 l 663 538 b 454 657 622 614 549 657 b 217 414 322 657 217 553 b 458 169 217 271 317 169 b 657 307 557 169 629 221 l 421 307 l 421 485 l 863 485 l 863 397 b 461 -11 863 176 703 -11 m 460 886 b 236 1122 307 886 236 988 l 356 1122 b 460 989 356 1033 393 992 b 564 1122 526 992 564 1033 l 685 1122 b 460 886 685 988 599 886 "},"":{"ha":893,"x_min":0,"x_max":0,"o":"m 461 -11 b 28 414 193 -11 28 185 b 453 839 28 653 204 839 b 829 632 626 839 758 753 l 663 538 b 454 657 622 614 549 657 b 217 414 322 657 217 553 b 458 169 217 271 317 169 b 657 307 557 169 629 221 l 421 307 l 421 485 l 863 485 l 863 397 b 461 -11 863 176 703 -11 m 364 1088 l 554 1088 l 554 897 l 364 897 "},"":{"ha":893,"x_min":0,"x_max":0,"o":"m 461 -11 b 28 414 193 -11 28 185 b 453 839 28 653 204 839 b 829 632 626 839 758 753 l 663 538 b 454 657 622 614 549 657 b 217 414 322 657 217 553 b 458 169 217 271 317 169 b 657 307 557 169 629 221 l 421 307 l 421 485 l 863 485 l 863 397 b 461 -11 863 176 703 -11 m 326 -346 l 374 -62 l 542 -62 l 444 -346 "},"":{"ha":757,"x_min":0,"x_max":0,"o":"m 504 294 l 253 294 l 253 0 l 63 0 l 63 560 l 14 560 l 14 747 l 63 747 l 63 828 l 253 828 l 253 747 l 504 747 l 504 828 l 694 828 l 694 747 l 742 747 l 742 560 l 694 560 l 694 0 l 504 0 m 253 482 l 504 482 l 504 560 l 253 560 "},"":{"ha":729,"x_min":0,"x_max":0,"o":"m 490 322 l 239 322 l 239 0 l 49 0 l 49 828 l 239 828 l 239 510 l 490 510 l 490 828 l 681 828 l 681 0 l 490 0 m 307 1133 l 425 1133 l 590 897 l 447 897 l 365 1019 l 285 897 l 142 897 "},"":{"ha":303,"x_min":0,"x_max":0,"o":"m 243 1133 l 421 1133 l 213 897 l 85 897 m 56 828 l 247 828 l 247 0 l 56 0 "},"":{"ha":303,"x_min":0,"x_max":0,"o":"m -115 1133 l 63 1133 l 221 897 l 93 897 m 56 828 l 247 828 l 247 0 l 56 0 "},"":{"ha":303,"x_min":0,"x_max":0,"o":"m 56 828 l 247 828 l 247 0 l 56 0 m 107 1133 l 225 1133 l 390 897 l 247 897 l 165 1019 l 85 897 l -58 897 "},"":{"ha":303,"x_min":0,"x_max":0,"o":"m 232 1088 l 422 1088 l 422 897 l 232 897 m -90 1088 l 100 1088 l 100 897 l -90 897 m 56 828 l 247 828 l 247 0 l 56 0 "},"":{"ha":303,"x_min":0,"x_max":0,"o":"m -72 897 b 74 1085 -72 1010 -18 1085 b 179 1051 119 1085 151 1068 b 251 1018 206 1035 228 1018 b 289 1079 276 1018 289 1038 l 399 1079 b 253 892 399 965 350 892 b 132 933 199 892 163 915 b 74 957 111 946 93 957 b 38 897 49 957 38 939 l -72 897 m 56 828 l 247 828 l 247 0 l 56 0 "},"":{"ha":303,"x_min":0,"x_max":0,"o":"m -33 1017 l 333 1017 l 333 897 l -33 897 m 56 828 l 247 828 l 247 0 l 56 0 "},"":{"ha":303,"x_min":0,"x_max":0,"o":"m 151 886 b -72 1122 -1 886 -72 988 l 47 1122 b 151 989 47 1033 85 992 b 256 1122 218 992 256 1033 l 376 1122 b 151 886 376 988 290 886 m 56 828 l 247 828 l 247 0 l 56 0 "},"":{"ha":303,"x_min":0,"x_max":0,"o":"m 144 -319 b -39 -169 38 -319 -37 -256 b 56 4 -40 -99 -4 -46 l 56 828 l 247 828 l 247 0 b 100 -154 140 -64 100 -122 b 151 -200 100 -185 122 -200 b 221 -157 179 -200 203 -179 l 332 -233 b 144 -319 283 -285 226 -319 "},"":{"ha":604,"x_min":0,"x_max":0,"o":"m 293 -11 b 25 172 154 -11 57 61 l 207 243 b 292 164 218 194 246 164 b 364 249 340 164 364 200 l 364 828 l 556 828 l 556 261 b 293 -11 556 93 469 -11 m 400 1133 l 518 1133 l 683 897 l 540 897 l 458 1019 l 378 897 l 235 897 "},"":{"ha":726,"x_min":0,"x_max":0,"o":"m 310 363 l 239 267 l 239 0 l 49 0 l 49 828 l 239 828 l 239 521 l 471 828 l 696 828 l 446 501 l 715 0 l 501 0 m 235 -339 l 282 -56 l 450 -56 l 353 -339 "},"":{"ha":551,"x_min":0,"x_max":0,"o":"m 49 828 l 239 828 l 239 182 l 514 182 l 514 0 l 49 0 m 235 1133 l 413 1133 l 204 897 l 76 897 "},"":{"ha":551,"x_min":0,"x_max":0,"o":"m 49 828 l 239 828 l 239 182 l 514 182 l 514 0 l 49 0 m 371 828 l 525 828 l 456 592 l 338 592 "},"":{"ha":551,"x_min":0,"x_max":0,"o":"m 49 828 l 239 828 l 239 182 l 514 182 l 514 0 l 49 0 m 151 -353 l 199 -69 l 367 -69 l 269 -353 "},"":{"ha":550,"x_min":0,"x_max":0,"o":"m 49 828 l 239 828 l 239 182 l 513 182 l 513 0 l 49 0 m 322 532 l 513 532 l 513 342 l 322 342 "},"":{"ha":600,"x_min":0,"x_max":0,"o":"m 17 456 l 97 479 l 97 828 l 288 828 l 288 533 l 471 588 l 471 450 l 288 396 l 288 182 l 563 182 l 563 0 l 97 0 l 97 342 l 17 318 "},"":{"ha":800,"x_min":0,"x_max":0,"o":"m 49 828 l 254 828 l 563 339 l 563 828 l 751 828 l 751 0 l 561 0 l 238 511 l 238 0 l 49 0 m 501 1133 l 679 1133 l 471 897 l 343 897 "},"":{"ha":800,"x_min":0,"x_max":0,"o":"m 49 828 l 254 828 l 563 339 l 563 828 l 751 828 l 751 0 l 561 0 l 238 511 l 238 0 l 49 0 m 171 897 b 317 1085 171 1010 225 1085 b 422 1051 363 1085 394 1068 b 494 1018 449 1035 471 1018 b 532 1079 519 1018 532 1038 l 642 1079 b 496 892 642 965 593 892 b 375 933 442 892 406 915 b 317 957 354 946 336 957 b 281 897 292 957 281 939 l 171 897 "},"":{"ha":800,"x_min":0,"x_max":0,"o":"m 49 828 l 254 828 l 563 339 l 563 828 l 751 828 l 751 0 l 561 0 l 238 511 l 238 0 l 49 0 m 185 1122 l 328 1122 l 408 1000 l 490 1122 l 633 1122 l 468 886 l 350 886 "},"":{"ha":800,"x_min":0,"x_max":0,"o":"m 49 828 l 254 828 l 563 339 l 563 828 l 751 828 l 751 0 l 561 0 l 238 511 l 238 0 l 49 0 m 282 -353 l 329 -69 l 497 -69 l 400 -353 "},"":{"ha":903,"x_min":0,"x_max":0,"o":"m 450 -11 b 28 414 214 -11 28 178 b 450 839 28 649 214 839 b 875 414 686 839 875 649 b 450 -11 875 178 688 -11 m 450 176 b 683 414 585 176 683 283 b 450 651 683 544 583 651 b 219 414 319 651 219 544 b 450 176 219 283 318 176 m 542 1133 l 719 1133 l 511 897 l 383 897 "},"":{"ha":903,"x_min":0,"x_max":0,"o":"m 450 -11 b 28 414 214 -11 28 178 b 450 839 28 649 214 839 b 875 414 686 839 875 649 b 450 -11 875 178 688 -11 m 450 176 b 683 414 585 176 683 283 b 450 651 683 544 583 651 b 219 414 319 651 219 544 b 450 176 219 283 318 176 m 199 1133 l 376 1133 l 535 897 l 407 897 "},"":{"ha":903,"x_min":0,"x_max":0,"o":"m 450 -11 b 28 414 214 -11 28 178 b 450 839 28 649 214 839 b 875 414 686 839 875 649 b 450 -11 875 178 688 -11 m 450 176 b 683 414 585 176 683 283 b 450 651 683 544 583 651 b 219 414 319 651 219 544 b 450 176 219 283 318 176 m 392 1133 l 510 1133 l 675 897 l 532 897 l 450 1019 l 369 897 l 226 897 "},"":{"ha":903,"x_min":0,"x_max":0,"o":"m 450 -11 b 28 414 214 -11 28 178 b 450 839 28 649 214 839 b 875 414 686 839 875 649 b 450 -11 875 178 688 -11 m 450 176 b 683 414 585 176 683 283 b 450 651 683 544 583 651 b 219 414 319 651 219 544 b 450 176 219 283 318 176 m 486 1088 l 676 1088 l 676 897 l 486 897 m 226 1088 l 417 1088 l 417 897 l 226 897 "},"":{"ha":903,"x_min":0,"x_max":0,"o":"m 450 -11 b 28 414 214 -11 28 178 b 450 839 28 649 214 839 b 875 414 686 839 875 649 b 450 -11 875 178 688 -11 m 450 176 b 683 414 585 176 683 283 b 450 651 683 544 583 651 b 219 414 319 651 219 544 b 450 176 219 283 318 176 m 231 897 b 376 1085 231 1010 285 1085 b 482 1051 422 1085 454 1068 b 554 1018 508 1035 531 1018 b 592 1079 579 1018 592 1038 l 701 1079 b 556 892 701 965 653 892 b 435 933 501 892 465 915 b 376 957 414 946 396 957 b 340 897 351 957 340 939 l 231 897 "},"":{"ha":903,"x_min":0,"x_max":0,"o":"m 450 -11 b 28 414 214 -11 28 178 b 450 839 28 649 214 839 b 875 414 686 839 875 649 b 450 -11 875 178 688 -11 m 450 176 b 683 414 585 176 683 283 b 450 651 683 544 583 651 b 219 414 319 651 219 544 b 450 176 219 283 318 176 m 450 886 b 226 1122 297 886 226 988 l 346 1122 b 450 989 346 1033 383 992 b 554 1122 517 992 554 1033 l 675 1122 b 450 886 675 988 589 886 "},"":{"ha":903,"x_min":0,"x_max":0,"o":"m 450 -11 b 28 414 214 -11 28 178 b 450 839 28 649 214 839 b 875 414 686 839 875 649 b 450 -11 875 178 688 -11 m 450 176 b 683 414 585 176 683 283 b 450 651 683 544 583 651 b 219 414 319 651 219 544 b 450 176 219 283 318 176 m 267 1017 l 633 1017 l 633 897 l 267 897 "},"":{"ha":903,"x_min":0,"x_max":0,"o":"m 450 -11 b 28 414 214 -11 28 178 b 450 839 28 649 214 839 b 875 414 686 839 875 649 b 450 -11 875 178 688 -11 m 450 176 b 683 414 585 176 683 283 b 450 651 683 544 583 651 b 219 414 319 651 219 544 b 450 176 219 283 318 176 m 425 1129 l 593 1129 l 385 893 l 267 893 m 657 1129 l 825 1129 l 617 893 l 499 893 "},"":{"ha":903,"x_min":0,"x_max":0,"o":"m 450 -11 b 249 39 376 -11 308 7 l 217 0 l 4 0 l 122 143 b 28 414 63 217 28 310 b 450 839 28 649 214 839 b 656 786 525 839 594 819 l 690 828 l 903 828 l 781 681 b 875 414 839 607 875 515 b 450 -11 875 178 688 -11 m 219 414 b 249 296 219 371 231 331 l 532 636 b 450 651 507 646 479 651 b 219 414 319 651 219 544 m 450 176 b 683 414 585 176 683 283 b 654 529 683 456 672 494 l 374 189 b 450 176 397 181 422 176 "},"":{"ha":903,"x_min":0,"x_max":0,"o":"m 450 -11 b 249 39 376 -11 308 7 l 217 0 l 4 0 l 122 143 b 28 414 63 217 28 310 b 450 839 28 649 214 839 b 656 786 525 839 594 819 l 690 828 l 903 828 l 781 681 b 875 414 839 607 875 515 b 450 -11 875 178 688 -11 m 219 414 b 249 296 219 371 231 331 l 532 636 b 450 651 507 646 479 651 b 219 414 319 651 219 544 m 450 176 b 683 414 585 176 683 283 b 654 529 683 456 672 494 l 374 189 b 450 176 397 181 422 176 m 533 1133 l 711 1133 l 503 897 l 375 897 "},"":{"ha":1221,"x_min":0,"x_max":0,"o":"m 689 71 b 450 -11 625 19 544 -11 b 28 414 214 -11 28 178 b 450 839 28 649 214 839 b 689 756 544 839 625 808 l 689 828 l 1179 828 l 1179 650 l 878 650 l 878 504 l 1179 504 l 1179 326 l 878 326 l 878 178 l 1179 178 l 1179 0 l 689 0 m 450 176 b 683 414 585 176 683 283 b 450 651 683 544 583 651 b 219 414 319 651 219 544 b 450 176 219 283 318 176 "},"":{"ha":642,"x_min":0,"x_max":0,"o":"m 49 828 l 239 828 l 239 694 l 328 694 b 614 418 506 694 614 568 b 326 140 614 267 510 140 l 239 140 l 239 0 l 49 0 m 239 518 l 239 317 l 326 317 b 429 417 385 317 429 358 b 326 518 429 478 385 518 "},"":{"ha":678,"x_min":0,"x_max":0,"o":"m 49 828 l 338 828 b 650 544 536 828 650 700 b 494 301 650 440 597 347 l 674 0 l 458 0 l 238 394 l 238 0 l 49 0 m 238 653 l 238 425 l 324 425 b 454 542 414 425 454 485 b 324 653 454 614 413 653 m 394 1133 l 572 1133 l 364 897 l 236 897 "},"":{"ha":678,"x_min":0,"x_max":0,"o":"m 49 828 l 338 828 b 650 544 536 828 650 700 b 494 301 650 440 597 347 l 674 0 l 458 0 l 238 394 l 238 0 l 49 0 m 104 1133 l 247 1133 l 328 1011 l 410 1133 l 553 1133 l 388 897 l 269 897 m 238 653 l 238 425 l 324 425 b 454 542 414 425 454 485 b 324 653 454 614 413 653 "},"":{"ha":678,"x_min":0,"x_max":0,"o":"m 49 828 l 338 828 b 650 544 536 828 650 700 b 494 301 650 440 597 347 l 674 0 l 458 0 l 238 394 l 238 0 l 49 0 m 238 653 l 238 425 l 324 425 b 454 542 414 425 454 485 b 324 653 454 614 413 653 m 211 -350 l 258 -67 l 426 -67 l 329 -350 "},"":{"ha":678,"x_min":0,"x_max":0,"o":"m 339 -11 b 10 139 178 -11 82 57 l 176 269 b 339 167 215 204 276 167 b 443 251 404 167 443 207 b 286 349 443 306 368 324 b 49 589 176 379 49 425 b 333 840 49 732 165 840 b 626 711 479 840 563 781 l 474 593 b 335 674 442 643 393 674 b 242 600 276 674 242 642 b 397 503 242 547 314 529 b 640 256 508 469 640 419 b 339 -11 640 117 531 -11 m 425 1133 l 603 1133 l 394 897 l 267 897 "},"":{"ha":678,"x_min":0,"x_max":0,"o":"m 339 -11 b 10 139 178 -11 82 57 l 176 269 b 339 167 215 204 276 167 b 443 251 404 167 443 207 b 286 349 443 306 368 324 b 49 589 176 379 49 425 b 333 840 49 732 165 840 b 626 711 479 840 563 781 l 474 593 b 335 674 442 643 393 674 b 242 600 276 674 242 642 b 397 503 242 547 314 529 b 640 256 508 469 640 419 b 339 -11 640 117 531 -11 m 289 1133 l 407 1133 l 572 897 l 429 897 l 347 1019 l 267 897 l 124 897 "},"":{"ha":678,"x_min":0,"x_max":0,"o":"m 339 -11 b 10 139 178 -11 82 57 l 176 269 b 339 167 215 204 276 167 b 443 251 404 167 443 207 b 286 349 443 306 368 324 b 49 589 176 379 49 425 b 333 840 49 732 165 840 b 626 711 479 840 563 781 l 474 593 b 335 674 442 643 393 674 b 242 600 276 674 242 642 b 397 503 242 547 314 529 b 640 256 508 469 640 419 b 339 -11 640 117 531 -11 m 125 1133 l 268 1133 l 349 1011 l 431 1133 l 574 1133 l 408 897 l 290 897 "},"":{"ha":678,"x_min":0,"x_max":0,"o":"m 325 -333 b 126 -251 253 -333 179 -299 l 235 -186 b 340 -232 267 -211 293 -232 b 415 -190 381 -232 415 -214 b 336 -153 415 -165 389 -153 l 265 -153 l 265 -6 b 10 139 147 11 69 69 l 176 269 b 339 167 215 204 276 167 b 443 251 404 167 443 207 b 286 349 443 306 368 324 b 49 589 176 379 49 425 b 333 840 49 732 165 840 b 626 711 479 840 563 781 l 474 593 b 335 674 442 643 393 674 b 242 600 276 674 242 642 b 397 503 242 547 314 529 b 640 256 508 469 640 419 b 383 -8 640 128 547 8 l 383 -74 b 543 -185 488 -69 543 -117 b 325 -333 543 -271 447 -333 "},"":{"ha":678,"x_min":0,"x_max":0,"o":"m 339 -11 b 10 139 178 -11 82 57 l 176 269 b 339 167 215 204 276 167 b 443 251 404 167 443 207 b 286 349 443 306 368 324 b 49 589 176 379 49 425 b 333 840 49 732 165 840 b 626 711 479 840 563 781 l 474 593 b 335 674 442 643 393 674 b 242 600 276 674 242 642 b 397 503 242 547 314 529 b 640 256 508 469 640 419 b 339 -11 640 117 531 -11 m 208 -346 l 256 -62 l 424 -62 l 326 -346 "},"":{"ha":685,"x_min":0,"x_max":0,"o":"m 254 650 l 44 650 l 44 828 l 646 828 l 646 650 l 439 650 l 439 0 l 254 0 m 214 -367 l 261 -83 l 429 -83 l 332 -367 "},"":{"ha":685,"x_min":0,"x_max":0,"o":"m 254 650 l 44 650 l 44 828 l 646 828 l 646 650 l 439 650 l 439 0 l 254 0 m 121 1133 l 264 1133 l 344 1011 l 426 1133 l 569 1133 l 404 897 l 286 897 "},"":{"ha":719,"x_min":0,"x_max":0,"o":"m 360 -11 b 49 300 172 -11 49 100 l 49 828 l 239 828 l 239 294 b 358 163 239 215 288 163 b 481 294 431 163 481 215 l 481 828 l 671 828 l 671 300 b 360 -11 671 100 547 -11 m 435 1133 l 613 1133 l 404 897 l 276 897 "},"":{"ha":719,"x_min":0,"x_max":0,"o":"m 360 -11 b 49 300 172 -11 49 100 l 49 828 l 239 828 l 239 294 b 358 163 239 215 288 163 b 481 294 431 163 481 215 l 481 828 l 671 828 l 671 300 b 360 -11 671 100 547 -11 m 90 1129 l 268 1129 l 426 893 l 299 893 "},"":{"ha":719,"x_min":0,"x_max":0,"o":"m 360 -11 b 49 300 172 -11 49 100 l 49 828 l 239 828 l 239 294 b 358 163 239 215 288 163 b 481 294 431 163 481 215 l 481 828 l 671 828 l 671 300 b 360 -11 671 100 547 -11 m 304 1133 l 422 1133 l 588 897 l 444 897 l 363 1019 l 282 897 l 139 897 "},"":{"ha":719,"x_min":0,"x_max":0,"o":"m 360 -11 b 49 300 172 -11 49 100 l 49 828 l 239 828 l 239 294 b 358 163 239 215 288 163 b 481 294 431 163 481 215 l 481 828 l 671 828 l 671 300 b 360 -11 671 100 547 -11 m 397 1088 l 588 1088 l 588 897 l 397 897 m 138 1088 l 328 1088 l 328 897 l 138 897 "},"":{"ha":719,"x_min":0,"x_max":0,"o":"m 360 -11 b 49 300 172 -11 49 100 l 49 828 l 239 828 l 239 294 b 358 163 239 215 288 163 b 481 294 431 163 481 215 l 481 828 l 671 828 l 671 300 b 360 -11 671 100 547 -11 m 122 897 b 268 1085 122 1010 176 1085 b 374 1051 314 1085 346 1068 b 446 1018 400 1035 422 1018 b 483 1079 471 1018 483 1038 l 593 1079 b 447 892 593 965 544 892 b 326 933 393 892 357 915 b 268 957 306 946 288 957 b 232 897 243 957 232 939 l 122 897 "},"":{"ha":719,"x_min":0,"x_max":0,"o":"m 360 -11 b 49 300 172 -11 49 100 l 49 828 l 239 828 l 239 294 b 358 163 239 215 288 163 b 481 294 431 163 481 215 l 481 828 l 671 828 l 671 300 b 360 -11 671 100 547 -11 m 360 883 b 199 1044 271 883 199 956 b 360 1208 199 1136 271 1208 b 524 1044 451 1208 524 1136 b 360 883 524 956 451 883 m 360 990 b 417 1044 390 990 417 1015 b 360 1101 417 1075 390 1101 b 306 1044 331 1101 306 1075 b 360 990 306 1015 331 990 "},"":{"ha":719,"x_min":0,"x_max":0,"o":"m 360 -11 b 49 300 172 -11 49 100 l 49 828 l 239 828 l 239 294 b 358 163 239 215 288 163 b 481 294 431 163 481 215 l 481 828 l 671 828 l 671 300 b 360 -11 671 100 547 -11 m 363 883 b 139 1119 210 883 139 985 l 258 1119 b 363 986 258 1031 296 989 b 467 1119 429 989 467 1031 l 588 1119 b 363 883 588 985 501 883 "},"":{"ha":719,"x_min":0,"x_max":0,"o":"m 360 -11 b 49 300 172 -11 49 100 l 49 828 l 239 828 l 239 294 b 358 163 239 215 288 163 b 481 294 431 163 481 215 l 481 828 l 671 828 l 671 300 b 360 -11 671 100 547 -11 m 179 1017 l 546 1017 l 546 897 l 179 897 "},"":{"ha":719,"x_min":0,"x_max":0,"o":"m 360 -11 b 49 300 172 -11 49 100 l 49 828 l 239 828 l 239 294 b 358 163 239 215 288 163 b 481 294 431 163 481 215 l 481 828 l 671 828 l 671 300 b 360 -11 671 100 547 -11 m 326 1133 l 494 1133 l 286 897 l 168 897 m 558 1133 l 726 1133 l 518 897 l 400 897 "},"":{"ha":719,"x_min":0,"x_max":0,"o":"m 386 -294 b 186 -143 267 -294 186 -228 b 265 0 186 -94 206 -49 b 49 300 132 32 49 136 l 49 828 l 239 828 l 239 294 b 358 163 239 215 288 163 b 481 294 431 163 481 215 l 481 828 l 671 828 l 671 300 b 496 13 671 154 604 56 b 328 -136 356 -79 328 -100 b 386 -178 328 -167 356 -178 b 469 -139 424 -178 444 -158 l 581 -214 b 386 -294 531 -258 453 -294 "},"":{"ha":1179,"x_min":0,"x_max":0,"o":"m 25 828 l 218 828 l 351 311 l 499 828 l 688 828 l 833 310 l 967 828 l 1157 828 l 928 0 l 740 0 l 593 526 l 446 0 l 254 0 m 688 1133 l 865 1133 l 657 897 l 529 897 "},"":{"ha":1179,"x_min":0,"x_max":0,"o":"m 25 828 l 218 828 l 351 311 l 499 828 l 688 828 l 833 310 l 967 828 l 1157 828 l 928 0 l 740 0 l 593 526 l 446 0 l 254 0 m 322 1133 l 500 1133 l 658 897 l 531 897 "},"":{"ha":1179,"x_min":0,"x_max":0,"o":"m 25 828 l 218 828 l 351 311 l 499 828 l 688 828 l 833 310 l 967 828 l 1157 828 l 928 0 l 740 0 l 593 526 l 446 0 l 254 0 m 536 1128 l 654 1128 l 819 892 l 676 892 l 594 1014 l 514 892 l 371 892 "},"":{"ha":1179,"x_min":0,"x_max":0,"o":"m 25 828 l 218 828 l 351 311 l 499 828 l 688 828 l 833 310 l 967 828 l 1157 828 l 928 0 l 740 0 l 593 526 l 446 0 l 254 0 m 629 1088 l 819 1088 l 819 897 l 629 897 m 369 1088 l 560 1088 l 560 897 l 369 897 "},"":{"ha":747,"x_min":0,"x_max":0,"o":"m 279 389 l 21 828 l 228 828 l 376 572 l 525 828 l 731 828 l 471 388 l 471 0 l 279 0 m 464 1122 l 642 1122 l 433 886 l 306 886 "},"":{"ha":747,"x_min":0,"x_max":0,"o":"m 279 389 l 21 828 l 228 828 l 376 572 l 525 828 l 731 828 l 471 388 l 471 0 l 279 0 m 106 1122 l 283 1122 l 442 886 l 314 886 "},"":{"ha":747,"x_min":0,"x_max":0,"o":"m 279 389 l 21 828 l 228 828 l 376 572 l 525 828 l 731 828 l 471 388 l 471 0 l 279 0 m 317 1133 l 435 1133 l 600 897 l 457 897 l 375 1019 l 294 897 l 151 897 "},"":{"ha":747,"x_min":0,"x_max":0,"o":"m 279 389 l 21 828 l 228 828 l 376 572 l 525 828 l 731 828 l 471 388 l 471 0 l 279 0 m 150 1088 l 340 1088 l 340 897 l 150 897 m 410 1088 l 600 1088 l 600 897 l 410 897 "},"":{"ha":631,"x_min":0,"x_max":0,"o":"m 42 175 l 367 651 l 49 651 l 49 828 l 589 828 l 589 657 l 260 176 l 589 176 l 589 0 l 42 0 m 397 1133 l 575 1133 l 367 897 l 239 897 "},"":{"ha":631,"x_min":0,"x_max":0,"o":"m 42 175 l 367 651 l 49 651 l 49 828 l 589 828 l 589 657 l 260 176 l 589 176 l 589 0 l 42 0 m 97 1133 l 240 1133 l 321 1011 l 403 1133 l 546 1133 l 381 897 l 263 897 "},"":{"ha":631,"x_min":0,"x_max":0,"o":"m 42 175 l 367 651 l 49 651 l 49 828 l 589 828 l 589 657 l 260 176 l 589 176 l 589 0 l 42 0 m 221 1088 l 411 1088 l 411 897 l 221 897 "},"":{"ha":789,"x_min":0,"x_max":0,"o":"m 394 -14 b 49 317 171 -14 49 122 l 49 689 b 394 1028 49 881 190 1028 b 740 690 604 1028 740 876 l 740 317 b 394 -14 740 118 611 -14 m 393 108 b 608 314 531 108 608 200 l 608 689 b 396 906 608 818 531 906 b 181 689 258 906 181 810 l 181 317 b 393 108 181 199 256 108 m 393 158 b 231 317 289 158 231 228 l 231 689 b 396 854 231 781 290 854 b 558 689 499 854 558 788 l 558 554 l 426 554 l 426 689 b 394 721 426 708 415 721 b 363 689 374 721 363 707 l 363 317 b 394 286 363 300 374 286 b 426 317 415 286 426 300 l 426 474 l 558 474 l 558 315 b 393 158 558 228 499 158 "},"":{"ha":789,"x_min":0,"x_max":0,"o":"m 394 -14 b 49 317 171 -14 49 122 l 49 689 b 394 1028 49 881 190 1028 b 740 690 604 1028 740 876 l 740 317 b 394 -14 740 118 611 -14 m 233 835 l 411 835 b 561 689 513 835 561 779 l 561 578 b 522 488 561 536 549 506 b 557 401 546 469 557 439 l 557 232 b 568 186 557 214 561 197 b 608 314 594 221 608 265 l 608 685 b 396 906 608 814 531 906 b 181 689 258 906 181 810 l 181 317 b 393 108 181 199 256 108 b 560 178 467 108 524 135 l 436 178 b 425 213 425 183 425 196 l 425 401 b 394 431 425 417 415 431 l 365 431 l 365 178 l 233 178 m 365 717 l 365 549 l 399 549 b 429 578 419 549 429 563 l 429 689 b 399 717 429 704 419 717 "},"":{"ha":817,"x_min":0,"x_max":0,"o":"m 785 303 b 513 -6 785 163 686 26 l 513 -167 l 319 -167 l 319 -4 b 17 168 189 19 89 85 l 193 307 b 325 192 224 254 272 214 l 325 451 b 54 736 196 490 54 561 b 319 1021 54 875 163 992 l 319 1167 l 513 1167 l 513 1017 b 753 881 617 994 690 944 l 593 760 b 507 832 571 792 540 817 l 507 597 b 785 303 638 554 785 481 m 589 304 b 507 399 589 350 556 378 l 507 186 b 589 304 558 208 589 256 m 247 743 b 325 653 247 696 276 671 l 325 842 b 247 743 276 824 247 788 "},"":{"ha":817,"x_min":0,"x_max":0,"o":"m 322 0 b 42 371 160 44 42 193 b 322 742 42 549 160 697 l 322 924 l 515 924 l 515 746 b 782 522 640 718 735 633 l 611 449 b 425 575 581 524 510 575 b 225 371 313 575 225 485 b 425 167 225 257 313 167 b 611 292 510 167 581 218 l 782 219 b 515 -4 735 107 640 24 l 515 -181 l 322 -181 "},"":{"ha":817,"x_min":0,"x_max":0,"o":"m 75 608 l 150 608 b 126 738 135 647 126 690 b 436 1028 126 913 247 1028 b 747 822 607 1028 710 947 l 564 757 b 439 860 547 821 510 860 b 322 740 360 860 322 810 b 356 608 322 694 336 653 l 622 608 l 622 456 l 429 456 b 476 238 456 393 476 322 b 467 165 476 214 474 189 b 514 139 483 149 500 139 b 557 219 550 139 557 157 l 557 332 l 754 332 l 754 225 b 564 -14 754 58 713 -14 b 403 51 500 -14 449 15 b 258 -15 367 11 317 -15 b 46 143 111 -15 46 46 b 221 308 46 236 110 308 b 335 276 264 308 303 294 b 233 456 322 332 278 389 l 75 456 m 246 114 b 301 138 268 114 286 122 b 235 167 278 154 256 167 b 207 142 217 167 207 154 b 246 114 207 126 221 114 "},"":{"ha":817,"x_min":0,"x_max":0,"o":"m 43 719 l 171 719 b 515 1028 185 896 322 1028 b 775 919 625 1028 714 986 l 629 789 b 515 838 603 818 564 838 b 365 719 431 838 379 788 l 675 719 l 649 568 l 363 568 l 363 446 l 631 446 l 607 294 l 364 294 b 511 178 375 226 425 178 b 626 242 569 178 601 207 l 800 128 b 513 -14 743 40 649 -14 b 169 294 297 -14 179 111 l 43 294 l 43 446 l 169 446 l 169 568 l 43 568 "},"":{"ha":817,"x_min":0,"x_max":0,"o":"m 110 544 l 311 544 l 311 579 l 31 1014 l 247 1014 l 410 744 l 572 1014 l 786 1014 l 504 576 l 504 544 l 707 544 l 707 389 l 504 389 l 504 282 l 707 282 l 707 126 l 504 126 l 504 0 l 311 0 l 311 126 l 110 126 l 110 282 l 311 282 l 311 389 l 110 389 "},"":{"ha":817,"x_min":0,"x_max":0,"o":"m 63 592 l 329 592 l 363 713 b 740 1014 426 943 547 1014 l 756 1014 l 756 836 b 557 711 626 836 585 811 l 524 592 l 754 592 l 754 421 l 476 421 l 443 301 b 94 0 381 78 281 0 l 63 0 l 63 178 b 249 303 175 178 222 207 l 281 421 l 63 421 "},"":{"ha":789,"x_min":0,"x_max":0,"o":"m 551 1014 l 775 1014 l 238 0 l 14 0 m 197 640 b 4 833 92 640 4 728 b 197 1028 4 940 92 1028 b 392 833 304 1028 392 940 b 197 640 392 728 304 640 m 197 785 b 247 833 225 785 247 807 b 197 883 247 861 225 883 b 149 833 171 883 149 861 b 197 785 149 807 171 785 m 593 -14 b 400 179 488 -14 400 74 b 593 374 400 286 488 374 b 788 179 700 374 788 286 b 593 -14 788 74 700 -14 m 593 131 b 643 179 621 131 643 153 b 593 229 643 207 621 229 b 544 179 567 229 544 207 b 593 131 544 153 567 131 "},"A":{"ha":953,"x_min":0,"x_max":0,"o":"m 379 1014 l 574 1014 l 933 0 l 732 0 l 671 176 l 282 176 l 221 0 l 19 0 m 346 361 l 607 361 l 476 739 "},"₍":{"ha":369,"x_min":0,"x_max":0,"o":"m 239 -131 b 31 289 104 -26 31 111 b 239 708 31 467 106 604 l 335 579 b 190 289 236 506 190 406 b 335 -1 190 172 236 75 l 239 -131 "},"₎":{"ha":369,"x_min":0,"x_max":0,"o":"m 35 -1 b 179 289 133 75 179 172 b 35 579 179 406 133 506 l 131 708 b 339 289 264 604 339 467 b 131 -131 339 111 265 -26 "},"₌":{"ha":332,"x_min":0,"x_max":0,"o":"m 18 424 l 314 424 l 314 301 l 18 301 m 18 282 l 314 282 l 314 158 l 18 158 "},"₊":{"ha":340,"x_min":0,"x_max":0,"o":"m 21 357 l 107 357 l 107 440 l 232 440 l 232 357 l 318 357 l 318 228 l 232 228 l 232 144 l 107 144 l 107 228 l 21 228 "},"₋":{"ha":340,"x_min":0,"x_max":0,"o":"m 21 356 l 318 356 l 318 228 l 21 228 "},"":{"ha":628,"x_min":0,"x_max":0,"o":"m 300 175 l 307 175 b 388 267 372 176 388 192 l 388 828 l 579 828 l 579 272 b 313 0 579 54 510 0 l 300 0 m 49 828 l 240 828 l 240 0 l 49 0 "},"ĳ":{"ha":561,"x_min":0,"x_max":0,"o":"m 49 -86 l 192 -86 b 322 39 308 -86 322 -69 l 322 694 l 513 694 l 513 38 b 219 -264 513 -189 440 -264 l 49 -264 m 322 954 l 513 954 l 513 764 l 322 764 m 49 694 l 239 694 l 239 0 l 49 0 m 49 954 l 239 954 l 239 764 l 49 764 "},"":{"ha":288,"x_min":0,"x_max":0,"o":"m 49 694 l 239 694 l 239 0 l 49 0 m 49 954 l 239 954 l 239 764 l 49 764 "},"Ŋ":{"ha":954,"x_min":0,"x_max":0,"o":"m 604 -99 l 611 -99 b 706 -7 689 -97 706 -82 l 706 39 l 249 717 l 249 0 l 56 0 l 56 1014 l 275 1014 l 706 375 l 706 1014 l 899 1014 l 899 0 b 631 -287 897 -219 828 -287 l 604 -287 "},"Ĳ":{"ha":682,"x_min":0,"x_max":0,"o":"m 329 189 l 335 189 b 433 286 418 189 433 201 l 433 1014 l 626 1014 l 626 293 b 356 0 625 74 582 0 l 329 0 m 56 1014 l 249 1014 l 249 0 l 56 0 "},"":{"ha":953,"x_min":0,"x_max":0,"o":"m 379 1014 l 574 1014 l 933 0 l 732 0 l 476 738 l 221 0 l 19 0 "},"ĸ":{"ha":753,"x_min":0,"x_max":0,"o":"m 332 278 l 239 168 l 239 0 l 49 0 l 49 694 l 239 694 l 239 388 l 494 694 l 715 694 l 463 394 l 729 0 l 521 0 "},"ŋ":{"ha":740,"x_min":0,"x_max":0,"o":"m 368 -142 b 499 -17 485 -142 499 -125 l 499 399 b 371 546 499 492 456 546 b 239 379 299 546 239 496 l 239 0 l 49 0 l 49 694 l 238 694 l 238 617 b 429 708 282 674 350 708 b 692 424 593 708 692 603 l 692 -18 b 396 -319 692 -244 617 -319 l 368 -319 "},"ŧ":{"ha":515,"x_min":0,"x_max":0,"o":"m 35 694 l 153 694 l 153 857 l 343 961 l 343 694 l 474 694 l 474 542 l 343 542 l 343 439 l 474 439 l 474 286 l 343 286 b 474 169 343 185 360 169 l 474 0 l 446 0 b 153 286 229 0 156 71 l 35 286 l 35 439 l 153 439 l 153 542 l 35 542 "},"Ŧ":{"ha":829,"x_min":0,"x_max":0,"o":"m 146 600 l 322 600 l 322 829 l 53 829 l 53 1014 l 785 1014 l 785 829 l 515 829 l 515 600 l 683 600 l 683 415 l 515 415 l 515 0 l 322 0 l 322 415 l 146 415 "},"":{"ha":444,"x_min":0,"x_max":0,"o":"m 233 604 b 25 813 118 604 25 697 b 233 1022 25 929 118 1022 b 426 896 325 1022 396 969 l 304 842 b 235 890 293 871 267 890 b 160 813 193 890 160 856 b 235 736 160 771 193 736 b 304 783 267 736 293 756 l 426 731 b 233 604 396 657 325 604 "},"":{"ha":807,"x_min":0,"x_max":0,"o":"m 311 828 l 496 828 l 781 0 l 588 0 l 403 556 l 218 0 l 26 0 "},"":{"ha":303,"x_min":0,"x_max":0,"o":"m 56 828 l 247 828 l 247 0 l 56 0 m 57 1088 l 247 1088 l 247 897 l 57 897 "},"":{"ha":800,"x_min":0,"x_max":0,"o":"m 431 -142 b 561 -17 547 -142 561 -125 l 561 10 l 238 514 l 238 0 l 49 0 l 49 828 l 254 828 l 563 346 l 563 828 l 751 828 l 751 -18 b 458 -319 751 -244 679 -319 l 431 -319 "},"":{"ha":685,"x_min":0,"x_max":0,"o":"m 436 290 l 436 0 l 251 0 l 251 290 l 111 290 l 111 468 l 251 468 l 251 650 l 42 650 l 42 828 l 643 828 l 643 650 l 436 650 l 436 468 l 574 468 l 574 290 "},"":{"ha":817,"x_min":0,"x_max":0,"o":"m 63 185 l 315 185 l 315 728 b 151 644 283 681 214 644 l 136 644 l 136 847 l 143 847 b 322 1014 276 847 322 942 l 508 1014 l 508 185 l 754 185 l 754 0 l 63 0 "},"":{"ha":817,"x_min":0,"x_max":0,"o":"m 63 182 b 356 544 63 356 218 460 b 564 744 464 613 564 668 b 408 861 564 808 510 861 b 207 718 310 861 246 803 l 40 801 b 407 1028 107 940 231 1028 b 760 743 629 1028 760 903 b 482 413 760 582 615 493 b 256 185 367 342 257 279 l 754 185 l 754 0 l 63 0 "},"":{"ha":817,"x_min":0,"x_max":0,"o":"m 415 -14 b 31 174 239 -14 128 43 l 199 294 b 417 163 253 201 325 163 b 582 301 511 163 582 214 b 431 428 582 376 535 428 l 297 428 l 297 606 l 428 606 b 576 742 536 606 576 671 b 419 860 576 800 522 860 b 215 735 308 860 258 821 l 47 818 b 418 1028 121 960 247 1028 b 764 750 618 1028 764 914 b 646 521 764 650 721 571 b 775 296 726 476 775 403 b 415 -14 775 122 642 -14 "},"":{"ha":817,"x_min":0,"x_max":0,"o":"m 467 206 l 56 206 l 56 382 l 443 1014 l 654 1014 l 654 382 l 761 382 l 761 206 l 654 206 l 654 0 l 467 0 m 467 382 l 467 725 l 256 382 "},"":{"ha":817,"x_min":0,"x_max":0,"o":"m 407 -14 b 35 183 215 -14 93 71 l 222 292 b 410 164 250 215 317 164 b 581 342 499 164 581 238 b 404 525 581 443 514 525 b 225 425 317 525 264 483 l 53 514 l 125 1014 l 732 1014 l 732 833 l 276 833 l 250 654 b 433 701 292 679 351 701 b 775 340 618 701 775 583 b 407 -14 775 139 621 -14 "},"":{"ha":817,"x_min":0,"x_max":0,"o":"m 410 -14 b 42 338 196 -14 42 142 b 119 593 42 433 72 522 l 379 1014 l 607 1014 l 393 682 b 449 690 411 688 429 690 b 775 339 629 690 775 546 b 410 -14 775 132 618 -14 m 406 161 b 585 343 503 161 585 243 b 406 524 585 440 503 524 b 231 342 308 524 231 440 b 406 161 231 243 308 161 "},"":{"ha":817,"x_min":0,"x_max":0,"o":"m 551 829 l 63 829 l 63 1014 l 754 1014 l 754 846 l 356 0 l 150 0 "},"":{"ha":817,"x_min":0,"x_max":0,"o":"m 407 -14 b 46 304 178 -14 46 108 b 169 540 46 407 92 488 b 81 738 114 588 81 653 b 414 1028 81 914 214 1028 b 744 738 611 1028 744 914 b 650 539 744 653 708 586 b 771 304 726 486 771 407 b 407 -14 771 108 635 -14 m 407 157 b 586 304 525 157 586 222 b 411 451 586 386 525 451 b 232 304 296 451 232 385 b 407 157 232 222 288 157 m 410 613 b 568 738 514 613 568 668 b 415 864 568 807 513 864 b 257 738 315 864 257 807 b 410 613 257 667 307 613 "},"":{"ha":817,"x_min":0,"x_max":0,"o":"m 210 0 l 421 328 b 368 322 403 324 385 322 b 42 675 188 322 42 468 b 407 1028 42 882 199 1028 b 775 676 621 1028 775 872 b 697 421 775 581 744 492 l 438 0 m 411 490 b 586 672 508 490 586 574 b 411 853 586 771 508 853 b 232 671 314 853 232 771 b 411 490 232 574 314 490 "},"":{"ha":817,"x_min":0,"x_max":0,"o":"m 407 178 b 561 325 506 178 561 243 l 561 682 b 410 838 561 775 506 838 b 256 682 311 838 256 769 l 256 326 b 407 178 256 242 308 178 m 408 -14 b 63 317 185 -14 63 122 l 63 689 b 408 1028 63 881 204 1028 b 754 690 618 1028 754 876 l 754 317 b 408 -14 754 118 625 -14 "},"":{"ha":501,"x_min":0,"x_max":0,"o":"m 174 603 b 26 724 72 603 26 654 b 206 858 26 819 125 843 b 311 897 263 868 311 874 b 253 918 311 911 292 918 b 179 875 210 918 179 907 l 179 872 l 36 872 b 253 1022 36 964 118 1022 b 453 878 403 1022 453 963 l 453 611 l 314 611 l 314 647 b 174 603 281 622 233 603 m 206 710 b 322 785 263 710 322 757 l 322 796 b 238 761 304 782 269 771 b 175 726 204 750 175 740 b 206 710 175 715 186 710 "},"":{"ha":469,"x_min":0,"x_max":0,"o":"m 154 1014 l 314 1014 l 453 611 l 313 611 l 297 658 l 174 658 l 158 611 l 17 611 m 236 846 l 210 769 l 261 769 "},"":{"ha":465,"x_min":0,"x_max":0,"o":"m 233 604 b 25 813 118 604 25 697 b 233 1022 25 929 118 1022 b 440 813 349 1022 440 929 b 233 604 440 697 349 604 m 233 736 b 307 813 275 736 307 771 b 233 890 307 856 275 890 b 160 813 190 890 160 856 b 233 736 160 771 190 736 "},"":{"ha":444,"x_min":0,"x_max":0,"o":"m 233 604 b 25 813 118 604 25 697 b 233 1022 25 929 118 1022 b 426 896 325 1022 396 969 l 304 842 b 235 890 293 871 267 890 b 160 813 193 890 160 856 b 235 736 160 771 193 736 b 304 783 267 736 293 756 l 426 731 b 233 604 396 657 325 604 "},"‽":{"ha":715,"x_min":0,"x_max":0,"o":"m 271 260 b 253 849 263 426 253 663 b 175 742 211 826 185 786 l -4 801 b 328 1028 29 936 150 1028 b 672 736 533 1028 672 911 b 404 276 672 472 404 549 l 404 260 l 271 260 m 242 190 l 432 190 l 432 0 l 242 0 m 479 739 b 414 846 479 783 457 824 b 406 590 414 765 411 678 b 479 739 444 632 479 667 "},"":{"ha":715,"x_min":0,"x_max":0,"o":"m 388 -333 b 43 -42 182 -333 43 -217 b 311 418 43 222 311 146 l 311 435 l 444 435 b 463 -154 453 267 463 31 b 540 -47 504 -132 529 -92 l 719 -107 b 388 -333 686 -242 565 -333 m 474 504 l 283 504 l 283 694 l 474 694 m 236 -44 b 301 -151 236 -89 257 -129 b 308 104 301 -71 304 17 b 236 -44 271 63 236 28 "},"":{"ha":567,"x_min":0,"x_max":0,"o":"m 49 1167 l 242 1167 l 242 -167 l 49 -167 m 325 1167 l 518 1167 l 518 -167 l 325 -167 "},"‖":{"ha":567,"x_min":0,"x_max":0,"o":"m 49 1014 l 242 1014 l 242 -319 l 49 -319 m 325 1014 l 518 1014 l 518 -319 l 325 -319 "},"":{"ha":553,"x_min":0,"x_max":0,"o":"m 49 953 l 235 953 l 235 -136 l 49 -136 m 318 953 l 504 953 l 504 -136 l 318 -136 "},"〈":{"ha":546,"x_min":0,"x_max":0,"o":"m 14 347 l 329 1014 l 533 1014 l 217 347 l 533 -319 l 329 -319 "},"〉":{"ha":546,"x_min":0,"x_max":0,"o":"m 14 -319 l 331 347 l 14 1014 l 218 1014 l 533 347 l 218 -319 "},"":{"ha":546,"x_min":0,"x_max":0,"o":"m 14 500 l 329 1167 l 533 1167 l 217 500 l 533 -167 l 329 -167 "},"":{"ha":546,"x_min":0,"x_max":0,"o":"m 14 -167 l 331 500 l 14 1167 l 218 1167 l 533 500 l 218 -167 "},"":{"ha":1092,"x_min":0,"x_max":0,"o":"m 546 -14 b 28 507 258 -14 28 218 b 546 1028 28 794 258 1028 b 1064 560 864 1028 1064 794 b 825 267 1064 401 971 267 b 657 343 743 267 688 301 b 483 268 622 297 564 268 b 269 518 374 268 253 357 b 518 768 288 689 421 768 b 651 717 576 768 622 749 b 657 760 656 756 657 760 l 808 760 l 782 508 b 838 417 775 451 792 417 b 913 560 881 417 913 475 b 546 879 913 717 772 879 b 178 506 340 879 178 713 b 546 133 178 300 340 133 b 819 256 656 133 751 181 l 935 161 b 546 -14 840 54 701 -14 m 518 411 b 635 522 581 411 629 461 b 542 632 642 582 603 632 b 422 522 481 632 425 585 b 518 411 414 460 457 411 "},"":{"ha":1092,"x_min":0,"x_max":0,"o":"m 546 -104 b 28 417 258 -104 28 128 b 546 938 28 704 258 938 b 1064 469 864 938 1064 704 b 825 176 1064 311 971 176 b 657 253 743 176 688 211 b 483 178 622 207 564 178 b 269 428 374 178 253 267 b 518 678 288 599 421 678 b 651 626 576 678 622 658 b 657 669 656 665 657 669 l 808 669 l 782 418 b 838 326 775 361 792 326 b 913 469 881 326 913 385 b 546 789 913 626 772 789 b 178 415 340 789 178 622 b 546 43 178 210 340 43 b 819 165 656 43 751 90 l 935 71 b 546 -104 840 -36 701 -104 m 518 321 b 635 432 581 321 629 371 b 542 542 642 492 603 542 b 422 432 481 542 425 494 b 518 321 414 369 457 321 "},"℠":{"ha":869,"x_min":0,"x_max":0,"o":"m 378 1014 l 507 1014 l 601 890 l 703 1014 l 821 1014 l 821 611 l 685 611 l 685 803 l 599 707 l 514 803 l 514 611 l 378 611 m 189 601 b 17 683 111 601 53 632 l 133 757 b 189 718 143 738 169 718 b 215 736 204 718 215 726 b 31 893 215 774 31 746 b 192 1022 31 967 96 1022 b 343 947 260 1022 311 989 l 240 882 b 192 915 228 901 211 915 b 163 899 174 915 163 908 b 347 746 163 878 347 879 b 189 601 347 658 285 601 "},"":{"ha":476,"x_min":0,"x_max":0,"o":"m 271 -136 l 14 407 l 272 953 l 469 953 l 210 407 l 468 -136 "},"":{"ha":476,"x_min":0,"x_max":0,"o":"m 13 -136 l 271 407 l 11 953 l 208 953 l 467 407 l 210 -136 "},"":{"ha":1093,"x_min":0,"x_max":0,"o":"m 546 -14 b 28 507 258 -14 28 218 b 546 1028 28 794 258 1028 b 1065 507 835 1028 1065 794 b 546 -14 1065 218 835 -14 m 546 133 b 917 507 751 133 917 301 b 546 881 917 713 751 881 b 181 507 336 881 181 713 b 546 133 181 301 336 133 m 324 769 l 567 769 b 804 583 719 769 804 678 b 700 422 804 507 769 449 l 801 250 l 625 250 l 490 508 l 561 508 b 642 575 604 508 642 528 b 558 638 642 622 603 638 l 483 638 l 483 250 l 324 250 "},"₡":{"ha":1021,"x_min":0,"x_max":0,"o":"m 101 -167 l 211 100 b 28 507 94 196 28 342 b 549 1028 28 810 256 1028 b 589 1026 563 1028 576 1026 l 647 1167 l 753 1167 l 688 1008 b 753 986 710 1003 732 994 l 828 1167 l 933 1167 l 839 939 b 993 776 901 897 954 842 l 824 668 b 763 751 806 700 786 728 l 526 179 l 544 179 b 819 347 672 179 765 251 l 993 247 b 549 -14 901 92 747 -14 b 450 -6 514 -14 482 -10 l 385 -167 l 281 -167 l 356 18 b 292 47 333 26 313 36 l 204 -167 m 219 507 b 292 297 219 426 246 354 l 511 836 b 219 507 342 818 219 681 m 367 229 b 431 199 386 217 408 207 l 681 810 b 614 831 660 819 638 826 l 367 229 "},"₢":{"ha":1021,"x_min":0,"x_max":0,"o":"m 549 -14 b 28 507 235 -14 28 218 b 549 1028 28 810 256 1028 b 993 776 739 1028 904 928 l 824 668 b 549 838 767 774 678 838 b 219 507 360 838 219 693 b 413 206 219 371 296 256 l 413 613 l 601 613 l 601 499 b 793 613 636 571 699 613 l 828 613 l 828 428 l 749 428 b 603 246 647 428 603 375 l 603 183 b 833 365 711 203 789 272 l 1007 269 b 549 -14 918 97 750 -14 "},"₣":{"ha":671,"x_min":0,"x_max":0,"o":"m 49 1014 l 622 1014 l 622 829 l 242 829 l 242 694 l 622 694 l 622 532 l 242 532 l 242 450 l 622 450 l 622 288 l 242 288 l 242 0 l 49 0 "},"₤":{"ha":981,"x_min":0,"x_max":0,"o":"m 119 671 l 210 671 b 206 726 207 688 206 707 b 528 1028 206 901 339 1028 b 850 825 699 1028 813 950 l 667 760 b 531 860 650 824 601 860 b 388 729 443 860 388 799 b 393 671 388 708 389 689 l 685 671 l 685 532 l 442 532 b 469 469 451 511 461 490 l 685 469 l 685 331 l 513 331 b 519 254 517 307 519 281 b 510 179 519 228 515 203 b 636 139 554 157 596 139 b 735 250 710 139 735 172 l 735 318 l 932 318 l 932 225 b 686 -14 932 83 868 -14 b 443 63 589 -14 510 22 b 264 -15 396 14 332 -15 b 71 129 143 -15 71 31 b 240 281 71 217 144 281 b 396 240 296 281 347 263 b 397 253 396 244 397 249 b 382 331 397 281 392 306 l 119 331 l 119 469 l 301 469 b 263 532 289 489 275 510 l 119 532 m 264 97 b 342 126 292 97 319 107 b 250 158 308 144 278 158 b 214 131 226 158 214 146 b 264 97 214 111 232 97 "},"₦":{"ha":1121,"x_min":0,"x_max":0,"o":"m 42 632 l 167 632 l 167 1014 l 372 1014 l 583 632 l 761 632 l 761 1014 l 954 1014 l 954 632 l 1079 632 l 1079 539 l 954 539 l 954 497 l 1079 497 l 1079 404 l 954 404 l 954 0 l 763 0 l 539 404 l 360 404 l 360 0 l 167 0 l 167 404 l 42 404 l 42 497 l 167 497 l 167 539 l 42 539 m 360 497 l 488 497 l 465 539 l 360 539 m 657 497 l 761 497 l 761 539 l 635 539 m 360 729 l 360 632 l 414 632 m 761 310 l 761 404 l 708 404 "},"₧":{"ha":1947,"x_min":0,"x_max":0,"o":"m 742 526 b 396 289 692 388 561 289 l 242 289 l 242 0 l 49 0 l 49 1014 l 397 1014 b 760 694 592 1014 739 875 l 860 694 l 860 857 l 1050 961 l 1050 694 l 1194 694 l 1194 524 l 1050 524 l 1050 303 b 1181 178 1050 194 1064 178 l 1519 178 b 1615 231 1582 178 1615 197 b 1472 289 1615 271 1550 278 b 1217 486 1358 306 1217 332 b 1493 708 1217 617 1325 711 b 1796 547 1657 708 1744 644 l 1628 476 b 1500 553 1610 522 1563 553 b 1410 500 1438 553 1410 531 b 1558 444 1410 463 1478 457 b 1806 236 1671 428 1806 393 b 1511 0 1806 122 1736 -3 l 1153 0 b 860 301 932 0 860 75 l 860 524 l 742 524 m 242 835 l 242 468 l 383 468 b 568 651 493 468 568 550 b 383 835 568 753 493 835 "},"":{"ha":654,"x_min":0,"x_max":0,"o":"m 101 764 b 325 1000 101 899 172 1000 b 550 764 464 1000 550 899 l 429 764 b 325 897 429 853 392 894 b 221 764 258 894 221 853 l 101 764 "},"":{"ha":654,"x_min":0,"x_max":0,"o":"m 311 -333 b 96 -253 208 -333 144 -307 l 204 -185 b 310 -232 231 -215 263 -232 b 383 -192 350 -232 383 -215 b 304 -153 383 -167 357 -153 l 294 -153 l 294 -74 l 329 -74 b 511 -190 444 -72 511 -122 b 311 -333 511 -276 415 -333 "},"₨":{"ha":1371,"x_min":0,"x_max":0,"o":"m 1019 0 b 250 501 814 0 531 54 l 344 501 b 546 674 494 501 546 601 b 344 833 546 775 490 833 l 242 833 l 242 0 l 49 0 l 49 1014 l 367 1014 b 740 674 600 1014 740 865 b 569 382 740 554 688 439 b 1033 178 721 204 878 178 b 1149 231 1113 178 1149 197 b 1006 288 1149 271 1083 276 b 750 486 892 304 750 332 b 1026 708 750 617 858 711 b 1329 547 1190 708 1278 644 l 1161 476 b 1033 553 1143 522 1096 553 b 943 500 971 553 943 531 b 1092 444 943 463 1011 457 b 1339 236 1204 428 1339 393 b 1019 0 1339 122 1268 -3 "},"₩":{"ha":1496,"x_min":0,"x_max":0,"o":"m 35 632 l 161 632 l 53 1014 l 254 1014 l 357 632 l 551 632 l 665 1014 l 842 1014 l 956 632 l 1149 632 l 1250 1014 l 1446 1014 l 1338 632 l 1461 632 l 1461 539 l 1311 539 l 1300 497 l 1461 497 l 1461 404 l 1274 404 l 1160 0 l 969 0 l 850 404 l 657 404 l 538 0 l 340 0 l 225 404 l 35 404 l 35 497 l 199 497 l 188 539 l 35 539 m 393 497 l 511 497 l 524 539 l 382 539 m 996 497 l 1113 497 l 1124 539 l 983 539 m 685 497 l 822 497 l 810 539 l 697 539 m 418 404 l 449 288 l 483 404 m 1024 404 l 1057 290 l 1088 404 m 753 731 l 724 632 l 782 632 "},"₪":{"ha":1119,"x_min":0,"x_max":0,"o":"m 325 763 b 518 600 489 763 518 740 l 518 179 l 610 179 b 878 417 826 179 878 240 l 878 1014 l 1071 1014 l 1071 417 b 629 0 1071 153 938 0 l 325 0 m 49 1014 l 353 1014 b 794 597 661 1014 794 861 l 794 419 b 601 254 796 294 756 254 l 601 597 b 333 835 601 774 554 835 l 242 835 l 242 0 l 49 0 "},"₮":{"ha":829,"x_min":0,"x_max":0,"o":"m 167 518 l 318 581 l 318 829 l 49 829 l 49 1014 l 781 1014 l 781 829 l 511 829 l 511 660 l 657 719 l 657 615 l 511 556 l 511 479 l 657 539 l 657 435 l 511 375 l 511 0 l 318 0 l 318 296 l 167 233 l 167 338 l 318 400 l 318 476 l 167 414 "},"₱":{"ha":1010,"x_min":0,"x_max":0,"o":"m 49 768 l 156 768 l 156 1014 l 504 1014 b 850 768 671 1014 803 911 l 975 768 l 975 675 l 868 675 b 869 651 869 667 869 658 l 869 633 l 975 633 l 975 540 l 853 540 b 503 289 807 393 674 289 l 349 289 l 349 0 l 156 0 l 156 540 l 49 540 l 49 633 l 156 633 l 156 675 l 49 675 m 490 468 b 639 540 554 468 607 496 l 349 540 l 349 468 l 490 468 m 349 835 l 349 768 l 635 768 b 490 835 603 808 551 835 m 675 651 b 674 675 675 658 674 667 l 349 675 l 349 633 l 674 633 b 675 651 675 639 675 644 "},"฿":{"ha":676,"x_min":0,"x_max":0,"o":"m 49 913 l 296 913 l 296 1014 l 392 1014 l 392 911 b 646 678 554 900 646 821 b 554 513 646 601 613 547 b 651 335 617 476 651 418 b 392 86 653 179 550 100 l 392 0 l 296 0 l 296 85 l 49 85 m 239 254 l 296 254 l 296 421 l 239 421 m 239 594 l 296 594 l 296 743 l 239 743 m 458 340 b 392 417 458 382 439 407 l 392 260 b 458 340 435 271 458 297 m 457 672 b 392 740 457 711 435 733 l 392 597 b 457 672 436 606 457 633 "},"≈":{"ha":611,"x_min":0,"x_max":0,"o":"m 49 694 b 183 731 89 714 126 731 b 429 678 267 731 357 678 b 563 713 483 678 515 692 l 563 550 b 429 515 524 528 490 515 b 183 568 351 515 254 568 b 49 532 128 568 90 551 m 49 463 b 179 500 89 482 122 500 b 432 449 263 500 360 449 b 563 481 486 449 515 460 l 563 318 b 432 286 524 296 493 286 b 179 338 354 286 250 338 b 49 300 124 338 90 319 "},"":{"ha":654,"x_min":0,"x_max":0,"o":"m 218 -69 l 408 -69 l 408 -260 l 218 -260 "},"":{"ha":654,"x_min":0,"x_max":0,"o":"m 51 1000 l 229 1000 l 388 764 l 260 764 m 282 1000 l 460 1000 l 618 764 l 490 764 "},"":{"ha":611,"x_min":0,"x_max":0,"o":"m 49 -139 l 563 -139 l 563 -301 l 49 -301 "},"":{"ha":789,"x_min":0,"x_max":0,"o":"m 49 -14 l 740 -14 l 740 -176 l 49 -176 "},"‴":{"ha":654,"x_min":0,"x_max":0,"o":"m 96 694 b 49 897 82 728 49 853 l 49 1014 l 197 1014 l 197 897 b 149 694 197 851 163 726 l 96 694 m 300 694 b 253 897 286 728 253 853 l 253 1014 l 401 1014 l 401 897 b 353 694 401 851 367 726 l 300 694 m 504 694 b 457 897 490 728 457 853 l 457 1014 l 606 1014 l 606 897 b 557 694 606 851 571 726 l 504 694 "},"₀":{"ha":628,"x_min":0,"x_max":0,"o":"m 313 -8 b 14 293 144 -8 14 126 b 313 594 14 460 144 594 b 614 293 481 594 614 460 b 313 -8 614 126 482 -8 m 313 149 b 451 293 396 149 451 214 b 313 438 451 372 394 438 b 175 293 232 438 175 372 b 313 149 175 214 231 149 "},"₁":{"ha":414,"x_min":0,"x_max":0,"o":"m 18 147 l 131 147 l 131 372 b 43 336 111 347 79 336 l 35 336 l 35 488 l 39 488 b 136 586 117 488 136 544 l 290 586 l 290 147 l 399 147 l 399 0 l 18 0 "},"₂":{"ha":458,"x_min":0,"x_max":0,"o":"m 18 117 b 178 328 18 233 103 289 b 281 414 233 358 281 381 b 226 457 281 438 263 457 b 142 382 183 457 156 418 l 4 453 b 229 594 46 540 121 594 b 444 415 357 594 444 519 b 279 213 444 304 353 250 b 189 147 233 189 193 169 l 440 147 l 440 0 l 18 0 "},"₃":{"ha":451,"x_min":0,"x_max":0,"o":"m 219 -8 b 6 65 140 -8 57 14 l 126 174 b 210 136 150 149 179 136 b 269 183 244 136 269 153 b 190 228 269 215 236 228 l 129 228 l 129 367 l 188 367 b 257 414 232 367 257 385 b 200 456 257 440 236 456 b 129 418 171 456 143 440 l 15 517 b 206 594 63 565 139 594 b 425 419 335 594 425 528 b 368 306 425 375 404 335 b 439 179 413 278 439 235 b 219 -8 439 74 354 -8 "},"₄":{"ha":503,"x_min":0,"x_max":0,"o":"m 251 115 l 18 115 l 18 256 l 250 586 l 399 586 l 399 250 l 485 250 l 485 115 l 399 115 l 399 0 l 251 0 m 251 250 l 251 350 l 182 250 "},"₅":{"ha":443,"x_min":0,"x_max":0,"o":"m 217 -8 b 6 100 121 -8 44 33 l 158 181 b 217 142 169 156 189 142 b 272 197 250 142 272 164 b 214 250 272 229 249 250 b 157 214 189 250 165 233 l 13 264 l 57 586 l 393 586 l 393 440 l 179 440 l 171 382 b 238 393 189 389 211 393 b 431 197 353 393 431 321 b 217 -8 431 74 339 -8 "},"₆":{"ha":489,"x_min":0,"x_max":0,"o":"m 244 -8 b 14 210 108 -8 14 86 b 72 381 14 268 42 332 l 201 586 l 383 586 l 279 422 b 475 210 389 418 475 338 b 244 -8 476 85 381 -8 m 244 139 b 318 211 285 139 318 171 b 244 283 318 251 285 283 b 174 211 204 283 174 251 b 244 139 174 171 204 139 "},"₇":{"ha":425,"x_min":0,"x_max":0,"o":"m 240 439 l 18 439 l 18 586 l 407 586 l 407 447 l 207 0 l 36 0 "},"₈":{"ha":454,"x_min":0,"x_max":0,"o":"m 226 -8 b 18 186 108 -8 18 64 b 72 313 18 235 39 279 b 35 417 49 339 35 375 b 226 594 35 531 114 594 b 419 417 339 594 419 531 b 385 314 419 376 407 342 b 436 186 417 282 436 239 b 226 -8 436 64 344 -8 m 226 128 b 288 186 263 128 288 153 b 226 243 288 218 263 243 b 167 186 190 243 167 217 b 226 128 167 153 190 128 m 226 369 b 278 417 258 369 278 390 b 228 465 278 443 260 465 b 176 417 194 465 176 443 b 226 369 176 390 196 369 "},"₉":{"ha":489,"x_min":0,"x_max":0,"o":"m 210 165 b 14 376 101 168 14 249 b 244 594 14 501 108 594 b 475 376 381 594 475 500 b 417 206 475 318 447 254 l 288 0 l 107 0 m 244 303 b 317 375 285 303 317 335 b 244 447 317 417 285 447 b 172 375 204 447 172 417 b 244 303 172 335 204 303 "},"⅟":{"ha":1083,"x_min":0,"x_max":0,"o":"m 849 1014 l 1071 1014 l 339 0 l 117 0 m 18 575 l 131 575 l 131 800 b 43 764 111 775 79 764 l 35 764 l 35 915 l 39 915 b 136 1014 117 915 136 972 l 290 1014 l 290 575 l 399 575 l 399 428 l 18 428 "},"½":{"ha":1210,"x_min":0,"x_max":0,"o":"m 849 1014 l 1071 1014 l 339 0 l 117 0 m 769 117 b 929 328 769 233 854 289 b 1032 414 985 358 1032 381 b 978 457 1032 438 1014 457 b 893 382 935 457 907 418 l 756 453 b 981 594 797 540 872 594 b 1196 415 1108 594 1196 519 b 1031 213 1196 304 1104 250 b 940 147 985 189 944 169 l 1192 147 l 1192 0 l 769 0 m 18 575 l 131 575 l 131 800 b 43 764 111 775 79 764 l 35 764 l 35 915 l 39 915 b 136 1014 117 915 136 972 l 290 1014 l 290 575 l 399 575 l 399 428 l 18 428 "},"⅓":{"ha":1232,"x_min":0,"x_max":0,"o":"m 849 1014 l 1071 1014 l 339 0 l 117 0 m 1000 -8 b 786 65 921 -8 838 14 l 907 174 b 990 136 931 149 960 136 b 1050 183 1025 136 1050 153 b 971 228 1050 215 1017 228 l 910 228 l 910 367 l 968 367 b 1038 414 1013 367 1038 385 b 981 456 1038 440 1017 456 b 910 418 951 456 924 440 l 796 517 b 986 594 843 565 919 594 b 1206 419 1115 594 1206 528 b 1149 306 1206 375 1185 335 b 1219 179 1193 278 1219 235 b 1000 -8 1219 74 1135 -8 m 18 575 l 131 575 l 131 800 b 43 764 111 775 79 764 l 35 764 l 35 915 l 39 915 b 136 1014 117 915 136 972 l 290 1014 l 290 575 l 399 575 l 399 428 l 18 428 "},"⅔":{"ha":1274,"x_min":0,"x_max":0,"o":"m 890 1014 l 1113 1014 l 381 0 l 158 0 m 18 544 b 178 756 18 661 103 717 b 281 842 233 786 281 808 b 226 885 281 865 263 885 b 142 810 183 885 156 846 l 4 881 b 229 1022 46 968 121 1022 b 444 843 357 1022 444 947 b 279 640 444 732 353 678 b 189 575 233 617 193 597 l 440 575 l 440 428 l 18 428 m 1042 -8 b 828 65 963 -8 879 14 l 949 174 b 1032 136 972 149 1001 136 b 1092 183 1067 136 1092 153 b 1013 228 1092 215 1058 228 l 951 228 l 951 367 l 1010 367 b 1079 414 1054 367 1079 385 b 1022 456 1079 440 1058 456 b 951 418 993 456 965 440 l 838 517 b 1028 594 885 565 961 594 b 1247 419 1157 594 1247 528 b 1190 306 1247 375 1226 335 b 1261 179 1235 278 1261 235 b 1042 -8 1261 74 1176 -8 "},"¼":{"ha":1189,"x_min":0,"x_max":0,"o":"m 849 1014 l 1071 1014 l 339 0 l 117 0 m 938 115 l 704 115 l 704 256 l 936 586 l 1085 586 l 1085 250 l 1171 250 l 1171 115 l 1085 115 l 1085 0 l 938 0 m 18 575 l 131 575 l 131 800 b 43 764 111 775 79 764 l 35 764 l 35 915 l 39 915 b 136 1014 117 915 136 972 l 290 1014 l 290 575 l 399 575 l 399 428 l 18 428 m 938 250 l 938 350 l 868 250 "},"¾":{"ha":1199,"x_min":0,"x_max":0,"o":"m 858 1014 l 1081 1014 l 349 0 l 126 0 m 947 115 l 714 115 l 714 256 l 946 586 l 1094 586 l 1094 250 l 1181 250 l 1181 115 l 1094 115 l 1094 0 l 947 0 m 219 419 b 6 493 140 419 57 442 l 126 601 b 210 564 150 576 179 564 b 269 611 244 564 269 581 b 190 656 269 643 236 656 l 129 656 l 129 794 l 188 794 b 257 842 232 794 257 813 b 200 883 257 868 236 883 b 129 846 171 883 143 868 l 15 944 b 206 1022 63 993 139 1022 b 425 847 335 1022 425 956 b 368 733 425 803 404 763 b 439 607 413 706 439 663 b 219 419 439 501 354 419 m 947 250 l 947 350 l 878 250 "},"⅕":{"ha":1176,"x_min":0,"x_max":0,"o":"m 849 1014 l 1071 1014 l 339 0 l 117 0 m 950 -8 b 739 100 854 -8 778 33 l 892 181 b 950 142 903 156 922 142 b 1006 197 983 142 1006 164 b 947 250 1006 229 982 250 b 890 214 922 250 899 233 l 746 264 l 790 586 l 1126 586 l 1126 440 l 913 440 l 904 382 b 971 393 922 389 944 393 b 1164 197 1086 393 1164 321 b 950 -8 1164 74 1072 -8 m 18 575 l 131 575 l 131 800 b 43 764 111 775 79 764 l 35 764 l 35 915 l 39 915 b 136 1014 117 915 136 972 l 290 1014 l 290 575 l 399 575 l 399 428 l 18 428 "},"⅖":{"ha":1219,"x_min":0,"x_max":0,"o":"m 890 1014 l 1113 1014 l 381 0 l 158 0 m 18 544 b 178 756 18 661 103 717 b 281 842 233 786 281 808 b 226 885 281 865 263 885 b 142 810 183 885 156 846 l 4 881 b 229 1022 46 968 121 1022 b 444 843 357 1022 444 947 b 279 640 444 732 353 678 b 189 575 233 617 193 597 l 440 575 l 440 428 l 18 428 m 993 -8 b 782 100 897 -8 821 33 l 935 181 b 993 142 946 156 965 142 b 1049 197 1026 142 1049 164 b 990 250 1049 229 1025 250 b 933 214 965 250 942 233 l 789 264 l 833 586 l 1169 586 l 1169 440 l 956 440 l 947 382 b 1014 393 965 389 988 393 b 1207 197 1129 393 1207 321 b 993 -8 1207 74 1115 -8 "},"⅗":{"ha":1186,"x_min":0,"x_max":0,"o":"m 858 1014 l 1081 1014 l 349 0 l 126 0 m 960 -8 b 749 100 864 -8 788 33 l 901 181 b 960 142 913 156 932 142 b 1015 197 993 142 1015 164 b 957 250 1015 229 992 250 b 900 214 932 250 908 233 l 756 264 l 800 586 l 1136 586 l 1136 440 l 922 440 l 914 382 b 981 393 932 389 954 393 b 1174 197 1096 393 1174 321 b 960 -8 1174 74 1082 -8 m 219 419 b 6 493 140 419 57 442 l 126 601 b 210 564 150 576 179 564 b 269 611 244 564 269 581 b 190 656 269 643 236 656 l 129 656 l 129 794 l 188 794 b 257 842 232 794 257 813 b 200 883 257 868 236 883 b 129 846 171 883 143 868 l 15 944 b 206 1022 63 993 139 1022 b 425 847 335 1022 425 956 b 368 733 425 803 404 763 b 439 607 413 706 439 663 b 219 419 439 501 354 419 "},"⅙":{"ha":1231,"x_min":0,"x_max":0,"o":"m 849 1014 l 1071 1014 l 339 0 l 117 0 m 986 -8 b 756 210 850 -8 756 86 b 814 381 756 268 783 332 l 943 586 l 1125 586 l 1021 422 b 1217 210 1131 418 1217 338 b 986 -8 1218 85 1122 -8 m 18 575 l 131 575 l 131 800 b 43 764 111 775 79 764 l 35 764 l 35 915 l 39 915 b 136 1014 117 915 136 972 l 290 1014 l 290 575 l 399 575 l 399 428 l 18 428 m 986 139 b 1060 211 1026 139 1060 171 b 986 283 1060 251 1026 283 b 915 211 946 283 915 251 b 986 139 915 171 946 139 "},"⅘":{"ha":1178,"x_min":0,"x_max":0,"o":"m 849 1014 l 1071 1014 l 339 0 l 117 0 m 951 -8 b 740 100 856 -8 779 33 l 893 181 b 951 142 904 156 924 142 b 1007 197 985 142 1007 164 b 949 250 1007 229 983 250 b 892 214 924 250 900 233 l 747 264 l 792 586 l 1128 586 l 1128 440 l 914 440 l 906 382 b 972 393 924 389 946 393 b 1165 197 1088 393 1165 321 b 951 -8 1165 74 1074 -8 m 251 543 l 18 543 l 18 683 l 250 1014 l 399 1014 l 399 678 l 485 678 l 485 543 l 399 543 l 399 428 l 251 428 m 251 678 l 251 778 l 182 678 "},"⅚":{"ha":1226,"x_min":0,"x_max":0,"o":"m 844 1014 l 1067 1014 l 335 0 l 113 0 m 982 -8 b 751 210 846 -8 751 86 b 810 381 751 268 779 332 l 939 586 l 1121 586 l 1017 422 b 1213 210 1126 418 1213 338 b 982 -8 1214 85 1118 -8 m 217 419 b 6 528 121 419 44 461 l 158 608 b 217 569 169 583 189 569 b 272 625 250 569 272 592 b 214 678 272 657 249 678 b 157 642 189 678 165 661 l 13 692 l 57 1014 l 393 1014 l 393 868 l 179 868 l 171 810 b 238 821 189 817 211 821 b 431 625 353 821 431 749 b 217 419 431 501 339 419 m 982 139 b 1056 211 1022 139 1056 171 b 982 283 1056 251 1022 283 b 911 211 942 283 911 251 b 982 139 911 171 942 139 "},"⅛":{"ha":1189,"x_min":0,"x_max":0,"o":"m 849 1014 l 1071 1014 l 339 0 l 117 0 m 961 -8 b 753 186 843 -8 753 64 b 807 313 753 235 774 279 b 769 417 783 339 769 375 b 961 594 769 531 849 594 b 1154 417 1074 594 1154 531 b 1119 314 1154 376 1142 342 b 1171 186 1151 282 1171 239 b 961 -8 1171 64 1079 -8 m 18 575 l 131 575 l 131 800 b 43 764 111 775 79 764 l 35 764 l 35 915 l 39 915 b 136 1014 117 915 136 972 l 290 1014 l 290 575 l 399 575 l 399 428 l 18 428 m 961 128 b 1022 186 997 128 1022 153 b 961 243 1022 218 997 243 b 901 186 925 243 901 217 b 961 128 901 153 925 128 m 961 369 b 1013 417 993 369 1013 390 b 963 465 1013 443 994 465 b 911 417 929 465 911 443 b 961 369 911 390 931 369 "},"⅜":{"ha":1199,"x_min":0,"x_max":0,"o":"m 858 1014 l 1081 1014 l 349 0 l 126 0 m 971 -8 b 763 186 853 -8 763 64 b 817 313 763 235 783 279 b 779 417 793 339 779 375 b 971 594 779 531 858 594 b 1164 417 1083 594 1164 531 b 1129 314 1164 376 1151 342 b 1181 186 1161 282 1181 239 b 971 -8 1181 64 1089 -8 m 219 419 b 6 493 140 419 57 442 l 126 601 b 210 564 150 576 179 564 b 269 611 244 564 269 581 b 190 656 269 643 236 656 l 129 656 l 129 794 l 188 794 b 257 842 232 794 257 813 b 200 883 257 868 236 883 b 129 846 171 883 143 868 l 15 944 b 206 1022 63 993 139 1022 b 425 847 335 1022 425 956 b 368 733 425 803 404 763 b 439 607 413 706 439 663 b 219 419 439 501 354 419 m 971 128 b 1032 186 1007 128 1032 153 b 971 243 1032 218 1007 243 b 911 186 935 243 911 217 b 971 128 911 153 935 128 m 971 369 b 1022 417 1003 369 1022 390 b 972 465 1022 443 1004 465 b 921 417 939 465 921 443 b 971 369 921 390 940 369 "},"⅝":{"ha":1185,"x_min":0,"x_max":0,"o":"m 844 1014 l 1067 1014 l 335 0 l 113 0 m 957 -8 b 749 186 839 -8 749 64 b 803 313 749 235 769 279 b 765 417 779 339 765 375 b 957 594 765 531 844 594 b 1150 417 1069 594 1150 531 b 1115 314 1150 376 1138 342 b 1167 186 1147 282 1167 239 b 957 -8 1167 64 1075 -8 m 217 419 b 6 528 121 419 44 461 l 158 608 b 217 569 169 583 189 569 b 272 625 250 569 272 592 b 214 678 272 657 249 678 b 157 642 189 678 165 661 l 13 692 l 57 1014 l 393 1014 l 393 868 l 179 868 l 171 810 b 238 821 189 817 211 821 b 431 625 353 821 431 749 b 217 419 431 501 339 419 m 957 128 b 1018 186 993 128 1018 153 b 957 243 1018 218 993 243 b 897 186 921 243 897 217 b 957 128 897 153 921 128 m 957 369 b 1008 417 989 369 1008 390 b 958 465 1008 443 990 465 b 907 417 925 465 907 443 b 957 369 907 390 926 369 "},"⅞":{"ha":1153,"x_min":0,"x_max":0,"o":"m 813 1014 l 1035 1014 l 303 0 l 81 0 m 925 -8 b 717 186 807 -8 717 64 b 771 313 717 235 738 279 b 733 417 747 339 733 375 b 925 594 733 531 813 594 b 1118 417 1038 594 1118 531 b 1083 314 1118 376 1106 342 b 1135 186 1115 282 1135 239 b 925 -8 1135 64 1043 -8 m 240 867 l 18 867 l 18 1014 l 407 1014 l 407 875 l 207 428 l 36 428 m 925 128 b 986 186 961 128 986 153 b 925 243 986 218 961 243 b 865 186 889 243 865 217 b 925 128 865 153 889 128 m 925 369 b 976 417 957 369 976 390 b 926 465 976 443 958 465 b 875 417 893 465 875 443 b 925 369 875 390 894 369 "},"⁺":{"ha":340,"x_min":0,"x_max":0,"o":"m 21 785 l 107 785 l 107 868 l 232 868 l 232 785 l 318 785 l 318 656 l 232 656 l 232 572 l 107 572 l 107 656 l 21 656 "},"⁻":{"ha":340,"x_min":0,"x_max":0,"o":"m 21 783 l 318 783 l 318 656 l 21 656 "},"⁼":{"ha":332,"x_min":0,"x_max":0,"o":"m 18 851 l 314 851 l 314 729 l 18 729 m 18 710 l 314 710 l 314 586 l 18 586 "},"⁽":{"ha":369,"x_min":0,"x_max":0,"o":"m 239 297 b 31 717 104 401 31 539 b 239 1136 31 894 106 1032 l 335 1007 b 190 717 236 933 190 833 b 335 426 190 600 236 503 l 239 297 "},"⁾":{"ha":369,"x_min":0,"x_max":0,"o":"m 35 426 b 179 717 133 503 179 600 b 35 1007 179 833 133 933 l 131 1136 b 339 717 264 1032 339 894 b 131 297 339 539 265 401 "},"⁰":{"ha":628,"x_min":0,"x_max":0,"o":"m 313 419 b 14 721 144 419 14 554 b 313 1022 14 888 144 1022 b 614 721 481 1022 614 888 b 313 419 614 554 482 419 m 313 576 b 451 721 396 576 451 642 b 313 865 451 800 394 865 b 175 721 232 865 175 800 b 313 576 175 642 231 576 "},"¹":{"ha":414,"x_min":0,"x_max":0,"o":"m 18 575 l 131 575 l 131 800 b 43 764 111 775 79 764 l 35 764 l 35 915 l 39 915 b 136 1014 117 915 136 972 l 290 1014 l 290 575 l 399 575 l 399 428 l 18 428 "},"²":{"ha":458,"x_min":0,"x_max":0,"o":"m 18 544 b 178 756 18 661 103 717 b 281 842 233 786 281 808 b 226 885 281 865 263 885 b 142 810 183 885 156 846 l 4 881 b 229 1022 46 968 121 1022 b 444 843 357 1022 444 947 b 279 640 444 732 353 678 b 189 575 233 617 193 597 l 440 575 l 440 428 l 18 428 "},"³":{"ha":451,"x_min":0,"x_max":0,"o":"m 219 419 b 6 493 140 419 57 442 l 126 601 b 210 564 150 576 179 564 b 269 611 244 564 269 581 b 190 656 269 643 236 656 l 129 656 l 129 794 l 188 794 b 257 842 232 794 257 813 b 200 883 257 868 236 883 b 129 846 171 883 143 868 l 15 944 b 206 1022 63 993 139 1022 b 425 847 335 1022 425 956 b 368 733 425 803 404 763 b 439 607 413 706 439 663 b 219 419 439 501 354 419 "},"⁴":{"ha":503,"x_min":0,"x_max":0,"o":"m 251 543 l 18 543 l 18 683 l 250 1014 l 399 1014 l 399 678 l 485 678 l 485 543 l 399 543 l 399 428 l 251 428 m 251 678 l 251 778 l 182 678 "},"⁵":{"ha":443,"x_min":0,"x_max":0,"o":"m 217 419 b 6 528 121 419 44 461 l 158 608 b 217 569 169 583 189 569 b 272 625 250 569 272 592 b 214 678 272 657 249 678 b 157 642 189 678 165 661 l 13 692 l 57 1014 l 393 1014 l 393 868 l 179 868 l 171 810 b 238 821 189 817 211 821 b 431 625 353 821 431 749 b 217 419 431 501 339 419 "},"⁶":{"ha":489,"x_min":0,"x_max":0,"o":"m 244 419 b 14 638 108 419 14 514 b 72 808 14 696 42 760 l 201 1014 l 383 1014 l 279 850 b 475 638 389 846 475 765 b 244 419 476 513 381 419 m 244 567 b 318 639 285 567 318 599 b 244 711 318 679 285 711 b 174 639 204 711 174 679 b 244 567 174 599 204 567 "},"⁷":{"ha":425,"x_min":0,"x_max":0,"o":"m 240 867 l 18 867 l 18 1014 l 407 1014 l 407 875 l 207 428 l 36 428 "},"⁸":{"ha":454,"x_min":0,"x_max":0,"o":"m 226 419 b 18 614 108 419 18 492 b 72 740 18 663 39 707 b 35 844 49 767 35 803 b 226 1022 35 958 114 1022 b 419 844 339 1022 419 958 b 385 742 419 804 407 769 b 436 614 417 710 436 667 b 226 419 436 492 344 419 m 226 556 b 288 614 263 556 288 581 b 226 671 288 646 263 671 b 167 614 190 671 167 644 b 226 556 167 581 190 556 m 226 797 b 278 844 258 797 278 818 b 228 893 278 871 260 893 b 176 844 194 893 176 871 b 226 797 176 818 196 797 "},"⁹":{"ha":489,"x_min":0,"x_max":0,"o":"m 210 593 b 14 804 101 596 14 676 b 244 1022 14 929 108 1022 b 475 804 381 1022 475 928 b 417 633 475 746 447 682 l 288 428 l 107 428 m 244 731 b 317 803 285 731 317 763 b 244 875 317 844 285 875 b 172 803 204 875 172 844 b 244 731 172 763 204 731 "},"":{"ha":1567,"x_min":0,"x_max":0,"o":"m 849 1014 l 1071 1014 l 339 0 l 117 0 m 1322 -8 b 1092 210 1186 -8 1092 86 b 1150 381 1092 268 1119 332 l 1279 586 l 1461 586 l 1357 422 b 1553 210 1467 418 1553 338 b 1322 -8 1554 85 1458 -8 m 704 147 l 817 147 l 817 372 b 729 336 797 347 765 336 l 721 336 l 721 488 l 725 488 b 822 586 803 488 822 544 l 976 586 l 976 147 l 1085 147 l 1085 0 l 704 0 m 18 575 l 131 575 l 131 800 b 43 764 111 775 79 764 l 35 764 l 35 915 l 39 915 b 136 1014 117 915 136 972 l 290 1014 l 290 575 l 399 575 l 399 428 l 18 428 m 1322 139 b 1396 211 1363 139 1396 171 b 1322 283 1396 251 1363 283 b 1251 211 1282 283 1251 251 b 1322 139 1251 171 1282 139 "},"":{"ha":1576,"x_min":0,"x_max":0,"o":"m 858 1014 l 1081 1014 l 349 0 l 126 0 m 1332 -8 b 1101 210 1196 -8 1101 86 b 1160 381 1101 268 1129 332 l 1289 586 l 1471 586 l 1367 422 b 1563 210 1476 418 1563 338 b 1332 -8 1564 85 1468 -8 m 219 419 b 6 493 140 419 57 442 l 126 601 b 210 564 150 576 179 564 b 269 611 244 564 269 581 b 190 656 269 643 236 656 l 129 656 l 129 794 l 188 794 b 257 842 232 794 257 813 b 200 883 257 868 236 883 b 129 846 171 883 143 868 l 15 944 b 206 1022 63 993 139 1022 b 425 847 335 1022 425 956 b 368 733 425 803 404 763 b 439 607 413 706 439 663 b 219 419 439 501 354 419 m 714 147 l 826 147 l 826 372 b 739 336 807 347 775 336 l 731 336 l 731 488 l 735 488 b 832 586 813 488 832 544 l 986 586 l 986 147 l 1094 147 l 1094 0 l 714 0 m 1332 139 b 1406 211 1372 139 1406 171 b 1332 283 1406 251 1372 283 b 1261 211 1292 283 1261 251 b 1332 139 1261 171 1292 139 "},"":{"ha":1563,"x_min":0,"x_max":0,"o":"m 844 1014 l 1067 1014 l 335 0 l 113 0 m 1318 -8 b 1088 210 1182 -8 1088 86 b 1146 381 1088 268 1115 332 l 1275 586 l 1457 586 l 1353 422 b 1549 210 1463 418 1549 338 b 1318 -8 1550 85 1454 -8 m 217 419 b 6 528 121 419 44 461 l 158 608 b 217 569 169 583 189 569 b 272 625 250 569 272 592 b 214 678 272 657 249 678 b 157 642 189 678 165 661 l 13 692 l 57 1014 l 393 1014 l 393 868 l 179 868 l 171 810 b 238 821 189 817 211 821 b 431 625 353 821 431 749 b 217 419 431 501 339 419 m 700 147 l 813 147 l 813 372 b 725 336 793 347 761 336 l 717 336 l 717 488 l 721 488 b 818 586 799 488 818 544 l 972 586 l 972 147 l 1081 147 l 1081 0 l 700 0 m 1318 139 b 1392 211 1358 139 1392 171 b 1318 283 1392 251 1358 283 b 1247 211 1278 283 1247 251 b 1318 139 1247 171 1278 139 "},"":{"ha":1531,"x_min":0,"x_max":0,"o":"m 813 1014 l 1035 1014 l 303 0 l 81 0 m 1286 -8 b 1056 210 1150 -8 1056 86 b 1114 381 1056 268 1083 332 l 1243 586 l 1425 586 l 1321 422 b 1517 210 1431 418 1517 338 b 1286 -8 1518 85 1422 -8 m 668 147 l 781 147 l 781 372 b 693 336 761 347 729 336 l 685 336 l 685 488 l 689 488 b 786 586 767 488 786 544 l 940 586 l 940 147 l 1049 147 l 1049 0 l 668 0 m 240 867 l 18 867 l 18 1014 l 407 1014 l 407 875 l 207 428 l 36 428 m 1286 139 b 1360 211 1326 139 1360 171 b 1286 283 1360 251 1326 283 b 1215 211 1246 283 1215 251 b 1286 139 1215 171 1246 139 "},"":{"ha":1610,"x_min":0,"x_max":0,"o":"m 892 1014 l 1114 1014 l 382 0 l 160 0 m 1365 -8 b 1135 210 1229 -8 1135 86 b 1193 381 1135 268 1163 332 l 1322 586 l 1504 586 l 1400 422 b 1596 210 1510 418 1596 338 b 1365 -8 1597 85 1501 -8 m 210 593 b 14 804 101 596 14 676 b 244 1022 14 929 108 1022 b 475 804 381 1022 475 928 b 417 633 475 746 447 682 l 288 428 l 107 428 m 747 147 l 860 147 l 860 372 b 772 336 840 347 808 336 l 764 336 l 764 488 l 768 488 b 865 586 846 488 865 544 l 1019 586 l 1019 147 l 1128 147 l 1128 0 l 747 0 m 244 731 b 317 803 285 731 317 763 b 244 875 317 844 285 875 b 172 803 204 875 172 844 b 244 731 172 763 204 731 m 1365 139 b 1439 211 1406 139 1439 171 b 1365 283 1439 251 1406 283 b 1294 211 1325 283 1294 251 b 1365 139 1294 171 1325 139 "},"":{"ha":1968,"x_min":0,"x_max":0,"o":"m 1250 1014 l 1472 1014 l 740 0 l 518 0 m 1724 -8 b 1493 210 1588 -8 1493 86 b 1551 381 1493 268 1521 332 l 1681 586 l 1863 586 l 1758 422 b 1954 210 1868 418 1954 338 b 1724 -8 1956 85 1860 -8 m 18 575 l 131 575 l 131 800 b 43 764 111 775 79 764 l 35 764 l 35 915 l 39 915 b 136 1014 117 915 136 972 l 290 1014 l 290 575 l 399 575 l 399 428 l 18 428 m 418 575 l 531 575 l 531 800 b 443 764 511 775 479 764 l 435 764 l 435 915 l 439 915 b 536 1014 517 915 536 972 l 690 1014 l 690 575 l 799 575 l 799 428 l 418 428 m 1106 147 l 1218 147 l 1218 372 b 1131 336 1199 347 1167 336 l 1122 336 l 1122 488 l 1126 488 b 1224 586 1204 488 1224 544 l 1378 586 l 1378 147 l 1486 147 l 1486 0 l 1106 0 m 1724 139 b 1797 211 1764 139 1797 171 b 1724 283 1797 251 1764 283 b 1653 211 1683 283 1653 251 b 1724 139 1653 171 1683 139 "},"":{"ha":1983,"x_min":0,"x_max":0,"o":"m 1265 1014 l 1488 1014 l 756 0 l 533 0 m 1739 -8 b 1508 210 1603 -8 1508 86 b 1567 381 1508 268 1536 332 l 1696 586 l 1878 586 l 1774 422 b 1969 210 1883 418 1969 338 b 1739 -8 1971 85 1875 -8 m 626 419 b 413 493 547 419 464 442 l 533 601 b 617 564 557 576 586 564 b 676 611 651 564 676 581 b 597 656 676 643 643 656 l 536 656 l 536 794 l 594 794 b 664 842 639 794 664 813 b 607 883 664 868 643 883 b 536 846 578 883 550 868 l 422 944 b 613 1022 469 993 546 1022 b 832 847 742 1022 832 956 b 775 733 832 803 811 763 b 846 607 819 706 846 663 b 626 419 846 501 761 419 m 18 575 l 131 575 l 131 800 b 43 764 111 775 79 764 l 35 764 l 35 915 l 39 915 b 136 1014 117 915 136 972 l 290 1014 l 290 575 l 399 575 l 399 428 l 18 428 m 1121 147 l 1233 147 l 1233 372 b 1146 336 1214 347 1182 336 l 1138 336 l 1138 488 l 1142 488 b 1239 586 1219 488 1239 544 l 1393 586 l 1393 147 l 1501 147 l 1501 0 l 1121 0 m 1739 139 b 1813 211 1779 139 1813 171 b 1739 283 1813 251 1779 283 b 1668 211 1699 283 1668 251 b 1739 139 1668 171 1699 139 "},"":{"ha":1963,"x_min":0,"x_max":0,"o":"m 1244 1014 l 1467 1014 l 735 0 l 513 0 m 1718 -8 b 1488 210 1582 -8 1488 86 b 1546 381 1488 268 1515 332 l 1675 586 l 1857 586 l 1753 422 b 1949 210 1863 418 1949 338 b 1718 -8 1950 85 1854 -8 m 617 419 b 406 528 521 419 444 461 l 558 608 b 617 569 569 583 589 569 b 672 625 650 569 672 592 b 614 678 672 657 649 678 b 557 642 589 678 565 661 l 413 692 l 457 1014 l 793 1014 l 793 868 l 579 868 l 571 810 b 638 821 589 817 611 821 b 831 625 753 821 831 749 b 617 419 831 501 739 419 m 1100 147 l 1213 147 l 1213 372 b 1125 336 1193 347 1161 336 l 1117 336 l 1117 488 l 1121 488 b 1218 586 1199 488 1218 544 l 1372 586 l 1372 147 l 1481 147 l 1481 0 l 1100 0 m 18 575 l 131 575 l 131 800 b 43 764 111 775 79 764 l 35 764 l 35 915 l 39 915 b 136 1014 117 915 136 972 l 290 1014 l 290 575 l 399 575 l 399 428 l 18 428 m 1718 139 b 1792 211 1758 139 1792 171 b 1718 283 1792 251 1758 283 b 1647 211 1678 283 1647 251 b 1718 139 1647 171 1678 139 "},"/":{"ha":711,"x_min":0,"x_max":0,"o":"m 494 1014 l 699 1014 l 218 0 l 14 0 "},"\\":{"ha":711,"x_min":0,"x_max":0,"o":"m 14 1014 l 218 1014 l 699 0 l 494 0 "},"":{"ha":394,"x_min":0,"x_max":0,"o":"m 101 190 l 292 190 l 292 0 l 101 0 "},"":{"ha":394,"x_min":0,"x_max":0,"o":"m 132 121 l 300 121 l 203 -162 l 85 -162 "},"¤":{"ha":1074,"x_min":0,"x_max":0,"o":"m 542 142 b 363 188 476 142 415 158 l 185 4 l 44 142 l 226 328 b 182 503 197 379 182 439 b 228 682 182 568 199 629 l 42 878 l 183 1011 l 367 819 b 542 864 418 847 478 864 b 714 821 604 864 663 849 l 889 1000 l 1029 864 l 853 683 b 901 503 883 631 901 568 b 851 319 901 435 883 372 l 1029 135 l 889 0 l 711 183 b 542 142 661 157 603 142 m 542 322 b 717 503 639 322 717 404 b 542 683 717 601 639 683 b 368 503 443 683 368 601 b 542 322 368 404 443 322 "},"▪":{"ha":972,"x_min":0,"x_max":0,"o":"m 139 694 l 833 694 l 833 0 l 139 0 "},"▲":{"ha":1246,"x_min":0,"x_max":0,"o":"m 28 0 l 624 1031 l 1218 0 "},"♻":{"ha":1279,"x_min":0,"x_max":0,"o":"m 1142 339 l 1015 121 b 901 49 989 81 969 49 l 826 49 l 826 -17 l 679 161 l 826 338 l 826 274 l 1015 274 b 1140 342 1093 274 1140 342 m 253 154 l 128 374 b 122 507 106 415 88 449 l 160 571 l 104 603 l 332 643 l 408 426 l 356 458 b 261 294 356 458 264 301 b 256 154 222 228 256 154 m 540 1013 l 793 1013 b 913 951 842 1011 879 1010 l 949 888 l 1006 919 l 925 701 l 700 743 l 753 774 l 660 938 b 540 1011 619 1006 540 1011 m 361 931 b 406 971 368 942 385 960 b 621 925 483 1017 594 975 l 469 663 l 274 775 m 419 49 b 361 65 404 49 381 53 b 293 274 282 111 264 225 l 596 274 l 596 49 m 1156 529 b 1168 472 1163 518 1168 496 b 1022 308 1169 382 1076 308 l 871 571 l 1065 682 "},"♼":{"ha":1279,"x_min":0,"x_max":0,"o":"m 1163 508 b 642 -12 1163 219 929 -12 b 118 508 351 -12 118 219 b 642 1032 118 797 351 1032 b 1163 508 929 1032 1163 797 m 354 722 l 506 635 l 622 838 b 456 874 601 876 515 908 b 422 842 440 864 426 851 m 554 904 b 647 847 554 904 618 899 l 721 721 l 679 696 l 854 664 l 915 833 l 872 808 l 843 858 b 750 906 817 903 789 906 l 554 906 m 599 158 l 599 333 l 363 333 b 417 171 340 294 356 207 b 461 158 432 163 450 158 m 339 240 b 343 350 339 240 314 297 l 417 476 l 458 451 l 399 619 l 222 589 l 265 564 l 236 514 b 240 410 208 468 224 443 l 338 240 m 968 650 l 815 563 l 933 358 b 1047 488 976 358 1049 417 b 1036 532 1047 506 1042 522 m 1025 385 b 928 333 1025 385 989 333 l 782 333 l 782 382 l 667 246 l 782 108 l 782 158 l 839 158 b 928 214 893 158 910 183 l 1026 383 "},"♽":{"ha":1279,"x_min":0,"x_max":0,"o":"m 1163 508 b 642 -12 1163 219 929 -12 b 118 508 351 -12 118 219 b 642 1032 118 797 351 1032 b 1163 508 929 1032 1163 797 m 1136 508 b 642 1006 1136 783 915 1006 b 143 508 365 1006 143 783 b 642 13 143 233 365 13 b 1136 508 915 13 1136 233 m 422 842 b 456 874 426 851 440 864 b 622 838 515 908 601 876 l 506 635 l 354 722 m 554 906 l 750 906 b 843 858 789 906 817 903 l 872 808 l 915 833 l 854 664 l 679 696 l 721 721 l 647 847 b 554 904 618 899 554 904 m 461 158 b 417 171 450 158 432 163 b 363 333 356 207 340 294 l 599 333 l 599 158 m 338 240 l 240 410 b 236 514 224 443 208 468 l 265 564 l 222 589 l 399 619 l 458 451 l 417 476 l 343 350 b 339 240 314 297 339 240 m 1036 532 b 1047 488 1042 522 1047 506 b 933 358 1049 417 976 358 l 815 563 l 968 650 m 1026 383 l 928 214 b 839 158 910 183 893 158 l 782 158 l 782 108 l 667 246 l 782 382 l 782 333 l 928 333 b 1025 385 989 333 1025 385 "},"⌂":{"ha":1214,"x_min":0,"x_max":0,"o":"m 139 0 l 139 593 l 607 1042 l 1075 593 l 1075 0 "},"♠":{"ha":1278,"x_min":0,"x_max":0,"o":"m 465 0 b 596 403 503 71 596 235 b 360 214 561 306 486 214 b 122 433 231 214 122 314 b 449 882 122 593 219 699 l 643 1038 l 644 1038 l 839 882 b 1156 433 1068 699 1156 593 b 938 215 1156 314 1057 215 b 686 403 801 215 721 306 b 825 0 686 235 788 71 "},"♣":{"ha":1278,"x_min":0,"x_max":0,"o":"m 467 0 b 593 344 500 63 576 197 b 361 181 554 249 468 181 b 115 426 225 181 115 290 b 361 672 115 563 225 672 b 419 663 382 672 401 668 b 393 783 403 699 393 742 b 636 1028 393 918 501 1028 b 881 783 771 1028 881 918 b 854 661 881 740 871 699 b 918 672 874 668 894 672 b 1163 426 1054 672 1163 563 b 917 181 1163 290 1053 181 b 690 343 810 181 728 249 b 826 0 710 197 793 63 "},"♦":{"ha":1278,"x_min":0,"x_max":0,"o":"m 639 1099 l 1093 542 l 639 -14 l 185 542 "},"¬":{"ha":838,"x_min":0,"x_max":0,"o":"m 596 533 l 39 533 l 39 718 l 789 718 l 789 213 l 596 213 "},"∞":{"ha":1236,"x_min":0,"x_max":0,"o":"m 346 285 b 97 533 208 285 97 396 b 346 782 97 671 208 782 b 619 643 454 782 542 717 b 890 782 696 717 783 782 b 1139 533 1028 782 1139 671 b 890 285 1139 396 1028 285 b 619 422 783 285 697 350 b 346 285 542 350 454 285 m 346 446 b 506 533 400 446 453 483 b 346 621 453 583 400 621 b 258 533 299 621 258 581 b 346 446 258 486 299 446 m 890 446 b 978 533 938 446 978 486 b 890 621 978 581 938 621 b 732 533 836 621 786 583 b 890 446 786 483 836 446 "},"∫":{"ha":507,"x_min":0,"x_max":0,"o":"m 22 -122 b 153 0 139 -122 153 -106 l 153 713 b 458 1014 153 939 226 1014 l 474 1014 l 474 836 b 343 711 357 836 343 819 l 343 1 b 38 -300 343 -225 269 -300 l 22 -300 "},"√":{"ha":1096,"x_min":0,"x_max":0,"o":"m 183 526 l 63 526 l 63 694 l 315 694 l 488 231 l 844 1014 l 1050 1014 l 574 0 l 386 0 "},"∏":{"ha":1083,"x_min":0,"x_max":0,"o":"m 50 1014 l 1033 1014 l 1033 829 l 865 829 l 865 0 l 672 0 l 672 829 l 411 829 l 411 0 l 218 0 l 218 829 l 50 829 "},"∑":{"ha":782,"x_min":0,"x_max":0,"o":"m 49 207 l 351 519 l 58 829 l 58 1014 l 733 1014 l 733 829 l 306 829 l 599 519 l 275 185 l 733 185 l 733 0 l 49 0 "},"":{"ha":1483,"x_min":0,"x_max":0,"o":"m 383 90 b 60 465 314 238 197 393 l 60 546 b 342 918 199 626 313 815 l 514 836 b 353 600 478 739 421 658 l 1308 600 l 1308 415 l 367 415 b 539 199 435 364 494 283 l 383 90 m 994 374 l 1053 374 l 1179 150 l 1094 150 m 1250 374 l 1308 374 l 1435 150 l 1350 150 m 1122 374 l 1181 374 l 1307 150 l 1222 150 m 1347 858 l 1432 858 l 1310 642 l 1251 642 m 1092 858 l 1176 858 l 1054 642 l 996 642 m 1219 858 l 1304 858 l 1182 642 l 1124 642 "},"↑":{"ha":1244,"x_min":0,"x_max":0,"o":"m 518 718 b 282 542 458 644 378 576 l 190 714 b 574 1014 293 743 479 875 l 647 1014 b 1029 714 740 875 926 743 l 938 542 b 703 715 842 576 761 643 l 703 0 l 518 0 "},"←":{"ha":1244,"x_min":0,"x_max":0,"o":"m 433 88 b 103 463 364 235 240 376 l 103 543 b 403 926 242 638 374 824 l 575 835 b 399 599 539 738 471 657 l 1117 599 l 1117 414 l 403 414 b 589 196 476 364 542 283 l 433 88 "},"→":{"ha":1244,"x_min":0,"x_max":0,"o":"m 631 196 b 815 414 676 283 743 364 l 103 414 l 103 599 l 821 599 b 644 835 747 657 679 738 l 817 926 b 1117 543 846 824 978 638 l 1117 463 b 786 88 979 376 856 235 "},"↓":{"ha":1244,"x_min":0,"x_max":0,"o":"m 572 0 b 190 300 479 139 293 271 l 282 472 b 517 297 378 436 457 369 l 517 1014 l 701 1014 l 701 296 b 938 472 760 368 840 436 l 1029 300 b 646 0 926 271 740 139 l 572 0 "},"○":{"ha":1288,"x_min":0,"x_max":0,"o":"m 643 -14 b 125 507 356 -14 125 218 b 643 1028 125 794 356 1028 b 1163 507 932 1028 1163 794 b 643 -14 1163 218 932 -14 m 643 176 b 971 507 825 176 971 325 b 643 838 971 689 825 838 b 317 507 461 838 317 689 b 643 176 317 325 461 176 "},"●":{"ha":1288,"x_min":0,"x_max":0,"o":"m 643 -14 b 125 507 356 -14 125 218 b 643 1028 125 794 356 1028 b 1163 507 932 1028 1163 794 b 643 -14 1163 218 932 -14 "},"⚪":{"ha":969,"x_min":0,"x_max":0,"o":"m 485 -14 b 125 347 285 -14 125 147 b 485 708 125 547 285 708 b 844 347 685 708 844 547 b 485 -14 844 147 685 -14 m 485 167 b 660 347 582 167 660 249 b 485 528 660 446 582 528 b 311 347 386 528 311 446 b 485 167 311 249 386 167 "},"⚫":{"ha":969,"x_min":0,"x_max":0,"o":"m 485 -14 b 125 347 285 -14 125 147 b 485 708 125 547 285 708 b 844 347 685 708 844 547 b 485 -14 844 147 685 -14 "},"□":{"ha":1286,"x_min":0,"x_max":0,"o":"m 139 1014 l 1147 1014 l 1147 0 l 139 0 m 332 185 l 954 185 l 954 829 l 332 829 "},"■":{"ha":1286,"x_min":0,"x_max":0,"o":"m 139 1014 l 1147 1014 l 1147 0 l 139 0 "},"⊠":{"ha":1286,"x_min":0,"x_max":0,"o":"m 139 1014 l 1147 1014 l 1147 0 l 139 0 m 332 185 l 954 185 l 954 829 l 332 829 m 360 335 l 529 510 l 358 688 l 472 799 l 640 625 l 811 800 l 925 689 l 751 510 l 924 333 l 810 222 l 640 396 l 474 224 "},"▫":{"ha":972,"x_min":0,"x_max":0,"o":"m 139 694 l 833 694 l 833 0 l 139 0 m 329 189 l 643 189 l 643 506 l 329 506 "},"☒":{"ha":972,"x_min":0,"x_max":0,"o":"m 139 694 l 833 694 l 833 0 l 139 0 m 306 165 l 667 165 l 667 529 l 306 529 m 486 438 l 561 514 l 653 422 l 578 346 l 651 272 l 560 181 l 486 253 l 414 179 l 322 271 l 394 344 l 321 419 l 413 511 "},"▼":{"ha":1246,"x_min":0,"x_max":0,"o":"m 1218 1014 l 624 -17 l 28 1014 "},"◄":{"ha":1246,"x_min":0,"x_max":0,"o":"m 1107 -79 l 76 517 l 1107 1111 "},"►":{"ha":1246,"x_min":0,"x_max":0,"o":"m 139 1111 l 1169 517 l 139 -79 "},"◤":{"ha":1246,"x_min":0,"x_max":0,"o":"m 40 233 l 882 1075 l 1190 -75 "},"◥":{"ha":1246,"x_min":0,"x_max":0,"o":"m 61 -81 l 371 1069 l 1211 226 "},"◢":{"ha":1246,"x_min":0,"x_max":0,"o":"m 371 -101 l 63 1049 l 1213 740 "},"◣":{"ha":1246,"x_min":0,"x_max":0,"o":"m 36 740 l 1186 1049 l 878 -101 "},"◎":{"ha":1288,"x_min":0,"x_max":0,"o":"m 643 -14 b 125 507 356 -14 125 218 b 643 1028 125 794 356 1028 b 1163 507 932 1028 1163 794 b 643 -14 1163 218 932 -14 m 643 176 b 971 507 825 176 971 325 b 643 838 971 689 825 838 b 317 507 461 838 317 689 b 643 176 317 325 461 176 m 643 347 b 485 507 556 347 485 419 b 643 667 485 594 556 667 b 801 507 731 667 801 594 b 643 347 801 419 731 347 "},"♥":{"ha":1278,"x_min":0,"x_max":0,"o":"m 124 764 b 378 1028 124 907 235 1028 b 635 804 519 1028 619 931 b 892 1028 651 931 749 1028 b 1154 764 1035 1028 1154 907 b 832 194 1154 604 1063 451 l 635 -24 l 439 194 b 124 764 208 451 124 604 "},"≡":{"ha":611,"x_min":0,"x_max":0,"o":"m 49 585 l 563 585 l 563 422 l 49 422 m 49 353 l 563 353 l 563 190 l 49 190 m 49 817 l 563 817 l 563 654 l 49 654 "},"∆":{"ha":1246,"x_min":0,"x_max":0,"o":"m 28 0 l 624 1031 l 1218 0 m 347 185 l 897 185 l 622 663 "},"′":{"ha":288,"x_min":0,"x_max":0,"o":"m 38 731 l 85 1014 l 253 1014 l 156 731 "},"″":{"ha":514,"x_min":0,"x_max":0,"o":"m 38 731 l 85 1014 l 253 1014 l 156 731 m 264 731 l 311 1014 l 479 1014 l 382 731 "},"◊":{"ha":1171,"x_min":0,"x_max":0,"o":"m 46 508 l 574 1036 l 1104 506 l 576 -22 m 578 226 l 854 503 l 571 786 l 294 510 "},"":{"ha":1151,"x_min":0,"x_max":0,"o":"m 36 185 l 269 185 b 129 579 196 285 129 421 b 575 1029 129 828 325 1029 b 1024 579 824 1029 1024 828 b 882 185 1022 421 956 285 l 1115 185 l 1115 0 l 713 0 l 636 161 b 831 585 757 310 829 428 b 575 847 831 731 721 847 b 322 585 432 847 322 731 b 515 161 322 428 394 310 l 453 0 l 36 0 "},"∂":{"ha":779,"x_min":0,"x_max":0,"o":"m 386 -14 b 28 346 194 -14 28 139 b 367 692 28 549 175 692 b 486 663 415 692 454 681 b 82 1014 408 767 282 875 l 365 1014 b 747 357 660 785 747 563 b 386 -14 747 147 589 -14 m 388 167 b 563 346 482 167 563 250 b 389 528 563 446 488 528 b 214 346 296 528 214 454 b 388 167 214 242 294 167 "},"":{"ha":1483,"x_min":0,"x_max":0,"o":"m 1101 925 b 1425 550 1171 778 1288 622 l 1425 469 b 1143 97 1286 389 1172 200 l 971 179 b 1131 415 1006 275 1063 356 l 176 415 l 176 600 l 1117 600 b 946 817 1050 650 990 731 l 1101 925 m 490 642 l 432 642 l 306 865 l 390 865 m 235 642 l 176 642 l 50 865 l 135 865 m 363 642 l 304 642 l 178 865 l 263 865 m 138 157 l 53 157 l 175 374 l 233 374 m 393 157 l 308 157 l 431 374 l 489 374 m 265 157 l 181 157 l 303 374 l 361 374 "},"":{"ha":1483,"x_min":0,"x_max":0,"o":"m 333 868 b 708 1192 481 938 636 1054 l 789 1192 b 1161 910 869 1053 1058 939 l 1079 738 b 843 897 982 772 901 829 l 843 0 l 658 0 l 658 883 b 442 713 607 817 526 757 l 333 868 m 617 314 l 617 256 l 393 129 l 393 214 m 617 58 l 617 0 l 393 -126 l 393 -42 m 617 186 l 617 128 l 393 1 l 393 86 m 1101 -39 l 1101 -124 l 885 -1 l 885 57 m 1101 217 l 1101 132 l 885 254 l 885 313 m 1101 89 l 1101 4 l 885 126 l 885 185 "},"":{"ha":1483,"x_min":0,"x_max":0,"o":"m 1161 176 b 786 -147 1014 107 858 -10 l 706 -147 b 333 135 625 -8 436 106 l 415 307 b 651 146 511 271 592 214 l 651 1014 l 836 1014 l 836 160 b 1053 332 886 228 967 288 l 1161 176 m 878 700 l 878 758 l 1101 885 l 1101 800 m 878 956 l 878 1014 l 1101 1140 l 1101 1056 m 878 828 l 878 886 l 1101 1013 l 1101 928 m 393 1053 l 393 1138 l 610 1015 l 610 957 m 393 797 l 393 882 l 610 760 l 610 701 m 393 925 l 393 1010 l 610 888 l 610 829 "},"★":{"ha":1250,"x_min":0,"x_max":0,"o":"m 881 118 l 621 306 l 363 118 l 463 422 l 204 610 l 522 608 l 622 911 l 721 608 l 1040 607 l 781 421 "},"☼":{"ha":1289,"x_min":0,"x_max":0,"o":"m 399 507 b 640 749 399 639 508 749 b 882 507 772 749 882 639 b 640 265 882 375 772 265 b 399 507 508 265 399 375 m 603 999 l 678 999 l 654 801 l 626 801 m 678 18 l 603 18 l 626 215 l 654 215 m 150 471 l 150 546 l 347 522 l 347 494 m 1131 546 l 1131 471 l 933 494 l 933 522 m 194 721 l 233 786 l 393 665 l 379 644 m 1086 296 l 1047 231 l 888 351 l 901 372 m 363 915 l 428 954 l 504 769 l 483 756 m 918 101 l 853 63 l 776 247 l 797 261 m 853 954 l 918 915 l 797 756 l 776 769 m 428 63 l 363 101 l 483 261 l 504 247 m 1044 786 l 1086 722 l 901 644 l 888 667 m 236 231 l 194 294 l 379 372 l 393 350 "},"☾":{"ha":1093,"x_min":0,"x_max":0,"o":"m 742 856 b 410 507 558 856 410 699 b 742 158 410 315 558 158 b 840 175 775 158 808 165 b 593 96 769 125 683 96 b 182 507 367 96 182 281 b 593 918 182 733 367 918 b 840 839 683 918 769 889 b 742 856 808 847 775 856 "},"↖":{"ha":1244,"x_min":0,"x_max":0,"o":"m 408 590 b 365 300 417 497 408 393 l 179 357 b 239 840 232 450 269 675 l 290 892 b 772 950 454 860 679 897 l 829 764 b 540 721 736 719 632 711 l 1046 214 l 915 83 "},"↗":{"ha":1244,"x_min":0,"x_max":0,"o":"m 179 214 l 686 721 b 396 764 593 711 489 719 l 453 950 b 936 890 546 897 771 860 l 988 839 b 1046 357 956 675 993 450 l 860 300 b 817 589 815 393 807 496 l 310 83 "},"↙":{"ha":1244,"x_min":0,"x_max":0,"o":"m 774 81 b 290 140 681 133 456 171 l 239 192 b 181 674 271 356 233 581 l 367 731 b 410 442 410 638 418 533 l 917 947 l 1047 817 l 540 310 b 831 267 633 318 738 310 l 774 81 "},"↘":{"ha":1244,"x_min":0,"x_max":0,"o":"m 978 181 b 496 122 814 213 589 175 l 439 308 b 728 351 532 351 635 360 l 222 858 l 353 989 l 860 482 b 903 772 850 575 858 679 l 1089 715 b 1029 232 1036 622 999 397 l 978 181 "},"":{"ha":394,"x_min":0,"x_max":0,"o":"m 101 190 l 292 190 l 292 0 l 101 0 m 101 694 l 292 694 l 292 504 l 101 504 "},"":{"ha":394,"x_min":0,"x_max":0,"o":"m 104 694 l 294 694 l 294 504 l 104 504 m 132 121 l 300 121 l 203 -162 l 85 -162 "},"":{"ha":1093,"x_min":0,"x_max":0,"o":"m 546 -14 b 28 507 258 -14 28 218 b 546 1028 28 794 258 1028 b 1065 507 835 1028 1065 794 b 546 -14 1065 218 835 -14 m 546 176 b 874 507 728 176 874 325 b 546 838 874 689 728 838 b 219 507 364 838 219 689 b 546 176 219 325 364 176 "},"":{"ha":663,"x_min":0,"x_max":0,"o":"m 49 185 l 247 185 l 247 728 b 83 644 215 681 146 644 l 68 644 l 68 847 l 75 847 b 254 1014 208 847 254 942 l 440 1014 l 440 185 l 628 185 l 628 0 l 49 0 "},"":{"ha":742,"x_min":0,"x_max":0,"o":"m 49 182 b 314 544 49 356 189 460 b 503 744 413 613 503 668 b 368 861 503 808 456 861 b 193 718 282 861 226 803 l 26 801 b 369 1028 89 940 204 1028 b 699 743 576 1028 699 903 b 447 413 699 582 568 493 b 242 185 343 342 243 279 l 693 185 l 693 0 l 49 0 "}}}
